<svg xmlns="http://www.w3.org/2000/svg" viewBox="0 0 24 24" width="24" height="24" fill="#ffffff">
<svg width="100pt" height="100pt" version="1.1" viewBox="0 0 100 100" xmlns="http://www.w3.org/2000/svg"> <path d="m72.641 81.621h-45.281c-0.82812 0-1.6289-0.17188-2.3789-0.46094 0.03125 0.058594 0.050781 0.12109 0.078125 0.17969 2.4492 5.0898 5.9805 9.8086 10.488 14.031 0.089844 0.089844 0.21094 0.12891 0.33984 0.12891h28.219c0.12891 0 0.25-0.050781 0.33984-0.12891 4.5117-4.2188 8.0391-8.9414 10.488-14.031 0.03125-0.058594 0.050781-0.12109 0.078125-0.17969-0.75 0.28906-1.5508 0.46094-2.3789 0.46094z"/> <path d="m58.32 65c0 4.5938-3.7266 8.3203-8.3203 8.3203s-8.3203-3.7266-8.3203-8.3203 3.7266-8.3203 8.3203-8.3203 8.3203 3.7266 8.3203 8.3203"/> <path d="m44.602 30.141 5.3984 9.2109 5.3984-9.2109-5.3984-9.2109z"/> <path d="m11.738 64.922c-0.48047-0.26953-1.0898-0.10938-1.3711 0.37109-1.9102 3.3203-1.8281 6.7305 0.19141 9.1406 1.2383 1.4805 3.0508 2.3008 4.8594 2.3008 0.67969 0 1.3711-0.12109 2.0312-0.35938 0.67969-0.25 1.75-0.80078 2.75-1.9883 0.26172-0.30859 0.51172-0.66016 0.75-1.0586 0.32031 1.25 0.71094 2.5117 1.1914 3.7617 0.80859 2.1211 2.9102 3.5508 5.2188 3.5508h45.281c2.3086 0 4.4102-1.4297 5.2188-3.5508 0.48047-1.25 0.87109-2.5 1.1914-3.7617 0.23828 0.39844 0.48828 0.75 0.75 1.0586 1 1.1914 2.0703 1.7383 2.75 1.9883 0.66016 0.23828 1.3398 0.35938 2.0312 0.35938 1.8086 0 3.6094-0.82031 4.8594-2.3008 2.0312-2.4102 2.1016-5.8203 0.19141-9.1406-0.26953-0.48047-0.89062-0.64062-1.3711-0.37109-0.48047 0.28125-0.64062 0.89062-0.37109 1.3711 1.4688 2.5586 1.4688 5.1211 0.011719 6.8594-1.1719 1.3984-3.0508 1.9414-4.6719 1.3516-1.1914-0.42969-2.1289-1.4102-2.8008-2.8086-0.28906-0.60937-0.51172-1.3086-0.69141-2.0703 0.30078-2.3906 0.30859-4.7617 0.019531-7.0781 0.17969-0.67969 0.42969-1.3398 0.71094-1.9883 1-2.2891 2.5312-4.3789 4.1094-6.5312 3.8711-5.25 7.8711-10.68 3.4297-19.461-2.3398-4.6289-7.1914-6.5117-12.34-4.8008-4.3203 1.4297-8.2305 5.4102-8.5195 10.648-7.6289-11.941-3.8086-23.012-3.0703-24.898 0.070313-0.17188 0.10938-0.28125 0.12109-0.28906 0.070312-0.14844 0.058593-0.33984-0.03125-0.48047-0.089844-0.14062-0.25-0.23047-0.42188-0.23047h1.2383c2.4805 0 4.5-2.0195 4.5-4.5s-2.0195-4.5-4.5-4.5h-30c-2.4805 0-4.5 2.0195-4.5 4.5s2.0195 4.5 4.5 4.5h1.2383c-0.17188 0-0.32812 0.089844-0.42188 0.23047-0.089843 0.14062-0.10156 0.32031-0.03125 0.48047 0 0.011719 0.050781 0.12109 0.12109 0.28906 0.75 1.8906 4.5703 12.961-3.0703 24.898-0.28906-5.2383-4.1992-9.2188-8.5195-10.648-5.1602-1.7109-10 0.17188-12.34 4.8008-4.4414 8.7812-0.44141 14.211 3.4297 19.461 1.5898 2.1484 3.1211 4.2305 4.1094 6.5312 0.28125 0.64062 0.51953 1.3008 0.71094 1.9883-0.28125 2.3281-0.28125 4.6992 0.019531 7.0781-0.17969 0.76172-0.39844 1.4609-0.69141 2.0703-0.66016 1.3984-1.6016 2.3711-2.8008 2.8086-1.6211 0.58984-3.5 0.050782-4.6719-1.3516-1.4609-1.7383-1.4609-4.3008 0.011719-6.8594 0.26953-0.48047 0.10938-1.0898-0.37109-1.3711zm38.262 9.3984c-5.1406 0-9.3203-4.1797-9.3203-9.3203s4.1797-9.3203 9.3203-9.3203 9.3203 4.1797 9.3203 9.3203-4.1797 9.3203-9.3203 9.3203zm6.4102-43.93-5.9805 10.199c-0.089844 0.14844-0.25 0.25-0.42969 0.25s-0.33984-0.089844-0.42969-0.25l-5.9805-10.199c-0.089844-0.16016-0.089844-0.35156 0-0.51172l5.9805-10.199c0.17969-0.30859 0.67969-0.30859 0.85938 0l5.9805 10.199c0.089844 0.16016 0.089844 0.35156 0 0.51172zm-36.16 27.168c-0.96094-1.6602-2.1016-3.2109-3.2188-4.7305-3.8281-5.1992-7.1406-9.6914-3.2617-17.371 2.2695-4.4805 6.6094-4.8984 9.9297-3.8008 4.2109 1.3984 7.9805 5.6484 7.0312 11.07-0.03125 0.19141 0 0.37891 0.078125 0.55078-0.37109 0.46875-0.76172 0.92969-1.1719 1.3984-0.62891 0.71875-1.2109 1.4297-1.7109 2.1211 0.53125-0.12891 1.0703-0.19922 1.6289-0.19922h40.93c0.55859 0 1.1016 0.070313 1.6289 0.19922-0.51172-0.69141-1.0898-1.4102-1.7188-2.1211-0.41016-0.46875-0.80078-0.94141-1.1719-1.3984 0.070313-0.17188 0.10938-0.35156 0.078125-0.55078-0.94922-5.4219 2.8203-9.6719 7.0312-11.07 3.3086-1.1016 7.6602-0.67969 9.9297 3.8008 3.8789 7.6797 0.57031 12.172-3.2617 17.371-1.1289 1.5312-2.2695 3.0781-3.2188 4.7305-0.23828 0.42188-0.46875 0.83984-0.69141 1.2812-0.78906-3.0391-2.0898-5.9688-3.9102-8.7188-1.0391-1.5781-2.8008-2.5195-4.6914-2.5195h-40.949c-1.8906 0-3.6484 0.94141-4.6914 2.5195-1.8203 2.75-3.1211 5.6797-3.9102 8.7188-0.21875-0.42969-0.44922-0.85938-0.69141-1.2812z"/></svg>
</svg>