<svg xmlns="http://www.w3.org/2000/svg" viewBox="0 0 24 24" width="24" height="24" fill="#ffffff">
<svg width="100pt" height="100pt" version="1.1" viewBox="0 0 100 100" xmlns="http://www.w3.org/2000/svg"> <path d="m91.953 11.359c-2.1719 2.1758-8.5117 8.5078-10.781 10.781v55.719c2.2812 2.2656 8.5781 8.5664 10.781 10.766 1.1406-1.75 1.7969-3.8438 1.7969-6.0781v-65.094c0-2.25-0.65625-4.3438-1.7969-6.0938z"/> <path d="m18.828 77.859v-55.719l-10.781-10.781c-1.1406 1.75-1.7969 3.8438-1.7969 6.0938v65.094c0 2.25 0.65625 4.3438 1.7969 6.0938 2.1719-2.1758 8.5117-8.5078 10.781-10.781z"/> <path d="m77.859 81.172h-55.719l-10.781 10.781c1.7656 1.1406 3.8594 1.7969 6.0938 1.7969h65.094c2.2344 0 4.3281-0.65625 6.0781-1.7969-2.1797-2.168-8.4961-8.5117-10.766-10.781z"/> <path d="m22.141 18.828h55.719l10.781-10.781c-1.7656-1.1406-3.8594-1.7969-6.0938-1.7969h-65.094c-2.2344 0-4.3281 0.65625-6.0938 1.7969 2.1758 2.1719 8.5078 8.5117 10.781 10.781z"/> <path d="m76.484 23.516h-52.969v38.859l11.734-19.406c2.8008-4.9727 10.324-4.9375 13.062 0.0625l8.5469 14.422c2.7695-4.3438 4.1445-9.4062 9.7656-9.3594 2.7656 0 5.2344 1.4844 6.6406 3.9844l3.2188 5.75zm-16.062 21.219c-4.3906 0-7.9531-3.5625-7.9531-7.9531 0.37109-10.496 15.516-10.512 15.891 0 0 4.3906-3.5625 7.9531-7.9375 7.9531z"/> <path d="m60.422 33.531c-4.3125 0.11328-4.2969 6.3984 0 6.5156 4.2773-0.12109 4.2891-6.4023 0-6.5156z"/> <path d="m54.062 61.922-9.7812-16.5c-0.56641-0.95703-1.4766-1.5195-2.5156-1.5156-1.0156 0-1.9219 0.54688-2.5 1.4844l-15.75 26.047v5.0469h52.969v-9.0781l-7.3125-13.047c-0.5625-1-1.4844-1.5781-2.5469-1.5781-1.0977-0.003906-2.0547 0.60938-2.6094 1.6719-1.9023 3.6367-6.5469 10.816-8.9375 14.719-0.63281 1.7578-3.2539 2.0156-4.1875 0.32812-0.51172-0.85547 0.28125-2.9531 2.375-6.2969 0.25-0.40625 0.53125-0.84375 0.79688-1.2812z"/></svg>
</svg>