<svg xmlns="http://www.w3.org/2000/svg" viewBox="0 0 24 24" width="24" height="24" fill="#ffffff">
<svg width="100pt" height="100pt" version="1.1" viewBox="0 0 100 100" xmlns="http://www.w3.org/2000/svg"> <path d="m78.125 8.5938h-56.25c-7.3281 0-13.281 5.9531-13.281 13.281s5.9531 13.281 13.281 13.281h7.0312v53.906c0 1.2969 1.0469 2.3438 2.3438 2.3438h37.5c1.2969 0 2.3438-1.0469 2.3438-2.3438v-53.906h7.0312c7.3281 0 13.281-5.9531 13.281-13.281s-5.9531-13.281-13.281-13.281zm-27.25 41.438c0.95312 0.39062 9.3281 3.9531 9.3281 10.031 0 4.8281-3.3594 8.8594-7.8594 9.9219v1.8906c0 1.2969-1.0469 2.3438-2.3438 2.3438s-2.3438-1.0469-2.3438-2.3438v-1.875c-4.5-1.0625-7.8594-5.1094-7.8594-9.9219 0-1.2969 1.0469-2.3438 2.3438-2.3438s2.3438 1.0469 2.3438 2.3438c0 3.0469 2.4844 5.5156 5.5156 5.5156s5.5156-2.4844 5.5156-5.5156c0-2.3281-4.3906-4.875-6.4062-5.6875-0.95312-0.39062-9.3281-3.9531-9.3281-10.031 0-4.8281 3.3594-8.8594 7.8594-9.9219v-1.875c0-1.2969 1.0469-2.3438 2.3438-2.3438s2.3438 1.0469 2.3438 2.3438v1.875c4.5 1.0625 7.8594 5.1094 7.8594 9.9219 0 1.2969-1.0469 2.3438-2.3438 2.3438s-2.3438-1.0469-2.3438-2.3438c0-3.0469-2.4844-5.5156-5.5156-5.5156s-5.5156 2.4844-5.5156 5.5156c0.015625 2.3125 4.4062 4.875 6.4062 5.6719zm27.25-19.562h-7.0312v-6.25h5.4688c1.2969 0 2.3438-1.0469 2.3438-2.3438s-1.0469-2.3438-2.3438-2.3438h-53.125c-1.2969 0-2.3438 1.0469-2.3438 2.3438s1.0469 2.3438 2.3438 2.3438h5.4688v6.25h-7.0312c-4.7344 0-8.5938-3.8594-8.5938-8.5938s3.8594-8.5938 8.5938-8.5938h56.25c4.7344 0 8.5938 3.8594 8.5938 8.5938s-3.8594 8.5938-8.5938 8.5938z"/></svg>
</svg>