<svg xmlns="http://www.w3.org/2000/svg" viewBox="0 0 24 24" width="24" height="24" fill="#ffffff">
<svg width="100pt" height="100pt" version="1.1" viewBox="0 0 100 100" xmlns="http://www.w3.org/2000/svg"> <path d="m89.016 46.078c-0.85938-1.6172-2.0547-3.0469-3.4766-4.1875l-5.8438-21.023c-1.3672-4.9297-5.8906-8.3672-11-8.3672h-37.391c-5.1094 0-9.6328 3.4375-11 8.3672l-5.8359 21.016c-3.2031 2.5781-5.0859 6.4609-5.0859 10.625v29.406c0 3.0781 2.5078 5.5859 5.5859 5.5859h9.1406c3.0781 0 5.5859-2.5078 5.5859-5.5859v-6.9141h40.625v6.9141c0 3.0781 2.5078 5.5859 5.5859 5.5859h9.1406c3.0781 0 5.5859-2.5078 5.5859-5.5859v-29.406c-0.007812-2.2422-0.5625-4.4688-1.6172-6.4297zm-64.531 16.305c-2.5234 0-4.5703-2.0469-4.5703-4.5703s2.0469-4.5703 4.5703-4.5703c2.5156 0 4.5703 2.0469 4.5703 4.5703s-2.0547 4.5703-4.5703 4.5703zm1.8359-39.844c0.625-2.2266 2.6719-3.7891 4.9844-3.7891h37.391c2.3125 0 4.3594 1.5625 4.9844 3.7891l5.0234 18.086h-57.406zm31.492 38.398h-15.625c-1.7266 0-3.125-1.3984-3.125-3.125s1.3984-3.125 3.125-3.125h15.625c1.7266 0 3.125 1.3984 3.125 3.125s-1.3984 3.125-3.125 3.125zm16.922-7.6953c2.5234 0 4.5703 2.0469 4.5703 4.5703s-2.0469 4.5703-4.5703 4.5703c-2.5156 0-4.5703-2.0469-4.5703-4.5703s2.0547-4.5703 4.5703-4.5703z"/></svg>
</svg>