<svg xmlns="http://www.w3.org/2000/svg" viewBox="0 0 24 24" width="24" height="24" fill="#ffffff">
<svg width="100pt" height="100pt" version="1.1" viewBox="0 0 100 100" xmlns="http://www.w3.org/2000/svg"> <path d="m42.988 18.691h1.4219v5.6914h-2.8516c-1.7109 0-2.8516 1.1406-2.8516 2.8516v2.8516h22.77v-2.8516c0-1.7109-1.1406-2.8516-2.8516-2.8516h-2.8516v-5.6914c3.4219 0.28125 6.8281 1.4219 9.9609 3.4219l2.8516 1.7109c0.28125 0.28125 0.85156 0.57031 1.4219 0.57031 0.57031 0 0.85156 0 1.1406-0.28125l5.6914-2.8516c0.85156-0.28125 1.4219-1.1406 1.4219-1.9883 0.28125-0.85156 0-1.7109-0.57031-2.2812l-1.7109-2.2812c-4.5508-6.2617-12.238-10.25-20.211-10.25h-12.809c-3.9805 0-7.1211 3.1289-7.1211 7.1211 0 3.9883 3.1289 7.1211 7.1211 7.1211z"/> <path d="m69.172 40.039c-0.57031-2.5586-2.8516-4.2695-5.4102-4.2695h-27.039c-2.5586 0-4.8398 1.7109-5.4102 4.2695l-9.1094 32.73c-1.4219 5.4102-0.28125 11.102 3.1289 15.648 3.4219 4.5508 8.5391 7.1211 14.23 7.1211h20.781c5.6914 0 10.82-2.5586 14.23-7.1211 3.4219-4.5508 4.5508-10.25 3.1289-15.648l-8.5391-32.73zm-19.07 38.422c-6.2617 0-11.379-5.1211-11.379-11.102 0-7.1211 8.5391-15.648 9.3906-16.512 1.1406-1.1406 2.8516-1.1406 3.9805 0 0.85156 0.85156 9.3906 9.3906 9.3906 16.512 0 5.9805-5.1211 11.102-11.379 11.102z"/></svg>
</svg>