<svg xmlns="http://www.w3.org/2000/svg" viewBox="0 0 24 24" width="24" height="24" fill="#ffffff">
<svg width="100pt" height="100pt" version="1.1" viewBox="0 0 100 100" xmlns="http://www.w3.org/2000/svg"> <g>  <path d="m88.094 19.891-26.297 28.562-45.266-1-7.9844-0.1875c-0.71875 0-1.3125-0.42188-1.6094-1.0625-0.28125-0.67188-0.17188-1.375 0.29688-1.9062l20.25-23.094c0.73438-0.84375 1.7969-1.3281 2.9219-1.3281h57.688z"/>  <path d="m100 25.328c0 1.3906-0.51562 2.7344-1.4688 3.75l-15.375 16.594c0 0.015625-0.015625 0.015625-0.015625 0.03125l-21.297 23.031c-1.5469 1.6875-2.3125 3.9219-2.0781 6.1875 0.15625 1.5156 0.71875 2.9375 1.6406 4.1094l-51.734 1.0781c-2.2812 0.046875-4.5312-0.35938-6.6562-1.2344-1.4062-0.57812-2.4688-1.7656-2.8438-3.25-0.40625-1.4844-0.078125-3.0312 0.85938-4.2188l16.266-20.703 45.156 1c0.46875 0 0.89062-0.1875 1.2188-0.53125l27.156-29.5c0.89062-0.98438 2.0312-1.6094 3.2344-1.7812h1.2344c1.1406 0.15625 2.2031 0.6875 3.0781 1.5312 1.0469 1.0312 1.625 2.4062 1.625 3.9062z"/>  <path d="m92.562 55.625c0.0625 0.71875-0.20312 1.4062-0.71875 1.9062l-20.828 20.047c-1.625 1.5469-4.3438 1.7188-6.1094 0.42188-1.1094-0.8125-1.7969-2.0156-1.9219-3.3906-0.14062-1.3438 0.3125-2.6719 1.2344-3.6719l20.344-22 7.0156 4.9375c0.57812 0.40625 0.9375 1.0312 0.98438 1.75z"/> </g></svg>
</svg>