<svg xmlns="http://www.w3.org/2000/svg" viewBox="0 0 24 24" width="24" height="24" fill="#ffffff">
<svg width="100pt" height="100pt" version="1.1" viewBox="0 0 100 100" xmlns="http://www.w3.org/2000/svg"> <path d="m47.691 40.438-2.875 8.3047c-0.21875 0.63281-0.47266 1.2461-0.75781 1.8359-0.28125 0.58984-0.59766 1.1562-0.9375 1.6992-0.019532-0.011719-0.039063-0.027344-0.058594-0.039063-0.61719-0.36719-1.0195-0.80469-1.4219-1.2422-0.78906-0.85547-1.5781-1.7148-3.5625-2.4023-3.1836-1.1016-3.5273-0.085938-5.7656-0.18359-0.46094-0.019531-0.99609-0.11328-1.6641-0.34375-0.34375-0.12109-0.64063-0.24609-0.89844-0.37891-0.23047-0.11719-0.44141-0.25-0.63672-0.39062-0.42188-0.30469-0.74219-0.65625-1.0664-1.0078-0.78906-0.85547-1.5781-1.7148-3.5625-2.4023-1.9766-0.68359-3.125-0.5-4.2773-0.3125-0.86328 0.14062-1.7305 0.27734-3.1523-0.21484-1.4141-0.48828-2.0078-1.1328-2.6016-1.7773-0.60547-0.65625-1.2109-1.3125-2.3984-1.918-0.10547-0.050781-0.21094-0.085937-0.32031-0.10547 0.13672-0.65234 0.31641-1.3047 0.53516-1.9492 0.015625-0.042969 0.027344-0.082031 0.042969-0.12109l2.875-8.3047zm-5.9531 13.73c-0.83203-0.51953-1.3281-1.0547-1.8242-1.5938-0.59375-0.64453-1.1875-1.2891-2.6016-1.7773-2.2344-0.77344-3.1094 0.03125-5.1055-0.054687-0.66016-0.027344-1.4102-0.15625-2.3203-0.47266-0.45703-0.16016-0.85156-0.32812-1.1992-0.50781-0.375-0.19141-0.68359-0.38281-0.94531-0.57422-0.60547-0.44141-1.0117-0.87891-1.4141-1.3203-0.59375-0.64453-1.1875-1.2891-2.6016-1.7773-1.4219-0.49219-2.2852-0.35156-3.1523-0.21484-1.1484 0.18359-2.3008 0.37109-4.2773-0.31641-1.9844-0.6875-2.7734-1.543-3.5586-2.3984-0.38281-0.41406-0.76172-0.82812-1.3359-1.1875-0.50391 7.5312 4.0312 14.773 11.5 17.379 0.011718 0.003907 0.023437 0.007813 0.03125 0.011719 6.9336 2.3984 14.355 0.10938 18.805-5.1953z" fill-rule="evenodd"/> <path d="m7.1602 77.16 0.003906-0.003906c1.1445-3.3047 4.5234-5.1367 7.5469-4.0898l6.1523 2.1289c3.0234 1.0469 4.5469 4.5781 3.3984 7.8828z" fill-rule="evenodd"/> <path d="m49.109 30.762c0 1.0781 0.875 1.9531 1.9531 1.9531s1.9531-0.875 1.9531-1.9531l-0.003906-11.586c0-1.0781-0.875-1.9531-1.9531-1.9531s-1.9531 0.875-1.9531 1.9531z"/> <path d="m43.078 32.141c0.76172 0.76172 1.9961 0.76172 2.7578 0 0.76172-0.76172 0.76172-1.9961 0-2.7578l-8.1914-8.1914c-0.76172-0.76172-1.9961-0.76172-2.7578 0-0.76172 0.76172-0.76172 1.9961 0 2.7578z"/> <path d="m56.289 29.383c-0.76172 0.76172-0.76172 1.9961 0 2.7578 0.76172 0.76172 1.9961 0.76172 2.7578 0l8.1914-8.1953c0.76172-0.76172 0.76172-1.9961 0-2.7578s-1.9961-0.76172-2.7578 0z"/> <path d="m21.543 72.949 3.6602-10.574c-1.0234-0.18359-2.0391-0.44922-3.043-0.80469-0.007812-0.003906-0.019531-0.007812-0.027344-0.011718-1.0078-0.35156-1.9727-0.78125-2.8984-1.2812l-3.668 10.605z" fill-rule="evenodd"/> <path d="m52.414 40.438 2.875 8.3047c0.21875 0.63281 0.47266 1.2461 0.75781 1.8359 0.28125 0.58984 0.59766 1.1562 0.9375 1.6992 0.019531-0.011719 0.039063-0.027344 0.058594-0.039063 0.61719-0.36719 1.0195-0.80469 1.4219-1.2422 0.78906-0.85547 1.5781-1.7148 3.5625-2.4023 3.1836-1.1016 3.5273-0.085938 5.7656-0.18359 0.46094-0.019531 0.99609-0.11328 1.6641-0.34375 0.34375-0.12109 0.64062-0.24609 0.89844-0.37891 0.23047-0.11719 0.44141-0.25 0.63672-0.39062 0.42187-0.30469 0.74219-0.65625 1.0664-1.0078 0.78906-0.85547 1.5781-1.7148 3.5625-2.4023 1.9766-0.68359 3.125-0.5 4.2773-0.3125 0.86328 0.14062 1.7305 0.27734 3.1523-0.21484 1.4141-0.48828 2.0078-1.1328 2.6016-1.7773 0.60547-0.65625 1.2109-1.3125 2.3984-1.918 0.10547-0.050781 0.21094-0.085937 0.32031-0.10547-0.13672-0.65234-0.31641-1.3047-0.53516-1.9492-0.015626-0.042969-0.027344-0.082031-0.042969-0.12109l-2.875-8.3047zm5.9531 13.73c0.83203-0.51953 1.3281-1.0547 1.8242-1.5938 0.59375-0.64453 1.1875-1.2891 2.6016-1.7773 2.2344-0.77344 3.1094 0.03125 5.1055-0.054687 0.66016-0.027344 1.4102-0.15625 2.3203-0.47266 0.45703-0.16016 0.85156-0.32812 1.1992-0.50781 0.375-0.19141 0.68359-0.38281 0.94531-0.57422 0.60547-0.44141 1.0117-0.87891 1.4141-1.3203 0.59375-0.64453 1.1875-1.2891 2.6016-1.7773 1.4219-0.49219 2.2852-0.35156 3.1523-0.21484 1.1484 0.18359 2.3008 0.37109 4.2773-0.31641 1.9844-0.6875 2.7734-1.543 3.5586-2.3984 0.38281-0.41406 0.76172-0.82812 1.3359-1.1875 0.50391 7.5312-4.0312 14.773-11.5 17.379-0.011719 0.003907-0.023437 0.007813-0.03125 0.011719-6.9336 2.3984-14.355 0.10938-18.805-5.1953z" fill-rule="evenodd"/> <path d="m92.945 77.16-0.003906-0.003906c-1.1445-3.3047-4.5234-5.1367-7.5469-4.0898l-6.1523 2.1289c-3.0234 1.0469-4.5469 4.5781-3.3984 7.8828z" fill-rule="evenodd"/> <path d="m78.562 72.949-3.6602-10.574c1.0234-0.18359 2.0391-0.44922 3.043-0.80469 0.007813-0.003906 0.019532-0.007812 0.027344-0.011718 1.0078-0.35156 1.9727-0.78125 2.8984-1.2812l3.668 10.605z" fill-rule="evenodd"/></svg>
</svg>