<svg xmlns="http://www.w3.org/2000/svg" viewBox="0 0 24 24" width="24" height="24" fill="#ffffff">
<svg width="100pt" height="100pt" version="1.1" viewBox="0 0 100 100" xmlns="http://www.w3.org/2000/svg"> <path d="m54.039 32.43c-3.4609 0-6.9297 1.3203-9.5703 3.9492l-8.0781 8.0781c-2.5508 2.5586-3.9609 5.9492-3.9609 9.5703 0 3.6094 1.4102 7.0117 3.9609 9.5586 5.2695 5.2695 13.859 5.2695 19.129 0l8.0781-8.0781c2.5508-2.5586 3.9609-5.9492 3.9609-9.5703 0-3.6094-1.4102-7.0117-3.9609-9.5586-2.6367-2.6289-6.0977-3.9492-9.5586-3.9492z"/> <path d="m34.211 64.488-12.289 0.26953c-3.0898 0.070313-5.6602 2.6406-5.7305 5.7305-0.03125 1.4688 0.51172 2.8398 1.5312 3.8594 1.0195 1.0195 2.3984 1.5508 3.8594 1.5312l0.78125-0.019531c0.48047-0.011719 0.91016 0.16016 1.25 0.48828 0.33984 0.32812 0.53906 0.78906 0.53906 1.2617l-0.019532 0.80859c-0.03125 1.4414 0.48828 2.7891 1.4805 3.8086 1 1.0195 2.3398 1.5781 3.8008 1.5781h0.12891c3.0703-0.070313 5.6406-2.6406 5.7109-5.7305l0.26953-12.289c-0.23047-0.21094-0.46875-0.39844-0.69141-0.62891-0.22266-0.21484-0.41016-0.44531-0.62109-0.66797z"/> <path d="m78.43 24.121-0.78125 0.019531c-0.5 0-0.94141-0.17188-1.2695-0.51172-0.33984-0.33984-0.51953-0.80078-0.51172-1.2695l0.019531-0.78125c0.03125-1.4609-0.51172-2.8281-1.5195-3.8398-1.0195-1.0195-2.3984-1.5781-3.8711-1.5391-3.0898 0.070312-5.6602 2.6406-5.7305 5.7305l-0.26953 12.289c0.21875 0.19922 0.44922 0.39062 0.67188 0.60938 0.21875 0.21875 0.42188 0.46094 0.62891 0.69141l12.281-0.26953c3.1016-0.070312 5.6719-2.6406 5.7305-5.7305v-0.12891c0-1.4414-0.55859-2.7891-1.5703-3.7812-1.0195-1-2.3867-1.5312-3.8086-1.4883z"/></svg>
</svg>