<svg xmlns="http://www.w3.org/2000/svg" viewBox="0 0 24 24" width="24" height="24" fill="#ffffff">
<svg width="100pt" height="100pt" version="1.1" viewBox="0 0 100 100" xmlns="http://www.w3.org/2000/svg"> <path d="m46.875 42.965v-11.434c0-1.7188 1.4062-3.125 3.125-3.125s3.125 1.4062 3.125 3.125v11.434c6.375-1.0391 11.148-5.4297 11.148-14.551 0-7.8828-7.957-17.055-11.988-21.195-1.2578-1.2891-3.3125-1.2891-4.5703 0-4.0312 4.1406-11.988 13.312-11.988 21.195 0 9.1172 4.7734 13.516 11.148 14.551z"/> <path d="m61.309 66.082c-1.2188 0-2.4297-0.3125-3.5039-0.90234l-7.3516-4.0703c-0.10547-0.054687-0.29297-0.10156-0.48047-0.10156-0.17969 0-0.34375 0.039063-0.48828 0.11719l-7.3164 4.0508c-1.082 0.59375-2.2891 0.90625-3.5078 0.90625-1.2305 0-2.4414-0.32031-3.5078-0.91797l-7.7773-4.3125v26.555c0 3.5 2.8125 6.3438 6.3438 6.3438h32.562c3.5312 0 6.3438-2.8438 6.3438-6.3438v-26.555l-7.8359 4.3242c-1.0391 0.58594-2.25 0.90625-3.4805 0.90625z"/> <path d="m66.281 43.219h-0.88672c-3.5859 3.9805-8.8789 6.2578-15.395 6.2578s-11.809-2.2734-15.395-6.2578h-0.88672c-3.5312 0-6.3438 2.8438-6.3438 6.3438v4.1484l10.828 5.9961c0.15234 0.085938 0.30469 0.125 0.45703 0.125 0.16797 0 0.33594-0.046875 0.48828-0.12891l7.3398-4.0625c1.0859-0.58594 2.2773-0.88281 3.4844-0.88281 1.1992 0 2.3906 0.29297 3.4492 0.85156l7.4062 4.0977c0.14453 0.078125 0.31641 0.125 0.48047 0.125 0.15625 0 0.30469-0.039062 0.4375-0.11328l10.879-6.0078v-4.1484c0-3.5-2.8125-6.3438-6.3438-6.3438z"/></svg>
</svg>