<svg xmlns="http://www.w3.org/2000/svg" viewBox="0 0 24 24" width="24" height="24" fill="#ffffff">
<svg width="100pt" height="100pt" version="1.1" viewBox="0 0 100 100" xmlns="http://www.w3.org/2000/svg"> <path d="m77.777 2.7773c-1.5273 0-2.7773 1.25-2.7773 2.7773v2.7773h-12.973v-2.7773c0-1.5273-1.2227-2.7773-2.7773-2.7773s-2.7773 1.25-2.7773 2.7773v2.7773h-12.945v-2.7773c0-1.5273-1.25-2.7773-2.7773-2.7773s-2.7773 1.25-2.7773 2.7773v2.7773h-12.973v-2.7773c0-1.5273-1.25-2.7773-2.7773-2.7773s-2.7773 1.25-2.7773 2.7773v88.891c0 1.5273 1.25 2.7773 2.7773 2.7773s2.7773-1.25 2.7773-2.7773v-2.7773h12.973v2.7773c0 1.5273 1.2227 2.7773 2.7773 2.7773s2.7773-1.25 2.7773-2.7773v-2.7773h12.945v2.7773c0 1.5273 1.25 2.7773 2.7773 2.7773s2.7773-1.25 2.7773-2.7773v-2.7773h12.973v2.7773c0 1.5273 1.25 2.7773 2.7773 2.7773s2.7773-1.25 2.7773-2.7773v-88.891c0-1.5273-1.25-2.7773-2.7773-2.7773zm-47.223 47.223c0-2.3047 1.8594-4.168 4.168-4.168 2.3047 0 4.168 1.8594 4.168 4.168 0 2.3047-1.8594 4.168-4.168 4.168-2.3047 0-4.168-1.8594-4.168-4.168zm15.277 0c0-2.3047 1.8594-4.168 4.168-4.168 2.3047 0 4.168 1.8594 4.168 4.168 0 2.3047-1.8594 4.168-4.168 4.168-2.3047 0-4.168-1.8594-4.168-4.168zm15.277 0c0-2.3047 1.8594-4.168 4.168-4.168 2.3047 0 4.168 1.8594 4.168 4.168 0 2.3047-1.8594 4.168-4.168 4.168-2.3047 0-4.168-1.8594-4.168-4.168zm13.891 36.109h-50v-8.1094l2.418 1.9453c1.0273 0.80469 2.4727 0.80469 3.4727 0l5.1953-4.168 5.1953 4.168c1.0273 0.80469 2.4727 0.80469 3.4727 0l5.2227-4.168 5.2227 4.168c1 0.80469 2.4453 0.80469 3.4453 0l5.2227-4.168 5.2227 4.168c0.5 0.41797 1.1094 0.60938 1.75 0.60938s1.2227-0.19531 1.7227-0.60938l2.4453-1.9453v8.1094zm0-65.219-4.168 3.332-5.25-4.168c-1-0.80469-2.4453-0.80469-3.4453 0l-5.2227 4.168-5.2227-4.168c-1-0.80469-2.4453-0.80469-3.4727 0l-5.1953 4.168-5.1953-4.168c-1.0273-0.80469-2.4727-0.80469-3.4727 0l-5.1953 4.168-4.168-3.332v-7h50v7z"/></svg>
</svg>