<svg xmlns="http://www.w3.org/2000/svg" viewBox="0 0 24 24" width="24" height="24" fill="#ffffff">
<svg width="100pt" height="100pt" version="1.1" viewBox="0 0 100 100" xmlns="http://www.w3.org/2000/svg"> <path d="m28.398 86.59 9.75-37.93h-5.8672l-17.66 33.82c4.5977 1.9883 13.719 4.3398 13.777 4.1094z"/> <path d="m72 86.59c4.5742-1.0234 9.0664-2.3984 13.43-4.1094l-18-33.82h-5.2188z"/> <path d="m60 48.66h-9c0.003906 0.050782 0.003906 0.10156 0 0.14844v41.191c6.3516-0.10156 18.879-2.7188 18.84-2.8789z"/> <path d="m30.461 87.109c-0.050782 0.21875 12.188 2.832 18.539 2.8906v-41.191-0.14844h-8.6602z"/> <path d="m60.309 35.441-21.137 0.019532-5.7812 11.07h32.828z"/> <path d="m39.191 33.328h21.102c0.42969-1.0508 1.4492-4.1094 2.7109-11.68 0.30859-1.8516 0-3.1289-0.83984-3.8008-2.1992-1.6914-8.1797 0-11.699 1.4805h-0.003906c-0.35547 0.27344-0.83594 0.3125-1.2305 0.10156-3.4609-1.5508-9.6602-3.3008-11.898-1.5781-0.87891 0.67188-1.1602 2-0.85156 3.8008 1.2695 7.5664 2.2812 10.617 2.7109 11.676z"/> <path d="m60.699 15.09v-5.0898h-3.1289v5.1016c1.0391-0.14062 2.0898-0.14453 3.1289-0.011718z"/> <path d="m42.441 15.16v-5.1602h-3.1406v5c1.0469-0.070312 2.1016-0.015625 3.1406 0.16016z"/></svg>
</svg>