<svg xmlns="http://www.w3.org/2000/svg" viewBox="0 0 24 24" width="24" height="24" fill="#ffffff">
<svg width="100pt" height="100pt" version="1.1" viewBox="0 0 100 100" xmlns="http://www.w3.org/2000/svg"> <path d="m76.359 47.582c0.13281 1.9023 0.28906 2.0586-0.98438 3.7148-16.672 4.0508-34.484 3.9141-51.086-0.42578-0.91797-1.2734-0.76172-1.5664-0.64844-3.2656 17.699 4.25 34.973 3.3125 52.719-0.023438zm-0.35547 5.5508c0.15625 0.33594 0.19922 0.71484 0.26953 1.543l1.5898 24.523c-9.0625 0.46875-20.477 6.5117-25.934 13.852-1.3633-0.35938-2.4844-0.35938-3.8477 0-5.4375-7.3398-16.871-13.383-25.934-13.852l1.5898-24.523c0.066407-1.0742 0.15625-1.4102 0.46875-1.8555 16.844 4.3398 34.879 4.4531 51.797 0.3125zm1.9883 27.973 0.15625 2.418c0 2.1914-10.18 0.94141-21.102 11.48-1.2539-0.53516-2.3047-0.98438-3.1992-1.3203 5.1484-6.582 15.867-12.176 24.145-12.578zm-31.84 12.574c-0.89453 0.33594-1.9453 0.78125-3.1992 1.3203-10.922-10.539-21.102-9.2852-21.102-11.48l0.17969-2.418c8.2539 0.40625 18.973 6 24.121 12.578zm-19.336-47.328c0.64844-3.4922 0.71484-6.8242 0.46875-9.7578-1.6992 0.24609-3.7148 0.69531-5.4375 0.96094-1.2969-5.4609-7.2969-10.004-11.121-14.074 0-3.1094 8.0781-8.6836 13.875-12.285l10.094 36.496c-2.6211-0.33203-5.2578-0.78125-7.8789-1.3398zm-0.51172-36.184c0.71484-0.44922 1.3633-0.82812 1.9258-1.1641 0.55859 4.0273 3.1797 9.4648 6.8047 11.41l7.2266 27.973c-1.8359-0.11328-3.6719-0.24609-5.5273-0.44922zm45.469-1.1641c0.55859 0.3125 1.207 0.71484 1.9453 1.1641l-10.383 37.48c-1.8555 0.22266-3.6914 0.40234-5.5508 0.53516l7.1836-27.793c3.625-1.9414 6.2656-7.3594 6.8047-11.387zm3.625 2.1953c5.6836 3.5781 13.875 9.2656 13.875 12.285-3.8047 4.0742-9.8242 8.6133-11.121 14.074-1.7227-0.26953-3.7148-0.71484-5.4375-0.96094-0.24609 2.9297-0.26953 6.1758 0.35938 9.6445-2.5742 0.44922-5.125 0.82812-7.6758 1.1641zm-24.66 6.4883c1.5664 1.4336 4.4531 2.2617 7.3828 2.3047 6.0195 0.066406 8.6836-2.5508 10.762-7.6523 0.91797-2.2812 1.3633-4.1602 1.207-4.4062-1.293-1.9727-2.9492-2.7539-5.207-2.9336-3.6484 15.73-26.113 15.73-29.738 0-2.2812 0.17969-3.9375 0.96094-5.2344 2.9297-0.15625 0.24609 0.28906 2.1719 1.2539 4.5195 2.082 5.0586 4.7422 7.6328 10.695 7.5195 2.9102-0.046875 5.7734-0.89453 7.3164-2.3047 0.55469-0.55859 1.0234-0.46875 1.5625 0.023438zm11.992-12.059c-1.7227 1.0508-3.3359 2.2812-5.0586 3.3359-4.5195 2.7539-10.316 2.9102-14.926 0.24609-1.8789-1.0742-3.6016-2.4375-5.4805-3.5781 3.8047 12.367 21.664 12.367 25.465-0.003906zm-4.6289 16.266c-3.1133-0.042969-6.2227-0.89453-8.168-2.3945-1.9453 1.4766-4.9883 2.3281-8.0547 2.3945-1.5664 0.023438-3.1797-0.15625-4.6328-0.58203l7.0273 27.164c3.8242 0.13281 7.6758 0.066407 11.504-0.15625l7.0039-27.031c-1.4805 0.42578-3.0938 0.62891-4.6797 0.60547z" fill-rule="evenodd"/></svg>
</svg>