<svg xmlns="http://www.w3.org/2000/svg" viewBox="0 0 24 24" width="24" height="24" fill="#ffffff">
<svg width="100pt" height="100pt" version="1.1" viewBox="0 0 100 100" xmlns="http://www.w3.org/2000/svg"> <path d="m49.27 27.77c-0.11328 0.078125-0.22266 0.16016-0.32812 0.25-0.5 0.41016-1 0.83984-1.4414 1.2891l-0.089844 0.10156c-0.39062 0.46094-0.75 0.94141-1.1016 1.4297l-0.058594 0.089844c-0.16016 0.28125-0.30859 0.55859-0.46094 0.87109l-0.078124 0.17188v-0.003906c-0.13281 0.25-0.24219 0.50781-0.33203 0.76953-0.10156 0.30078-0.19141 0.60156-0.26172 0.89844l-0.10938 0.44922 0.003907 0.003906c-0.03125 0.14453-0.050781 0.29297-0.0625 0.44141v0.10938c-0.082031 0.625-0.082031 1.2539 0 1.8789v0.17188c0.03125 0.23438 0.074219 0.46875 0.12891 0.69922v0.12109c0.058594 0.21094 0.12109 0.42188 0.17188 0.55078v-0.003906c0.13672 0.41797 0.3125 0.82031 0.53125 1.2031l0.10938 0.19922c0.21094 0.34766 0.44531 0.68359 0.69922 1l0.078125 0.089843 0.10156 0.10938c0.20312 0.22656 0.42188 0.44141 0.65234 0.64062l0.10156 0.078125h-0.003907c0.18359 0.15625 0.37109 0.29688 0.57031 0.42969 0.31641 0.21875 0.65234 0.40625 1 0.5625l0.12109 0.050781c0.1875 0.078125 0.37891 0.14453 0.57812 0.1875h0.050782c0.40625 0.085937 0.83203-0.015625 1.1602-0.26953 0.30859-0.24219 0.50391-0.60547 0.53125-1v-0.39844-0.46875l0.078125-0.80859 0.10938-0.62109v-0.003907c0.070312-0.31641 0.17578-0.625 0.3125-0.91797 0.050781-0.089844 0.10156-0.17969 0.14062-0.26172l0.070313-0.089844 0.10937-0.14062 0.19141-0.19141 0.26172-0.19141h0.058593l0.33984-0.21875-0.003906 0.003906c0.16406-0.085938 0.32031-0.17969 0.47266-0.28125 0.21484-0.085938 0.42188-0.19141 0.61719-0.32031l0.35156-0.17969 0.57031-0.30078 1.1602-0.64062c1.0703-0.66406 2.0312-1.4883 2.8477-2.4492 0.86328-1.0117 1.5234-2.1797 1.9414-3.4375 0.39062-1.1641 0.55078-2.3906 0.48047-3.6133-0.0625-1.0273-0.28906-2.043-0.67969-3-0.53125-1.3164-1.3711-2.4883-2.4414-3.418-0.27344-0.24219-0.57031-0.45703-0.87891-0.65234l-0.12891-0.078125c-0.16016-0.10156-0.32812-0.19531-0.5-0.26953-0.39062-0.15625-0.82422-0.12891-1.1914 0.070313-0.375 0.20703-0.63281 0.57422-0.69922 1l-0.070313 0.41016c0 0.10156 0 0.23047-0.070312 0.37891l-0.089844 0.44922c-0.17188 0.87891-0.41016 1.7461-0.71094 2.5898-0.14453 0.39844-0.32422 0.77734-0.53906 1.1406-0.18359 0.29687-0.39844 0.57031-0.64062 0.82031-0.25391 0.25391-0.52344 0.49219-0.80859 0.71094-0.32031 0.23828-0.67969 0.48828-1.0781 0.73828l-0.61328 0.30078-0.16016 0.10156-0.25 0.16016-0.53125 0.35938zm3.0781 9.8516zm-2.3477-27.48c0.34375 1.6445 0.37109 3.3438 0.078125 5-0.32812 1.8086-1.0078 3.5391-2 5.0898-0.92969 1.4844-2.0859 2.8125-3.4297 3.9414l-1.4805 1.1289-0.73047 0.53906-0.48828 0.35156c-0.23828 0.21484-0.5 0.40625-0.77734 0.57031-0.20703 0.17969-0.41797 0.35156-0.64062 0.50781-0.12891 0.12891-0.28125 0.26172-0.42969 0.37891l-0.10937 0.089843h-0.003907c-0.097656 0.11328-0.19922 0.22266-0.30859 0.32031 0 0-0.058594 0.058594-0.089844 0.10156l-0.26172 0.32812c-0.035156 0.085938-0.082031 0.16406-0.12891 0.24219l-0.078125 0.14062v0.10156c0 0.12891-0.078125 0.25-0.14062 0.39062v-0.003906c-0.15234 0.49219-0.24609 1-0.28125 1.5117v0.92188l-0.039063 1.207c0 0.28906 0 0.53906 0.058594 0.71875l0.070312 0.55078c0.050782 0.41797-0.078124 0.83984-0.35547 1.1562-0.28125 0.3125-0.68359 0.49609-1.1055 0.49609h-0.10938c-0.25781-0.027344-0.51562-0.074219-0.76953-0.14062h-0.14844c-0.51562-0.13672-1.0195-0.32031-1.5-0.55078-0.30078-0.14453-0.59766-0.30469-0.87891-0.48047l-0.14062-0.078125c-0.34766-0.22266-0.68359-0.46094-1-0.72266l-0.17969-0.14062-0.089843-0.078125c-0.40625-0.375-0.78906-0.77734-1.1406-1.1992l-0.17969-0.23828v-0.003907c-0.36328-0.46484-0.67969-0.96094-0.94141-1.4883-0.10156-0.19141-0.21875-0.44922-0.33984-0.73047l-0.070312-0.17187c-0.11719-0.29297-0.21875-0.59375-0.30078-0.89844l-0.070312-0.25c-0.23828-0.82422-0.36328-1.6797-0.37891-2.5391v-0.21094c-0.011719-0.19141-0.011719-0.37891 0-0.57031l0.058594-0.64063c0-0.42969 0.10156-0.85937 0.17969-1.3008 0.066406-0.36719 0.16016-0.73438 0.28125-1.0898l0.078125-0.26172c0.14062-0.44141 0.28906-0.85938 0.44922-1.2812l0.050781-0.10938c0.37109-0.75 0.78906-1.5 1.2305-2.2188l0.078125-0.12109c0.53906-0.71875 1.1289-1.4219 1.7383-2.0898l0.003906 0.003906c0.12109-0.13672 0.24609-0.26953 0.38281-0.39062l0.37109-0.35156c0.21094-0.19922 0.44141-0.39844 0.67187-0.60938l0.39844-0.35938 0.089844-0.078125 0.85938-0.69141c0.53125-0.44922 1-0.89062 1.4219-1.3086h-0.003906c0.37891-0.38672 0.73047-0.79688 1.0508-1.2305 0.31641-0.4375 0.57812-0.90625 0.78906-1.4023 0.24609-0.58203 0.43359-1.1875 0.55859-1.8086 0.25781-1.2773 0.41797-2.5781 0.48047-3.8789v-0.66016-0.58984-0.57031c0.011718-0.46094 0.23438-0.89062 0.60547-1.1602 0.36719-0.27344 0.84375-0.35938 1.2852-0.23047 0.24219 0.0625 0.48047 0.14844 0.71094 0.25l0.19141 0.078125c0.45313 0.19922 0.89063 0.43359 1.3086 0.70312 1.6406 1.0508 3.0117 2.4766 4 4.1602 0.74609 1.2188 1.2812 2.5547 1.5898 3.9492zm43.309 56.781c1.2305-4.9492 0.11719-10.191-3.0234-14.207s-7.957-6.3633-13.055-6.3633h-66.68c-1.1992-0.003906-2.3398 0.48828-3.1641 1.3555-0.82422 0.87109-1.2539 2.0391-1.1875 3.2344 0.52344 7.9414 1.8867 15.809 4.0625 23.469 1.6328 5.7461 4.8516 10.918 9.2891 14.918h-5.7422c-2.668 0-4.832 2.168-4.832 4.8359 0 2.6719 2.1641 4.8359 4.832 4.8359h54.383c2.668 0 4.832-2.1641 4.832-4.8359 0-2.668-2.1641-4.8359-4.832-4.8359h-5.75c3.0664-2.7695 5.5664-6.1094 7.3594-9.8398h7.4297c3.6992 0 7.2891-1.2344 10.203-3.5156 2.9141-2.2773 4.9844-5.4648 5.875-9.0508zm-9.7383-2.4219c-0.70312 2.9336-3.3242 5-6.3398 5h-4.2305c1.0195-4.3086 1.7891-8.6719 2.3086-13.07h1.9219c2.0117 0 3.9102 0.92578 5.1484 2.5078 1.2383 1.5859 1.6758 3.6523 1.1914 5.6016z"/></svg>
</svg>