<svg xmlns="http://www.w3.org/2000/svg" viewBox="0 0 24 24" width="24" height="24" fill="#ffffff">
<svg width="100pt" height="100pt" version="1.1" viewBox="0 0 100 100" xmlns="http://www.w3.org/2000/svg"> <path d="m60.047 50.633-4.4141 7.668c-0.20703 0.45312-0.66016 0.74609-1.1602 0.74609h-8.9453c-0.45312 0-0.875-0.24219-1.1016-0.63672l-4.4648-7.7617 0.003906 0.003906c-0.23438-0.39453-0.23828-0.88281-0.011719-1.2773l4.4141-7.6758c0.20703-0.45312 0.66016-0.74609 1.1602-0.74609h8.9453c0.45312 0 0.875 0.24219 1.1016 0.63672l4.4648 7.7617-0.003906-0.003906c0.23438 0.39453 0.23828 0.88281 0.011719 1.2773zm12.641 8.4531-5.8008-3.375c-0.41406-0.21094-0.67969-0.63672-0.69141-1.1016-0.011718-0.46875 0.23438-0.90234 0.64063-1.1328l6.0625-3.4766-6.0625-3.4766h0.003906c-0.19531-0.11328-0.35547-0.27344-0.46875-0.46484-0.35156-0.60938-0.14453-1.3867 0.46094-1.7383l5.8555-3.4062h0.003906c0.35938-0.20703 0.79688-0.22656 1.1719-0.050781l8.2305 3.8672 3.6836-2.1914-0.70703-4.2344-2.1602-1c-0.42969-0.19922-0.71484-0.625-0.73438-1.0977-0.019531-0.47656 0.23047-0.92188 0.64062-1.1562l5.8125-3.2969 0.39062-4.3008-3.9102-1.8008-5.8242 3.3984 0.003906 0.003907c-0.41406 0.23828-0.92578 0.22656-1.3281-0.03125-0.39844-0.26172-0.62109-0.72266-0.57422-1.1992l0.25-2.418-3.2734-2.7305-3.6641 2.1055-0.79297 9.0352c-0.035156 0.41016-0.26953 0.78125-0.62891 0.98828l-5.7773 3.3594c-0.39062 0.26563-0.89453 0.29688-1.3125 0.074219-0.41797-0.21875-0.67578-0.65234-0.67578-1.125v-6.9648l-6.0273 3.457h-0.003906c-0.39062 0.25-0.88672 0.26953-1.2969 0.042969-0.40625-0.22266-0.66016-0.64844-0.66016-1.1133v-6.8164c0-0.41797 0.20312-0.80859 0.54687-1.043l7.4336-5.1562v-4.3008l-4.0664-1.4062-1.8789 1.3086h0.003906c-0.38672 0.29297-0.90234 0.33984-1.3359 0.125-0.43359-0.21484-0.70703-0.65625-0.70703-1.1406v-6.6797l-3.5195-2.4258-3.5195 2.4258v6.6836c0 0.47266-0.26172 0.91016-0.68359 1.1289s-0.92969 0.1875-1.3164-0.085937l-1.9258-1.3398-4.0664 1.4062v4.3008l7.3516 5.1016h0.003906c0.39062 0.22656 0.63281 0.64844 0.63281 1.1016v6.8164c-0.003906 0.44922-0.24219 0.86719-0.63281 1.0938-0.39062 0.22266-0.87109 0.22656-1.2656 0.003907l-6.0859-3.4883v6.9648c0 0.22656-0.058594 0.45312-0.17578 0.64844-0.17188 0.28906-0.44922 0.5-0.77734 0.58203-0.32422 0.085938-0.67187 0.035156-0.96094-0.13672l-5.6914-3.3711c-0.38672-0.20313-0.64453-0.58594-0.68359-1.0195l-0.79297-9.0234-3.7656-2.1172-3.2773 2.7305 0.24609 2.3945c0.0625 0.48047-0.15625 0.94922-0.55859 1.2148-0.40625 0.26562-0.92188 0.28125-1.3398 0.039063l-5.8242-3.3984-3.9102 1.8008 0.39062 4.3008 5.7656 3.2656v-0.003907c0.43359 0.22266 0.69922 0.67188 0.69141 1.1562-0.011719 0.48828-0.29688 0.92578-0.73828 1.1289l-2.1602 1-0.70703 4.2344 3.6836 2.1914 8.168-3.832c0.38672-0.20703 0.85938-0.19922 1.2383 0.019531l5.8008 3.375c0.41406 0.21484 0.67969 0.63672 0.69141 1.1016 0.011718 0.46875-0.23438 0.90234-0.64063 1.1328l-6.0625 3.4727 6.0625 3.4766h-0.003906c0.19531 0.11328 0.35547 0.27344 0.46875 0.46484 0.35156 0.60938 0.14453 1.3867-0.46094 1.7383l-5.8555 3.4062h-0.003906c-0.35938 0.20703-0.79688 0.22656-1.1719 0.050781l-8.2383-3.875-3.6641 2.1055 0.69922 4.2227 2.1602 1c0.42969 0.19922 0.71094 0.62109 0.73047 1.0938 0.023437 0.47266-0.22266 0.92188-0.63281 1.1562l-5.8242 3.3984-0.39063 4.2227 3.9219 1.8789 5.8125-3.3906 0.003906-0.003907c0.41016-0.23828 0.92578-0.22656 1.3242 0.035157 0.40234 0.25781 0.625 0.71875 0.57422 1.1953l-0.25 2.418 3.2695 2.7227 3.7734-2.1992 0.79297-9.0352c0.039062-0.41797 0.27734-0.78906 0.64062-0.99609l5.6992-3.2695c0.39063-0.25 0.88672-0.26562 1.2969-0.042968 0.40625 0.22266 0.66016 0.64844 0.66016 1.1133v6.9648l6.0273-3.457h0.003906c0.39062-0.25 0.88672-0.26953 1.2969-0.046875 0.40625 0.22656 0.66016 0.65234 0.66016 1.1172v6.7109c0 0.41406-0.20312 0.80078-0.53906 1.0391l-7.4453 5.2617v4.2109l4.0586 1.4844 1.8203-1.3438v-0.003906c0.375-0.32812 0.91016-0.40625 1.3633-0.19922 0.45312 0.20703 0.74219 0.66016 0.74219 1.1602v6.7891l3.5156 2.4258 3.5195-2.4258v-6.7891c0-0.48047 0.26953-0.91797 0.69922-1.1328 0.42578-0.21875 0.94141-0.17188 1.3242 0.11328l1.8984 1.3984 4.0586-1.4844 0.003906-4.2031-7.3789-5.2148c-0.37891-0.23438-0.60938-0.64453-0.60938-1.0859v-6.7109c0.003906-0.44922 0.24609-0.86719 0.63672-1.0938 0.39062-0.22266 0.87109-0.22656 1.2656-0.003906l6.082 3.4883v-6.9688c0-0.21875 0.058594-0.43359 0.16406-0.62109 0.34375-0.61328 1.1172-0.83203 1.7305-0.48828l5.8086 3.2734c0.39453 0.19922 0.66016 0.58594 0.69922 1.0273l0.80078 9.0469 3.6758 2.1875 3.2578-2.7109-0.25-2.4023c-0.058594-0.47656 0.16016-0.94922 0.5625-1.2148 0.40234-0.26562 0.92188-0.28125 1.3398-0.039063l5.8125 3.3945 3.9219-1.8828-0.39063-4.2227-5.793-3.3789h-0.003906c-0.42188-0.23047-0.67969-0.67969-0.66406-1.1602 0.015625-0.47656 0.30078-0.91016 0.73828-1.1094l2.1602-1 0.69922-4.2227-3.6641-2.1055-8.1797 3.8438c-0.39062 0.20703-0.85938 0.20313-1.2422-0.019531zm-18.945-2.5859 3.7422-6.5-3.7422-6.5h-7.4844l-3.7422 6.5 3.7383 6.5z" fill-rule="evenodd"/></svg>
</svg>