<svg xmlns="http://www.w3.org/2000/svg" viewBox="0 0 24 24" width="24" height="24" fill="#ffffff">
<svg width="100pt" height="100pt" version="1.1" viewBox="0 0 100 100" xmlns="http://www.w3.org/2000/svg"> <path d="m94.445 12.059-34.359-8.8594c-2.1875-0.55469-4.4102 0.74219-4.9688 2.9297l-2.707 10.488h14.086c5.1133 0 9.2656 4.1523 9.2656 9.2656v5.6328h0.10938c3.2227 0 6.0039 2.1875 6.7461 5.3359l2.1133 8.9688c1.8164 0.48047 3.3711 1.4805 4.4844 2.8906l8.1523-31.652c0.55469-2.1875-0.74219-4.4453-2.9297-5.0039z"/> <path d="m67.016 45.82 2.1133-8.9688c0.25781-1.0742 0.74219-2.0742 1.4453-2.8555v-8.1172c0-2.2617-1.8164-4.0781-4.0781-4.0781l-35.504 0.003907c-2.2227 0-4.0781 1.8164-4.0781 4.0781v25.094l11.305-15.16c1-1.3711 2.5586-2.1133 4.1523-2.1133 1.0742 0 2.1875 0.37109 3.1133 1.0391 6.0781 4.5234 7.3398 13.156 2.8164 19.199l-12.23 16.422 1.0391 1.3711c0.51953-0.035156 1.0742-0.074219 1.5938-0.074219 0.81641 0 1.6328 0.074219 2.4453 0.18359 2.7812 0.48047 5.3008 1.668 7.375 3.4102h8.0039l-0.22266-4.4102c-0.14844-3.5195 1.0391-6.9688 3.3711-9.6367l0.92578-1.0742v-6.0039c0-4.0039 2.707-7.3398 6.4102-8.3008z"/> <path d="m65.793 54.125v5.3008h20.16v-5.3008c0-1.8906-1.4805-3.4102-3.3711-3.4102h-2.0039l-3.0039-12.676c-0.44531-1.7773-2.9648-1.7773-3.4102 0l-3.0039 12.676h-2c-1.8516 0-3.3711 1.5195-3.3711 3.4102z"/> <path d="m40.309 76.977c-1.4375-0.23047-2.8164-0.14453-4.1016 0.1875-0.79688 0.20703-1.6406-0.12891-2.1289-0.78906l-4.4883-6.0234 14.539-19.508c2.8125-3.7773 2.0273-9.1211-1.7578-11.938l-16.746 22.488-16.75-22.488c-3.7852 2.8164-4.5703 8.1602-1.7578 11.938l14.539 19.508-4.4883 6.0234c-0.49219 0.66016-1.332 0.99609-2.1289 0.78516-1.4609-0.37891-3.0547-0.44141-4.7148-0.070312-3.9414 0.87891-7.0273 4.1211-7.6875 8.0938-1.0391 6.2773 3.8047 11.738 9.9062 11.738 5.5469 0 10.051-4.5039 10.051-10.035 0-1.8906-0.52734-3.6562-1.4414-5.168-0.43359-0.71484-0.35156-1.6289 0.14844-2.2969l4.3203-5.7891 4.3086 5.7891c0.5 0.67188 0.57812 1.5859 0.14844 2.2969-1.1992 1.9883-1.7383 4.418-1.2812 6.9844 0.76172 4.2617 4.2969 7.5977 8.5977 8.1406 6.5234 0.82031 12.027-4.6445 11.277-11.141-0.50781-4.4102-3.9844-8.0234-8.375-8.7266zm-27.758 14.082c-2.2969 0-4.1719-1.8711-4.1719-4.1641 0-2.2969 1.8711-4.1758 4.1719-4.1758 2.2969 0 4.1758 1.8711 4.1758 4.1758 0 2.3047-1.8711 4.1641-4.1758 4.1641zm13.074-22.266c-1.1055 0-2-0.89453-2-1.9922 0-1.0977 0.89453-1.9961 2-1.9961s1.9961 0.89844 1.9961 1.9961c0 1.1016-0.89453 1.9922-1.9961 1.9922zm13.078 22.266c-2.3086 0-4.1797-1.8711-4.1797-4.1641 0-2.2969 1.8711-4.1758 4.1797-4.1758s4.1719 1.8711 4.1719 4.1758c0 2.3047-1.8711 4.1641-4.1719 4.1641z"/> <path d="m63.574 64.613c-1.4102 1.6172-2.1836 3.7461-2.0703 5.9648l1.0156 20.965c0.14844 3.0273 2.6367 5.3828 5.6641 5.3828h15.395c3.0117 0 5.4961-2.3516 5.6445-5.3828l1.0352-20.965c0.11328-2.2188-0.66016-4.3477-2.0703-5.9648h-24.617zm18.551 20.988h-12.484c-1.1445 0-2.0703-0.92578-2.0703-2.0703s0.92578-2.0703 2.0703-2.0703h12.484c1.1445 0 2.0703 0.92578 2.0703 2.0703s-0.92578 2.0703-2.0703 2.0703zm0-7.9609h-12.484c-1.1445 0-2.0703-0.92578-2.0703-2.0703 0-1.1445 0.92578-2.0703 2.0703-2.0703h12.484c1.1445 0 2.0703 0.92578 2.0703 2.0703 0 1.1445-0.92578 2.0703-2.0703 2.0703z"/></svg>
</svg>