<svg xmlns="http://www.w3.org/2000/svg" viewBox="0 0 24 24" width="24" height="24" fill="#ffffff">
<svg width="100pt" height="100pt" version="1.1" viewBox="0 0 100 100" xmlns="http://www.w3.org/2000/svg"> <path d="m73.648 32.801h3.2695c0.33594 0 0.64453-0.13672 0.86328-0.35547s0.35547-0.52734 0.35547-0.86328v-0.25781c0-0.40625-0.16797-0.77734-0.43359-1.043s-0.63672-0.43359-1.043-0.43359h-39.613c-0.55078 0-1-0.44922-1-1 0-0.55078 0.44922-1 1-1h35.617l-0.62109-0.98438c-0.47656-0.75781-1.0664-1.3438-1.7266-1.7305-0.64453-0.37891-1.3789-0.57812-2.1758-0.57812h-36.277c-0.77734 0-1.5 0.1875-2.1523 0.5625-0.68359 0.39844-1.2734 0.98437-1.75 1.7422l-1.5469 2.4492c-0.16797 0.32031-0.50391 0.53906-0.88672 0.53906h-2.1875c-0.40625 0-0.77734 0.16797-1.043 0.43359s-0.43359 0.63672-0.43359 1.043v0.25781c0 0.33594 0.13672 0.64453 0.35547 0.86328s0.52734 0.35547 0.86328 0.35547h50.57zm-10.5 52.852c0.039062-0.55078 0.51953-0.96094 1.0703-0.92188 0.55078 0.039062 0.96094 0.51953 0.92188 1.0703l-0.27344 3.5586c-0.082032 1.0859-0.57813 2.0508-1.3242 2.7422-0.74609 0.69531-1.7461 1.1172-2.8398 1.1172h-3.207c-0.55078 0-1-0.44922-1-1s0.44922-1 1-1h3.207c0.57422 0 1.0938-0.21875 1.4805-0.57422 0.39062-0.35547 0.64844-0.86328 0.69141-1.4336zm-11.938-63.098v-10.629c0-0.84375 0.25781-1.6328 0.71875-2.2852 0.45703-0.64844 1.1172-1.1602 1.918-1.4414l6.7109-2.3867c0.10938-0.039062 0.19922-0.11719 0.26172-0.23047 0.0625-0.12891 0.070313-0.26172 0.027344-0.38672l-0.48828-1.3711c-0.042969-0.12109-0.13672-0.21875-0.24609-0.26953-0.11328-0.054688-0.25-0.066407-0.375-0.019532l-8.668 3.0859c-0.69922 0.24609-1.2695 0.6875-1.6641 1.2422-0.39062 0.55469-0.61328 1.2422-0.61328 1.9883v12.707h2.4219zm-10.473 28.305c1.0117 0 1.9336 0.41406 2.6016 1.0781 0.67188 0.67578 1.0859 1.5938 1.0859 2.6055s-0.41406 1.9336-1.0781 2.6016c-0.67578 0.67188-1.5938 1.0859-2.6055 1.0859-1.0156 0-1.9375-0.41406-2.6016-1.082-0.66797-0.66406-1.082-1.5859-1.082-2.6016 0-1.0195 0.41406-1.9375 1.1133-2.6367 0.69531-0.66016 1.5898-1.0469 2.5703-1.0469zm1.1953 2.4922c-0.30078-0.30469-0.72656-0.49219-1.1953-0.49219-0.44531 0-0.84766 0.17188-1.168 0.46875-0.32422 0.32812-0.51562 0.75-0.51562 1.2148 0 0.46484 0.1875 0.88672 0.49219 1.1914 0.30078 0.30469 0.72266 0.49219 1.1914 0.49219s0.89062-0.1875 1.1914-0.48828c0.30469-0.30469 0.49219-0.72656 0.49219-1.1953s-0.1875-0.89062-0.49219-1.1914zm8.4609-13.562c1.1836 0 2.2539 0.48047 3.0312 1.2539 0.77344 0.77344 1.2539 1.8477 1.2539 3.0273 0 1.1797-0.48047 2.2539-1.2539 3.0273-0.77344 0.77344-1.8477 1.2539-3.0312 1.2539-1.1797 0-2.2539-0.48047-3.0273-1.2539-0.77344-0.77344-1.2539-1.8477-1.2539-3.0273 0-1.1797 0.48047-2.2539 1.2539-3.0273 0.77344-0.77344 1.8477-1.2539 3.0273-1.2539zm1.6133 2.668c-0.41406-0.41406-0.98437-0.66797-1.6133-0.66797-0.62891 0-1.2031 0.25781-1.6133 0.66797-0.41406 0.41406-0.66797 0.98438-0.66797 1.6133 0 0.62891 0.25781 1.2031 0.66797 1.6133 0.41406 0.41406 0.98438 0.66797 1.6133 0.66797 0.62891 0 1.2031-0.25781 1.6133-0.66797 0.41406-0.41406 0.66797-0.98438 0.66797-1.6133 0-0.62891-0.25781-1.2031-0.66797-1.6133zm-14.422-4.5859c1.4961 0 2.8555 0.60938 3.832 1.5898 0.98047 0.98047 1.5859 2.3359 1.5859 3.832 0 1.4961-0.60547 2.8555-1.6211 3.8633-1.0078 0.97266-2.3398 1.5586-3.8008 1.5586-1.4922 0-2.8516-0.60938-3.832-1.5859-0.98438-0.98047-1.5938-2.3359-1.5938-3.832 0-1.4922 0.60938-2.8516 1.5859-3.832 0.98437-0.98438 2.3398-1.5938 3.8359-1.5938zm2.418 3.0039c-0.61719-0.61719-1.4766-1.0039-2.418-1.0039-0.94531 0-1.8047 0.38281-2.4219 1-0.61719 0.61719-1 1.4766-1 2.4219 0 0.94531 0.38281 1.8008 1 2.418 0.61719 0.61719 1.4727 1 2.4219 1 0.92187 0 1.7578-0.36328 2.3945-0.97656 0.64062-0.64453 1.0234-1.5 1.0234-2.4453 0-0.94531-0.38281-1.8008-1-2.418zm30.445 21.629-39.16 22.609 0.57031 7.4258c0.085937 1.125 0.59375 2.1172 1.3555 2.8242 0.76562 0.70703 1.793 1.1367 2.9219 1.1367h27.734c1.1289 0 2.1562-0.42969 2.9219-1.1367 0.76172-0.70703 1.2695-1.6992 1.3555-2.8242l2.3047-30.035zm-39.328 20.406 39.516-22.812 0.79688-10.395-41.043 23.695 0.73047 9.5156zm-0.89844-11.715 41.395-23.898 0.95703-12.496h-45.141z"/></svg>
</svg>