<svg xmlns="http://www.w3.org/2000/svg" viewBox="0 0 24 24" width="24" height="24" fill="#ffffff">
<svg width="100pt" height="100pt" version="1.1" viewBox="0 0 100 100" xmlns="http://www.w3.org/2000/svg"> <path d="m60.863 32.211h-21.723v12.035h21.723zm-54.246 22.961c-1.0586 2.5781-4.9805 0.96875-3.9219-1.6094l13.281-32.066c0.22266-0.54297 0.64844-0.94531 1.1562-1.1562l32.066-13.281c0.53906-0.22266 1.1133-0.20312 1.6094 0l32.066 13.281c0.54688 0.22266 0.94531 0.64844 1.1562 1.1562l13.281 32.066c1.0586 2.5781-2.8633 4.1914-3.9219 1.6094l-12.941-31.25-30.441-12.609-30.441 12.609-12.941 31.25zm66 12.801-19.141 11.84 19.141 11.836zm-22.617 13.988-18.008 11.137h36.016zm-22.617 9.6875 19.141-11.836-19.141-11.84zm22.617-13.988 18.008-11.137h-36.016zm-24.453-14.809h48.902c1.0117 0 1.8359 0.82422 1.8359 1.8359v28.41h12.516v-38.457l-11.465-27.68-27.336-11.324-27.336 11.324-11.465 27.68v38.457h12.516v-28.41c0-1.0117 0.82031-1.8359 1.8359-1.8359zm11.754-34.316h25.395c1.0117 0 1.8359 0.82422 1.8359 1.8359v15.703c0 1.0117-0.82422 1.8359-1.8359 1.8359h-25.395c-1.0117 0-1.8359-0.82031-1.8359-1.8359v-15.703c0-1.0117 0.82422-1.8359 1.8359-1.8359z"/></svg>
</svg>