<svg xmlns="http://www.w3.org/2000/svg" viewBox="0 0 24 24" width="24" height="24" fill="#ffffff">
<svg width="100pt" height="100pt" version="1.1" viewBox="0 0 100 100" xmlns="http://www.w3.org/2000/svg"> <path d="m81.562 25c4.2188 1.5625 6.5625 5.7812 5.7812 10.156-1.0938 6.0938-8.4375 12.656-25.625 13.281-0.625-2.9688-2.5-5.4688-5-7.0312 9.375-15.312 18.906-18.438 24.844-16.406zm-26.094 32.344-1.875 1.0938c-0.9375 0.3125-2.0312 0.625-2.9688 0.625-4.5312 0-8.125-3.5938-8.125-8.125s3.5938-8.125 8.125-8.125 8.125 3.5938 8.125 8.125c0 2.6562-1.25 5-3.2812 6.4062zm-11.406-47.188c3.4375-2.8125 8.2812-2.8125 11.719 0 4.8438 4.0625 6.7188 14.062-1.875 29.844-0.9375-0.3125-2.0312-0.46875-3.125-0.46875-1.5625 0-3.125 0.3125-4.5312 0.9375-9.0625-16.094-7.1875-26.25-2.1875-30.312zm-31.719 25c-0.78125-4.375 1.7188-8.5938 5.7812-10.156 6.0938-2.1875 15.781 1.25 25.156 17.031-1.875 1.5625-3.2812 3.75-3.9062 6.25-18.125-0.15625-25.938-6.875-27.031-13.125zm5.7812 40c-4.2188-1.5625-6.5625-5.7812-5.7812-10.156 1.0938-6.25 8.75-12.969 27.031-13.281 0.15625 2.8125 1.4062 5.4688 3.4375 7.3438-9.375 15-18.75 18.281-24.688 16.094zm37.5 14.844c-3.4375 2.8125-8.2812 2.8125-11.719 0-4.8438-4.0625-6.7188-13.594 1.4062-28.906 1.5625 0.78125 3.2812 1.25 5.1562 1.25 1.4062 0 2.6562-0.3125 3.9062-0.625 7.9688 14.844 5.9375 24.375 1.25 28.281zm25.938-14.844c-5.7812 2.0312-15-0.9375-24.062-15.156 2.5-1.875 4.2188-4.8438 4.5312-8.2812 17.031 0.625 24.219 7.1875 25.312 13.281 0.78125 4.375-1.7188 8.5938-5.7812 10.156z"/></svg>
</svg>