<svg xmlns="http://www.w3.org/2000/svg" viewBox="0 0 24 24" width="24" height="24" fill="#ffffff">
<svg width="100pt" height="100pt" version="1.1" viewBox="0 0 100 100" xmlns="http://www.w3.org/2000/svg"> <path d="m70.832 55.785v-11.492c6.0352-1.8047 10.418-8.6953 10.418-17.207 0-9.9297-5.9492-17.707-13.543-17.707-7.5898 0-13.543 7.7773-13.543 17.707 0 8.5117 4.3828 15.402 10.418 17.207v11.492c-3.6289 1.2969-6.25 4.7344-6.25 8.8008v16.668c0 5.168 4.2031 9.375 9.375 9.375s9.375-4.207 9.375-9.375v-16.668c0-4.0664-2.6211-7.5039-6.25-8.8008z"/> <path d="m46.875 9.375c-1.7266 0-3.125 1.3984-3.125 3.125v16.668c0 0.57422-0.46484 1.043-1.043 1.043h-5.207v-17.711c0-1.7266-1.3984-3.125-3.125-3.125s-3.125 1.3984-3.125 3.125v17.707h-5.207c-0.57422 0-1.043-0.46484-1.043-1.043v-16.664c0-1.7266-1.3984-3.125-3.125-3.125s-3.125 1.3984-3.125 3.125v16.668c0 4.0195 3.2695 7.293 7.293 7.293h5.207v19.324c-3.6289 1.2969-6.25 4.7344-6.25 8.8008v16.668c0 5.168 4.2031 9.375 9.375 9.375s9.375-4.207 9.375-9.375v-16.668c0-4.0664-2.6211-7.5039-6.25-8.8008v-19.324h5.207c4.0195 0 7.293-3.2695 7.293-7.293v-16.668c0-1.7266-1.3984-3.125-3.125-3.125z"/></svg>
</svg>