<svg xmlns="http://www.w3.org/2000/svg" viewBox="0 0 24 24" width="24" height="24" fill="#ffffff">
<svg width="100pt" height="100pt" version="1.1" viewBox="0 0 100 100" xmlns="http://www.w3.org/2000/svg"> <path d="m76.199 68.332h-52.078c-0.53906 0-1.0312 0.22266-1.3867 0.57812-0.35547 0.35547-0.57812 0.84766-0.57812 1.3867v2.7383c0 0.53906 0.22266 1.0312 0.57812 1.3867s0.84766 0.57812 1.3867 0.57812h52.078c0.53906 0 1.0312-0.22266 1.3867-0.57812 0.35547-0.35547 0.57812-0.84766 0.57812-1.3867v-2.7383c0-0.53906-0.22266-1.0312-0.57812-1.3867-0.35547-0.35547-0.84766-0.57812-1.3867-0.57812zm-0.94922-6.7891v-9.1055c0-1.1797-0.48438-2.25-1.2617-3.0273-0.77734-0.77734-1.8477-1.2617-3.0273-1.2617h-16.023c-1.1797 0-2.25 0.48437-3.0273 1.2617s-1.2617 1.8477-1.2617 3.0273v14.91h24.602zm-54.895 22.094v6.0898h2.3672l2.7344-6.0938h-1.332c-0.69141 0.074219-2.4336 0.035157-3.5039 0.011719l-0.26953-0.003906zm55.844-0.99219h-56.332c-1.1484 0-2.1914-0.57422-2.9531-1.4961-0.78516-0.94922-1.2695-2.2656-1.2695-3.7188v-15.883c0-1.4531 0.48438-2.7695 1.2695-3.7227 0.76172-0.92188 1.8047-1.4961 2.9453-1.4961s2.1836 0.57422 2.9453 1.4961c0.78516 0.94922 1.2695 2.2656 1.2695 3.7227v5.8047c-0.79688 0.011719-1.5156 0.33984-2.043 0.86328-0.53516 0.53516-0.86719 1.2695-0.86719 2.082v2.7383c0 0.8125 0.33203 1.5469 0.86719 2.082 0.53516 0.53516 1.2695 0.86719 2.082 0.86719h52.078c0.8125 0 1.5469-0.33203 2.082-0.86719 0.53516-0.53516 0.86719-1.2695 0.86719-2.082v-2.7383c0-0.8125-0.33203-1.5469-0.86719-2.082-0.52734-0.52734-1.2461-0.85547-2.043-0.86328v-5.8047c0-1.4531 0.48438-2.7695 1.2695-3.7227 0.76172-0.92188 1.8047-1.4961 2.9453-1.4961 1.1406 0 2.1836 0.57422 2.9453 1.4961 0.78516 0.94922 1.2695 2.2656 1.2695 3.7227v15.883c0 1.4531-0.48438 2.7695-1.2695 3.7188-0.76172 0.92187-1.8047 1.4961-2.9492 1.4961h-4.25zm-1.3438 0.98438 2.7344 6.0938h2.3672v-6.0898l-0.26953 0.003907c-1.0703 0.023437-2.8125 0.0625-3.5039-0.011719h-1.332zm-59.523-50.902h21.863l-3.5352-17.289c-0.23828-1.1719-0.50781-1.7969-0.87109-2.1094-0.32812-0.28125-0.8125-0.32812-1.4805-0.32812h-10.398c-0.66406 0-1.1641 0.074219-1.5039 0.375-0.37109 0.32812-0.64062 0.94922-0.84375 2.0508l-3.2266 17.297zm11.961 14.859v-13.875h-2.0508v15.434c0.12109-0.14844 0.25-0.29297 0.38672-0.42969 0.47656-0.47656 1.0391-0.85938 1.6641-1.1289zm-9.1992-20.828c0.0625-0.35547 0.39844-0.59766 0.75781-0.53516 0.35547 0.0625 0.59766 0.39844 0.53516 0.75781l-0.078125 0.45703c-0.0625 0.35547-0.39844 0.59766-0.75781 0.53516-0.35547-0.0625-0.59766-0.39844-0.53516-0.75781zm1.25-7.293c0.0625-0.35547 0.39844-0.59766 0.75781-0.53516 0.35547 0.0625 0.59766 0.39844 0.53516 0.75781l-0.90234 5.25c-0.0625 0.35547-0.39844 0.59766-0.75781 0.53516-0.35547-0.0625-0.59766-0.39844-0.53516-0.75781zm52.785-9.1875h-30.414v21.16h30.414zm-27.633 2.1172h24.844c0.27344 0 0.49219 0.21875 0.49219 0.49219v15.938c0 0.27344-0.21875 0.49219-0.49219 0.49219h-24.844c-0.27344 0-0.49219-0.21875-0.49219-0.49219v-15.938c0-0.27344 0.21875-0.49219 0.49219-0.49219zm24.355 8.4219v7.5156h-23.859v-7.1016c6.1211-1.6953 8.543-0.86328 10.973-0.035157 2.7383 0.9375 5.4844 1.8789 12.887-0.38281zm-9.0625-4.9453c0.375-0.375 0.89063-0.60547 1.4609-0.60547s1.0898 0.23047 1.4609 0.60547c0.375 0.375 0.60547 0.89062 0.60547 1.4609 0 0.57031-0.23047 1.0898-0.60547 1.4609-0.375 0.375-0.89063 0.60547-1.4609 0.60547s-1.0898-0.23047-1.4609-0.60547c-0.375-0.375-0.60547-0.89062-0.60547-1.4609 0-0.57031 0.23047-1.0898 0.60547-1.4609zm-34.723 51.477h24.602v-14.91c0-1.1797-0.48438-2.25-1.2617-3.0273s-1.8477-1.2617-3.0273-1.2617h-16.023c-1.1797 0-2.25 0.48437-3.0273 1.2617s-1.2617 1.8477-1.2617 3.0273z" fill-rule="evenodd"/></svg>
</svg>