<svg xmlns="http://www.w3.org/2000/svg" viewBox="0 0 24 24" width="24" height="24" fill="#ffffff">
<svg width="100pt" height="100pt" version="1.1" viewBox="0 0 100 100" xmlns="http://www.w3.org/2000/svg"> <path d="m26.758 56.535c-0.5 6.3672-0.45312 12.746 0.070313 16.734-0.26172 0.51953-0.48438 1.0586-0.66406 1.6211-0.40234-0.75781-0.87109-1.4883-1.418-2.1758-0.58203-3.9922-0.63672-10.746-0.085938-17.434 0.44922-5.4414 1.2969-10.832 2.5859-14.633 0.57812 0.69922 1.2461 1.1445 1.9609 1.2695-1.1523 3.6836-1.9258 8.6289-2.3633 13.648-0.015625 0.035156-0.027344 0.070313-0.042969 0.10547 0.007813 0.003906 0.023438 0.007813 0.03125 0.011719-0.023437 0.28125-0.050781 0.56641-0.074219 0.84766zm45.938-28.605c0.625-0.019532 1.1836-0.29297 1.5859-0.71484 0.39844-0.42578 0.63672-1 0.61719-1.625-0.019532-0.625-0.29297-1.1875-0.71484-1.5859-0.42578-0.39844-1-0.63672-1.625-0.61719s-1.1875 0.29297-1.5859 0.71484c-0.39844 0.42578-0.63672 1-0.61719 1.625s0.29297 1.1836 0.71484 1.5859c0.42578 0.39844 1 0.63672 1.625 0.61719zm-31.613 42.969c0.54688-0.58594 1.1367-1.1758 1.7695-1.7773-0.77344 0.21875-1.4961 0.47266-2.1641 0.75-0.92578 0.38281-1.7578 0.81641-2.5078 1.2891 0.33594 0.67188 0.68359 1.3047 1.0391 1.9102 0.55469-0.70703 1.1719-1.4297 1.8633-2.1719zm15.297 9.4922c-1.0312 1.625-1.6328 3.4805-1.9688 5.3164 0.71094-1.9141 1.6523-3.4023 2.6914-4.5547 2.4961-2.7695 5.5547-3.582 7.293-3.6875-0.070312-0.66406-0.16016-1.3242-0.27344-1.9805-3.832 0.65625-6.2422 2.543-7.7383 4.9023zm-41.883-32.066c1.9922 1.3242 4.1953 2.1953 6.0938 2.6719 1.8711 0.46875 3.4219 0.55078 4.168 0.30859 0.0625-0.019532 0.11328-0.039063 0.15625-0.0625-1.2656-3.2227-2.6094-6.1484-4.9062-7.9375-2.2812-1.7773-5.5547-2.4648-10.719-1.25 0.98828 2.7188 2.9648 4.7812 5.2031 6.2695zm76.523 29.914c-1.6562 0.26172-4.0547 1.1367-6.0742 3.3789-1.4844 1.6445-2.7539 4.0391-3.3945 7.4492h-0.86328c0.039062-2.7852 0.28906-5.6836 1.4922-8.0781 1.1289-2.25 3.0781-4.0273 6.4336-4.8125-2.8047-0.26172-5.332 0.054688-7.3633 1.1289-1.9336 1.0234-3.4219 2.7461-4.2734 5.3242-0.59375 1.9141-0.92969 4.0781-1.0078 6.4375h-0.69531c0.058593-1.8516 0.27344-3.5898 0.64844-5.1836l0.003906-0.011718c0.11719-0.53125 0.25391-1.0312 0.41406-1.5078 0.55078-1.75 1.3008-3.3125 2.2305-4.6641 1.8672-2.7148 4.457-4.5938 7.6328-5.4883-0.71484-0.10156-1.3945-0.15234-2.043-0.15234-3.3867 0-5.832 1.3516-7.5859 3.3633-1.7734 2.0312-2.8594 4.7461-3.4961 7.4336-0.53125 2.2344-0.74609 4.4258-0.80469 6.2188h-0.75c-0.20313-6.9648-0.078126-10.801 1.0195-13.598 1.0508-2.6719 2.9492-4.3555 6.2461-6.8516-11.789 2.4375-11.562 14.805-11.297 20.449h-0.69141c-0.15234-3.2539-0.28516-8.6523 1.7578-13.238-0.21094-0.90234-0.55469-1.7578-0.98438-2.5586-0.003907-0.007813-0.011719-0.019532-0.015625-0.027344-1.4766-2.7305-3.9531-4.7891-5.5-5.8594l-0.14844-0.10156c0.51172 0.85938 0.95703 1.7461 1.3359 2.6523 0.52734 1.2578 0.93359 2.5586 1.2383 3.8828 0.28906 0.046875 0.57812 0.10156 0.87109 0.16406 0.65234 0.14453 1.3125 0.33203 1.9766 0.57422 0.14844 0.039062 0.25391 0.17578 0.25391 0.33203 0 0.19141-0.15625 0.34766-0.34766 0.34766-0.86719 0-1.6797 0.050781-2.4375 0.14844 0.13672 0.78906 0.23828 1.582 0.31641 2.375v0.019531c0.16016 1.668 0.19531 3.3438 0.15234 4.9961-0.058593 2.1719-0.26172 4.2891-0.50781 6.2969h-0.69531c0.25-2.0117 0.45312-4.1367 0.51172-6.3125 0.039063-1.418 0.015625-2.8516-0.09375-4.2852-3.9102 3.2148-4.6484 6.418-5.2773 9.1406-0.11719 0.50391-0.23438 0.98438-0.36328 1.457h-0.71875c0.14453-0.51562 0.27734-1.0469 0.41016-1.6094 0.63281-2.7422 1.375-5.9609 5.1523-9.2188-1.6562 0.26172-4.0547 1.1367-6.0742 3.3789-1.4844 1.6445-2.7539 4.0391-3.3945 7.4492h-0.84766c0.10156-2.8945 0.66016-6.2695 2.4219-9.0469 1.7422-2.7461 4.6328-4.8906 9.3555-5.375-3.0586-0.66016-5.9922-0.26172-8.4062 0.99219-2.4258 1.2539-4.3359 3.3711-5.3398 6.1406-0.17578 0.48438-0.32422 0.99219-0.44141 1.5234 0.019531 0.23828 0.042968 0.47656 0.066406 0.71484 0.15234 1.668 0.29688 3.3672 0.23438 5.0547h-0.69141c0.0625-1.6523-0.082031-3.3398-0.23047-4.9922-0.023438-0.25-0.046875-0.49609-0.066406-0.74609-0.003907-0.015625-0.003907-0.035156-0.003907-0.050781-0.48047-5.4258-0.55859-10.367 7.2539-12.727-1.8867-0.17969-3.6445 0.23047-5.1562 0.9375-2.5938 1.2148-4.4648 3.2812-5.0469 4.7578-0.53516 4.6211-0.30469 9.3359-0.14062 12.633 0.003906 0.066407 0.007812 0.125 0.007812 0.1875h-0.69141c-0.003906-0.054687-0.003906-0.10156-0.007813-0.15625-0.16406-3.332-0.39844-8.0898 0.14844-12.773 0-0.011719 0.003906-0.023438 0.003906-0.03125 0.45312-3.8594 1.4414-7.6719 3.4336-10.594-2.2305 1.2617-3.9062 3.1367-5.0898 5.2227-1.7109 3.0117-2.3906 6.4531-2.2422 9.0898 1.2266 3.5859 0.83203 5.9023 0.48828 7.9102-0.078125 0.45703-0.14453 0.89453-0.19531 1.332h-0.69531c0.054687-0.47266 0.12109-0.94922 0.20703-1.4453 0.31641-1.8633 0.67969-4.0078-0.35156-7.2461-0.070312-0.058594-0.12109-0.14453-0.12891-0.24219-0.003906-0.058594-0.007812-0.12109-0.011718-0.17969-0.13672-0.39453-0.29297-0.80859-0.47656-1.2383-0.57812-1.3789-1.332-2.6133-2.1172-3.8984-1.2344-2.0273-2.543-4.1758-3.4141-7.2383-0.25391 0.99609-0.46484 2.6758 0.039063 4.875 0.011718 0.03125 0.019531 0.0625 0.023437 0.09375 0.27734 1.1758 0.75781 2.5 1.5469 3.9453 2.4609 4.5117 1.8633 9.7617 1.5859 12.211-0.015626 0.13672-0.027344 0.24219-0.039063 0.35938h-0.69531c0.015626-0.13672 0.027344-0.26953 0.046876-0.43359 0.26172-2.293 0.80469-7.1016-1.25-11.309-1.0312 2.0703-1.5859 4.1875-1.8906 6.2539-0.27734 1.8984-0.33594 3.75-0.34766 5.4883h-0.69141c0.011719-1.7578 0.070312-3.6406 0.35547-5.5859 0.33203-2.2773 0.96875-4.6211 2.1836-6.9062-0.62891-1.1914-1.0586-2.3086-1.3398-3.332-2.4805 2.5-3.6055 5.4609-4.457 7.6992-0.18359 0.48438-0.35547 0.93359-0.53125 1.3516 0.039062 2.3359 0.25391 4.6211 0.52344 6.7734h-0.69531c-0.42578-3.457-0.71094-7.2656-0.37891-11.043 0.32812-3.7305 1.2578-7.4336 3.2305-10.742l-0.14844 0.10156c-2 1.3867-5.5664 4.4336-6.5 8.4453 2.043 4.5859 1.9102 9.9844 1.7578 13.238h-0.69141c0.26562-5.6445 0.49219-18.012-11.297-20.449 3.2969 2.4961 5.1953 4.1797 6.2461 6.8516 1.0977 2.7969 1.2227 6.6328 1.0195 13.598h-0.75c-0.058594-1.793-0.27344-3.9844-0.80469-6.2188-0.64062-2.6875-1.7227-5.4023-3.4961-7.4336-1.7578-2.0117-4.2031-3.3633-7.5859-3.3633-0.64453 0-1.3242 0.050781-2.043 0.15234 3.1719 0.89453 5.7656 2.7773 7.6328 5.4883 1.9961 2.9023 3.1445 6.7617 3.2969 11.371h-4.5898c-0.37109 0-0.66797 0.30078-0.66797 0.66797 0 0.37109 0.30078 0.66797 0.66797 0.66797h72.902c0.37109 0 0.66797-0.30078 0.66797-0.66797 0-0.37109-0.30078-0.66797-0.66797-0.66797h-2.7578c0.14453-0.51562 0.27734-1.0469 0.41016-1.6094 0.63281-2.7422 1.375-5.9609 5.1523-9.2188zm-33.062-29.688c2 1.3281 4.207 2.2031 6.1094 2.6758 1.875 0.46875 3.4297 0.55469 4.1797 0.30859 0.0625-0.019531 0.11328-0.039062 0.15625-0.0625-1.2695-3.2305-2.6172-6.1641-4.918-7.957-2.2891-1.7812-5.5664-2.4688-10.746-1.2539 0.99219 2.7266 2.9727 4.7969 5.2188 6.2891zm-28.727-20.883c0.625-0.019531 1.1836-0.29297 1.5859-0.71484 0.39844-0.42578 0.63672-1 0.61719-1.625-0.019532-0.625-0.29297-1.1875-0.71484-1.5859-0.42578-0.39844-1-0.63672-1.625-0.61719s-1.1875 0.29297-1.5859 0.71484c-0.39844 0.42578-0.63672 1-0.61719 1.625s0.29297 1.1836 0.71484 1.5859c0.42578 0.39844 1 0.63672 1.625 0.61719zm41.047 28.242c-0.015625-0.007812-0.035156-0.011718-0.046875-0.019531 0.019531-0.050781 0.042969-0.10156 0.0625-0.15625 0.4375-5.0078 1.2109-9.9336 2.3594-13.609-0.71484-0.125-1.3789-0.57422-1.9609-1.2695-1.2891 3.8008-2.1367 9.1914-2.5859 14.633-0.55469 6.7227-0.49609 13.512 0.09375 17.496 0.32031 0.60156 0.59766 1.2383 0.8125 1.9023 0.34766-0.65625 0.74609-1.293 1.2031-1.8984-0.47266-4.0742-0.49219-10.344 0.015625-16.562 0.015625-0.17188 0.03125-0.34766 0.046875-0.51953zm-56.938-29.984c-0.027344-0.84375 0.59766-1.6562 1.6523-2.3203 1.1367-0.71484 2.7539-1.2461 4.6133-1.4648 0.19141-0.023437 0.32422-0.19141 0.30469-0.38281-0.007812-0.082031-0.046875-0.15625-0.10156-0.20703-1.2422-1.3867-2.0977-2.8516-2.4766-4.1328-0.35156-1.1953-0.28125-2.2188 0.29688-2.832 0.57812-0.61719 1.5938-0.75 2.8086-0.47266 1.3047 0.29688 2.8203 1.0625 4.2852 2.2148 0.054688 0.050781 0.12891 0.082031 0.21094 0.085937 0.19141 0.007813 0.35156-0.13672 0.36328-0.32812 0.10156-1.8711 0.53125-3.5195 1.1719-4.6953 0.59766-1.0938 1.3672-1.7656 2.2109-1.793 0.84375-0.023437 1.6562 0.59766 2.3203 1.6523 0.71484 1.1367 1.2461 2.7539 1.4648 4.6133 0.023437 0.19141 0.19141 0.32422 0.38281 0.30469 0.082032-0.007813 0.15625-0.046875 0.21094-0.10156 1.3867-1.2422 2.8516-2.0977 4.1328-2.4766 1.1953-0.35156 2.2188-0.28125 2.832 0.29688 0.61328 0.57812 0.75 1.5938 0.47266 2.8086-0.29688 1.3047-1.0625 2.8203-2.2148 4.2852-0.050781 0.054687-0.082031 0.12891-0.085938 0.21094-0.007812 0.19141 0.13672 0.35156 0.32813 0.36328 1.8711 0.10156 3.5195 0.53125 4.6953 1.1719 1.0938 0.59766 1.7656 1.3672 1.793 2.2109 0.027343 0.84375-0.59766 1.6562-1.6523 2.3203-1.1367 0.71484-2.7539 1.2461-4.6133 1.4648-0.19141 0.023438-0.32422 0.19141-0.30469 0.38281 0.007813 0.082031 0.046875 0.15625 0.10156 0.20703 1.2422 1.3867 2.0977 2.8516 2.4766 4.1328 0.35156 1.1953 0.28125 2.2148-0.29688 2.832-0.57812 0.61328-1.5938 0.75-2.8086 0.47266-1.3047-0.29688-2.8203-1.0625-4.2852-2.2148-0.054687-0.050781-0.12891-0.082031-0.21094-0.085937-0.19141-0.007813-0.35156 0.13672-0.36328 0.32812-0.10156 1.8711-0.53125 3.5195-1.1719 4.6953-0.59375 1.0898-1.3594 1.7578-2.1992 1.793h-0.046875c-0.79688 0.007813-1.5625-0.55859-2.2031-1.5195-0.007813-0.011719-0.011719-0.019532-0.019532-0.03125-0.023437-0.035156-0.042968-0.066406-0.066406-0.10156-0.71484-1.1367-1.2461-2.7539-1.4648-4.6133-0.023437-0.19141-0.19141-0.32422-0.38281-0.30469-0.082031 0.007813-0.15625 0.046876-0.21094 0.10156-1.3867 1.2422-2.8516 2.0977-4.1328 2.4766-1.1953 0.35156-2.2148 0.28125-2.832-0.29688-0.61328-0.57812-0.75-1.5938-0.47266-2.8086 0.29688-1.3047 1.0625-2.8203 2.2148-4.2852 0.050782-0.054687 0.082032-0.12891 0.085938-0.21094 0.007812-0.19141-0.13672-0.35156-0.32812-0.36328-1.8711-0.10156-3.5195-0.53125-4.6953-1.1719-1.0938-0.59766-1.7656-1.3672-1.793-2.2109zm13.41 2.1094c-0.17188-0.16406-0.44531-0.15625-0.60938 0.019532l-2.4023 2.5547c-0.16406 0.17188-0.15625 0.44531 0.019531 0.60938 0.17188 0.16406 0.44531 0.15625 0.60938-0.019531l2.4023-2.5547c0.16406-0.17188 0.15625-0.44531-0.019531-0.60938zm3.0938 5.0547-0.11719-3.6875c-0.007812-0.23828-0.20703-0.42578-0.44531-0.41797s-0.42578 0.20703-0.41797 0.44531l0.11719 3.6875c0.007812 0.23828 0.20703 0.42578 0.44531 0.41797 0.23828-0.007812 0.42578-0.20703 0.41797-0.44531zm4.4922-3.0273-2.1523-2.0234c-0.17188-0.16406-0.44531-0.15625-0.60938 0.019532-0.16406 0.17188-0.15625 0.44531 0.019531 0.60938l2.1523 2.0234c0.17188 0.16406 0.44531 0.15625 0.60938-0.019531 0.16406-0.17188 0.15625-0.44531-0.019531-0.60938zm2.0859-5.293-3.2734 0.10156c-0.23828 0.007812-0.42578 0.20703-0.41797 0.44531 0.007812 0.23828 0.20703 0.42578 0.44531 0.41797l3.2734-0.10156c0.23828-0.007812 0.42578-0.20703 0.41797-0.44531-0.007813-0.23828-0.20703-0.42578-0.44531-0.41797zm-4.7188-1.8438c0.17188 0.16406 0.44531 0.15625 0.60938-0.019531l2.5156-2.6797c0.16406-0.17187 0.15625-0.44531-0.019531-0.60937-0.17188-0.16406-0.44531-0.15625-0.60938 0.019531l-2.5156 2.6797c-0.16406 0.17188-0.15625 0.44531 0.019531 0.60938zm-3.1914-4.8477 0.10547 3.375c0.007812 0.23828 0.20703 0.42578 0.44531 0.41797 0.23828-0.007813 0.42578-0.20703 0.41797-0.44531l-0.10547-3.375c-0.007812-0.23828-0.20703-0.42578-0.44531-0.41797-0.23828 0.007813-0.42578 0.20703-0.41797 0.44531zm-1.6406 5.1719c-0.55078 0.58594-0.875 1.3789-0.84766 2.2461 0.027343 0.86719 0.40234 1.6406 0.98828 2.1875 0.58594 0.55078 1.3789 0.875 2.2461 0.84766 0.86719-0.027344 1.6406-0.40234 2.1875-0.98828 0.55078-0.58594 0.875-1.3789 0.84766-2.2461-0.027344-0.86719-0.40234-1.6367-0.98828-2.1875-0.58594-0.55078-1.3789-0.875-2.2461-0.84766-0.86719 0.027343-1.6367 0.40234-2.1875 0.98828zm-3.3516-2.9023 2.6367 2.4766c0.17188 0.16406 0.44531 0.15625 0.60938-0.019531 0.16406-0.17188 0.15625-0.44531-0.019531-0.60938l-2.6367-2.4766c-0.17188-0.16406-0.44531-0.15625-0.60938 0.019531-0.16406 0.17188-0.15625 0.44531 0.019531 0.60938zm-2.332 5.332c0.007812 0.23828 0.20703 0.42578 0.44531 0.41797l3.5664-0.11328c0.23828-0.007813 0.42578-0.20703 0.41797-0.44531-0.007813-0.23828-0.20703-0.42578-0.44531-0.41797l-3.5664 0.11328c-0.23828 0.007813-0.42578 0.20703-0.41797 0.44531zm5.7734 30.059c0.75781 0.24609 2.3359 0.16016 4.2344-0.3125 1.9297-0.48047 4.168-1.3672 6.1914-2.7148 2.2734-1.5117 4.2812-3.6094 5.2891-6.3711-5.25-1.2344-8.5703-0.53516-10.891 1.2695-2.3086 1.8008-3.668 4.7305-4.9453 7.9609-0.003906 0.039063-0.007813 0.078126-0.011719 0.11719 0.039063 0.015625 0.078125 0.035156 0.12891 0.050781zm29.828-29.605c-0.027343-0.84375 0.59766-1.6562 1.6523-2.3203 1.1367-0.71484 2.7539-1.2461 4.6133-1.4648 0.19141-0.023437 0.32422-0.19141 0.30469-0.38281-0.007813-0.082032-0.046875-0.15625-0.10156-0.20703-1.2422-1.3867-2.0977-2.8516-2.4766-4.1328-0.35156-1.1953-0.28125-2.2148 0.29688-2.832 0.57812-0.61328 1.5938-0.75 2.8086-0.47266 1.3047 0.29688 2.8203 1.0625 4.2852 2.2148 0.054687 0.050782 0.12891 0.082032 0.21094 0.085938 0.19141 0.007812 0.35156-0.13672 0.36328-0.32812 0.10156-1.8711 0.53125-3.5195 1.1719-4.6953 0.59766-1.0938 1.3672-1.7656 2.2109-1.793 0.84375-0.023438 1.6562 0.59766 2.3203 1.6523 0.71484 1.1367 1.2461 2.7539 1.4648 4.6133 0.023438 0.19141 0.19141 0.32422 0.38281 0.30469 0.082031-0.007812 0.15625-0.046875 0.21094-0.10156 1.3867-1.2422 2.8516-2.0977 4.1328-2.4766 1.1953-0.35156 2.2148-0.28125 2.832 0.29688 0.61328 0.57812 0.75 1.5938 0.47266 2.8086-0.29687 1.3047-1.0625 2.8203-2.2148 4.2852-0.050781 0.054688-0.082031 0.12891-0.085938 0.21094-0.007812 0.19141 0.13672 0.35156 0.32812 0.36328 1.8711 0.10156 3.5195 0.53125 4.6953 1.1719 1.0938 0.59766 1.7656 1.3672 1.793 2.2109 0.027343 0.84375-0.59766 1.6562-1.6523 2.3203-1.1367 0.71484-2.7539 1.2461-4.6133 1.4648-0.19141 0.023437-0.32422 0.19141-0.30469 0.38281 0.007813 0.082031 0.046875 0.15625 0.10156 0.21094 1.2422 1.3867 2.0977 2.8516 2.4766 4.1328 0.35156 1.1953 0.28125 2.2148-0.29688 2.832-0.57812 0.61328-1.5938 0.75-2.8086 0.47266-1.3047-0.29688-2.8203-1.0625-4.2852-2.2148-0.054687-0.050782-0.12891-0.082032-0.21094-0.085938-0.19141-0.007812-0.35156 0.13672-0.36328 0.32812-0.10156 1.8711-0.53125 3.5195-1.1719 4.6953-0.59375 1.0898-1.3594 1.7578-2.1992 1.793h-0.046874c-0.79688 0.007813-1.5625-0.55859-2.2031-1.5195-0.007812-0.011719-0.011718-0.023437-0.019531-0.03125-0.023437-0.03125-0.042969-0.066406-0.0625-0.10156-0.71484-1.1367-1.2461-2.7539-1.4648-4.6133-0.023438-0.19141-0.19141-0.32422-0.38281-0.30469-0.082031 0.007812-0.15625 0.046875-0.21094 0.10156-1.3867 1.2422-2.8516 2.0977-4.1328 2.4766-1.1953 0.35156-2.2148 0.28125-2.832-0.29688-0.61719-0.57812-0.75-1.5938-0.47266-2.8086 0.29687-1.3047 1.0625-2.8203 2.2148-4.2852 0.050781-0.054688 0.082031-0.12891 0.085938-0.21094 0.007812-0.19141-0.13672-0.35156-0.32812-0.36328-1.8711-0.10156-3.5195-0.53125-4.6953-1.1719-1.0938-0.59766-1.7656-1.3672-1.793-2.2109zm13.41 2.1094c-0.17188-0.16406-0.44531-0.15625-0.60938 0.019531l-2.4023 2.5586c-0.16406 0.17188-0.15625 0.44531 0.019531 0.60938 0.17188 0.16406 0.44531 0.15625 0.60938-0.019532l2.4023-2.5547c0.16406-0.17188 0.15625-0.44531-0.019531-0.60938zm3.0938 5.0547-0.11719-3.6875c-0.007812-0.23828-0.20703-0.42578-0.44531-0.41797-0.23828 0.007813-0.42578 0.20703-0.41797 0.44531l0.11719 3.6875c0.007812 0.23828 0.20703 0.42578 0.44531 0.41797 0.23828-0.007813 0.42578-0.20703 0.41797-0.44531zm4.4922-3.0273-2.1523-2.0234c-0.17187-0.16406-0.44531-0.15625-0.60937 0.019531-0.16406 0.17188-0.15625 0.44531 0.019531 0.60938l2.1523 2.0234c0.17188 0.16406 0.44531 0.15625 0.60938-0.019532 0.16406-0.17188 0.15625-0.44531-0.019532-0.60938zm2.0859-5.2891-3.2734 0.10156c-0.23828 0.007813-0.42578 0.20703-0.41797 0.44531 0.007812 0.23828 0.20703 0.42578 0.44531 0.41797l3.2734-0.10156c0.23828-0.007812 0.42578-0.20703 0.41797-0.44531-0.007812-0.23828-0.20703-0.42578-0.44531-0.41797zm-4.7188-1.8477c0.17188 0.16406 0.44531 0.15625 0.60938-0.019531l2.5156-2.6797c0.16406-0.17188 0.15625-0.44531-0.019532-0.60938-0.17187-0.16406-0.44531-0.15625-0.60937 0.019531l-2.5156 2.6797c-0.16406 0.17187-0.15625 0.44531 0.019532 0.60937zm-3.1914-4.8477 0.10547 3.375c0.007813 0.23828 0.20703 0.42578 0.44531 0.41797s0.42578-0.20703 0.41797-0.44531l-0.10547-3.375c-0.007813-0.23828-0.20703-0.42578-0.44531-0.41797-0.23828 0.007812-0.42578 0.20703-0.41797 0.44531zm-1.6211 5.2266c-0.55078 0.58594-0.875 1.3789-0.84766 2.2461 0.027343 0.86719 0.40234 1.6406 0.98828 2.1875 0.58594 0.55078 1.3789 0.875 2.2461 0.84766 0.86719-0.027344 1.6406-0.40234 2.1875-0.98828 0.55078-0.58594 0.875-1.3789 0.84766-2.2461-0.027344-0.86719-0.40234-1.6367-0.98828-2.1875-0.58594-0.55078-1.3789-0.875-2.2461-0.84766-0.86719 0.027343-1.6367 0.40234-2.1875 0.98828zm-3.3711-2.9531 2.6367 2.4766c0.17188 0.16406 0.44531 0.15625 0.60938-0.019531 0.16406-0.17188 0.15625-0.44531-0.019532-0.60938l-2.6367-2.4766c-0.17188-0.16406-0.44531-0.15625-0.60938 0.019531-0.16406 0.17188-0.15625 0.44531 0.019531 0.60938zm-2.332 5.3281c0.007812 0.23828 0.20703 0.42578 0.44531 0.41797l3.5664-0.11328c0.23828-0.007812 0.42578-0.20703 0.41797-0.44531-0.007812-0.23828-0.20703-0.42578-0.44531-0.41797l-3.5664 0.11328c-0.23828 0.007813-0.42578 0.20703-0.41797 0.44531zm5.7578 30.07c0.76172 0.24609 2.3398 0.16016 4.2383-0.31641 1.9336-0.48438 4.1719-1.3672 6.1992-2.7148 2.2773-1.5117 4.2891-3.6133 5.293-6.3789-5.2539-1.2344-8.582-0.53906-10.902 1.2734-2.3008 1.793-3.6562 4.7031-4.9297 7.918-0.003907 0.058594-0.011719 0.11719-0.015625 0.17188 0.035156 0.015625 0.070312 0.03125 0.11328 0.046875z"/></svg>
</svg>