<svg xmlns="http://www.w3.org/2000/svg" viewBox="0 0 24 24" width="24" height="24" fill="#ffffff">
<svg width="100pt" height="100pt" version="1.1" viewBox="0 0 100 100" xmlns="http://www.w3.org/2000/svg"> <path d="m40.422 48.73c0.60156 0 1.1445-0.36328 1.375-0.91797 0.23047-0.55859 0.10547-1.1992-0.32031-1.625-0.42578-0.42578-1.0664-0.55078-1.625-0.32031-0.55469 0.23047-0.91797 0.77344-0.91797 1.375 0 0.82031 0.66797 1.4883 1.4883 1.4883z"/> <path d="m44.414 66.367c4.0273 0.007812 7.8945-1.5859 10.75-4.4336 2.8516-2.8438 4.457-6.707 4.4609-10.734 0.003906-4.0312-1.5938-7.8945-4.4414-10.746s-6.707-4.457-10.738-4.457c-4.0273-0.003906-7.8945 1.5977-10.742 4.4453-2.8516 2.8477-4.4531 6.7109-4.4531 10.742 0.003906 4.0234 1.6016 7.8789 4.4414 10.727 2.8438 2.8477 6.6992 4.4492 10.723 4.457zm7.4492-11.133v0.003906c0 1.3906-0.83984 2.6484-2.125 3.1797-1.2891 0.53125-2.7695 0.23828-3.7539-0.74609s-1.2773-2.4648-0.74609-3.75c0.53516-1.2891 1.7891-2.125 3.1797-2.125 1.9023 0 3.4414 1.5391 3.4453 3.4414zm-3.2695-9.6172v0.003906c0.37891-0.37891 0.99609-0.37891 1.375 0.003906 0.38281 0.37891 0.38281 0.99609 0.003906 1.375l-9.7969 9.7969c-0.38281 0.38281-1 0.38281-1.3828 0-0.37891-0.37891-0.37891-1 0-1.3789zm-8.168-1.8203h-0.003906c1.3945 0 2.6484 0.83984 3.1797 2.125 0.53516 1.2891 0.23828 2.7695-0.74609 3.7539s-2.4648 1.2773-3.75 0.74609c-1.2852-0.53516-2.125-1.7891-2.125-3.1797 0-1.9023 1.543-3.4414 3.4414-3.4453z"/> <path d="m46.93 55.238c0 0.60156 0.36328 1.1445 0.92187 1.375 0.55469 0.23047 1.1953 0.10547 1.6211-0.32422 0.42578-0.42578 0.55469-1.0664 0.32422-1.6211-0.23047-0.55469-0.77344-0.91797-1.3789-0.91797-0.82031 0-1.4883 0.66406-1.4883 1.4883z"/> <path d="m40.133 87.363c-0.62109 0.62109-1.3477 1.1172-2.1523 1.4688l11.508 6.8477h0.003907c1.1523 0.68359 2.5273 0.88281 3.8281 0.55469 1.2969-0.32812 2.4102-1.1641 3.0977-2.3125l28.32-47.617c0.78125-1.3125 0.92578-2.9023 0.39844-4.332l-5.5234-15.75 1.707 16.277c0.22266 2.1016-0.51953 4.1953-2.0156 5.6875z"/> <path d="m86.918 60.926c-0.46484-0.27344-1.0625-0.11719-1.3359 0.34766l-17.883 30.375c-0.13672 0.22266-0.17578 0.48828-0.10938 0.74219 0.0625 0.25391 0.22656 0.46875 0.44922 0.60156 0.22656 0.13281 0.49219 0.17187 0.74609 0.10156 0.25391-0.066406 0.46875-0.23047 0.59766-0.45703l17.883-30.375c0.27344-0.46484 0.11719-1.0625-0.34766-1.3359z"/> <path d="m27.625 33.008 9.2148-9.2188c0.37891-0.38281 0.37891-0.99609-0.003906-1.3789-0.37891-0.37891-0.99609-0.37891-1.3789-0.003906l-9.2148 9.2188c-0.18359 0.18359-0.28516 0.42969-0.28516 0.69141 0 0.25781 0.10156 0.50781 0.28516 0.69141 0.38281 0.37891 1 0.37891 1.3828 0z"/> <path d="m41.047 19.582 1.4531-1.4531c0.38281-0.37891 0.38281-1 0-1.3789-0.38281-0.38281-1-0.38281-1.3828 0l-1.4531 1.4531 0.003907-0.003906c-0.38281 0.38281-0.38281 1 0 1.3828 0.37891 0.38281 1 0.38281 1.3789 0z"/> <path d="m35.176 87.465c1.3438 0.003906 2.6289-0.53125 3.5742-1.4805l39.172-39.18h0.003906c1.0781-1.0742 1.6133-2.582 1.4492-4.1016l-2.1875-20.891-8.9922 8.9258c-0.91797 0.91406-2.4023 0.91016-3.3125-0.011719-0.91016-0.91797-0.90625-2.4023 0.011719-3.3125l8.8906-8.8281-20.695-2.168c-0.17578-0.019531-0.35547-0.027344-0.53125-0.027344-1.3398-0.003906-2.625 0.53125-3.5664 1.4805l-39.176 39.176c-1.9688 1.9766-1.9688 5.1719 0 7.1484l21.789 21.789c0.94531 0.94922 2.2305 1.4844 3.5703 1.4805zm9.2383-53.422c4.5469-0.007813 8.9102 1.793 12.129 5.0078 3.2188 3.2109 5.0312 7.5703 5.0352 12.117s-1.8008 8.9102-5.0117 12.125c-3.2148 3.2188-7.5742 5.0273-12.121 5.0273-4.5469 0.003907-8.9102-1.8008-12.125-5.0156-3.2148-3.2148-5.0234-7.5742-5.0234-12.121 0.003906-4.543 1.8047-8.8984 5.0156-12.109 3.207-3.2148 7.5625-5.0234 12.102-5.0312z"/> <path d="m90.648 3.7734-24.789 24.609c-0.38281 0.37891-0.38672 1-0.007813 1.3828 0.38281 0.38281 1 0.38281 1.3828 0.003906l24.789-24.609c0.38281-0.37891 0.38281-0.99609 0.003906-1.3789s-0.99609-0.38672-1.3789-0.007812z"/></svg>
</svg>