<svg xmlns="http://www.w3.org/2000/svg" viewBox="0 0 24 24" width="24" height="24" fill="#ffffff">
<svg width="100pt" height="100pt" version="1.1" viewBox="0 0 100 100" xmlns="http://www.w3.org/2000/svg"> <path d="m59.926 18.844c-0.003906 1.8281-1.4844 3.3086-3.3125 3.3125h-36.695c-0.91016 0.050781-1.8008-0.27344-2.4609-0.89844-0.66406-0.62891-1.0391-1.5-1.0391-2.4102s0.375-1.7812 1.0391-2.4062c0.66016-0.625 1.5508-0.94922 2.4609-0.89844h2.1367-0.003907c0.44531 0 0.80469-0.35938 0.80469-0.80469v-0.39453c0.003906-2.2266 1.8125-4.0312 4.0391-4.0312h22.742c2.2266 0 4.0352 1.8047 4.0391 4.0312v0.39453c0.007813 0.44141 0.36328 0.79688 0.80469 0.80469h2.1367-0.003907c1.8281 0 3.3086 1.4766 3.3125 3.3008zm18.375-8.9492c-5.7305 0-10.418 6.1992-10.418 13.812 0 4.6875 1.7617 9.0117 4.6992 11.562 0.60938 0.55469 0.94922 1.3438 0.92969 2.168v47.656c-0.03125 2.5938 1.9453 4.7695 4.5312 4.9883h0.23828c1.2266 0.003907 2.4062-0.46875 3.293-1.3203 0.9375-0.90234 1.4727-2.1484 1.4766-3.4492v-47.918c-0.015625-0.82031 0.32422-1.6094 0.92969-2.1641 2.9492-2.5508 4.707-6.875 4.707-11.562 0.019531-7.5742-4.6445-13.773-10.387-13.773zm-21.383 41.293v11.582c-2.9531 0.37109-5.2734 2.6953-5.6367 5.6484h-26.043c-0.36328-2.9531-2.6836-5.2773-5.6328-5.6484v-11.582c2.9453-0.36328 5.2695-2.6875 5.6328-5.6367h26.043c0.36328 2.9492 2.6875 5.2734 5.6367 5.6367zm-26.117 5.1133c0-0.42969-0.34766-0.78125-0.78125-0.78125h-1.8945c-0.42969 0-0.78125 0.35156-0.78125 0.78125 0 0.43359 0.35156 0.78125 0.78125 0.78125h1.8633c0.21484 0.011719 0.42188-0.070312 0.57422-0.21484 0.15234-0.14844 0.23828-0.35156 0.23828-0.56641zm6.1133 0h0.003907c0-0.42969-0.35156-0.78125-0.78125-0.78125h-1.8555c-0.42969 0-0.78125 0.35156-0.78125 0.78125 0 0.43359 0.35156 0.78125 0.78125 0.78125h1.8555c0.42969 0 0.78125-0.34766 0.78125-0.78125zm6.125 0h0.003907c-0.007813-0.42969-0.35156-0.77344-0.78125-0.78125h-1.8672c-0.42969 0-0.78125 0.35156-0.78125 0.78125 0 0.43359 0.35156 0.78125 0.78125 0.78125h1.8672c0.42969-0.003906 0.77344-0.35156 0.78125-0.78125zm6.1133 0h0.003906c-0.003906-0.42969-0.35156-0.77344-0.78125-0.78125h-1.8633c-0.43359 0-0.78125 0.35156-0.78125 0.78125 0 0.43359 0.34766 0.78125 0.78125 0.78125h1.8633c0.42969-0.003906 0.77734-0.35156 0.78125-0.78125zm16.094-16.355 0.003906 32.973c-0.011719 4.5586-1.8281 8.9258-5.0547 12.148-3.2227 3.2188-7.5938 5.0312-12.152 5.0391h-19.555c-4.5547-0.007813-8.9258-1.8203-12.148-5.0391-3.2266-3.2227-5.0391-7.5938-5.0469-12.148v-32.969c0.007812-5.207 2.4766-10.105 6.6562-13.211 0.96484-0.73047 1.5664-1.8438 1.6445-3.0508 0.10938 0.003906 0.21484 0.003906 0.32422 0h36.695 0.33203 0.003907c0.066406 1.2109 0.66406 2.3281 1.6328 3.0508 4.1836 3.1055 6.6523 8 6.668 13.211zm-6.7695 10.5 0.003907 0.003907c0-0.43359-0.35156-0.78125-0.78125-0.78125-2.7031-0.007813-4.8906-2.1953-4.8984-4.8984 0-0.42969-0.34766-0.78125-0.78125-0.78125h-27.5c-0.20703 0-0.40625 0.078125-0.55469 0.22656-0.14844 0.14844-0.22656 0.34766-0.22656 0.55469-0.003906 2.707-2.1992 4.8984-4.9062 4.8984-0.42969 0.003906-0.77344 0.35156-0.78125 0.78125v13.094c0.007813 0.42969 0.35156 0.77344 0.78125 0.78125 2.7109 0 4.9062 2.1953 4.9062 4.9062 0 0.42969 0.35156 0.78125 0.78125 0.78125h27.5c0.42969-0.007813 0.77734-0.35156 0.78125-0.78125 0-2.707 2.1914-4.9023 4.8984-4.9062 0.42969 0 0.78125-0.35156 0.78125-0.78125z"/></svg>
</svg>