<svg xmlns="http://www.w3.org/2000/svg" viewBox="0 0 24 24" width="24" height="24" fill="#ffffff">
<svg width="100pt" height="100pt" version="1.1" viewBox="0 0 100 100" xmlns="http://www.w3.org/2000/svg"> <path d="m25.195 41.988c0 4.1523 3.3828 7.5352 7.5391 7.5352h22.164v-15.07h-22.164c-4.1602-0.007813-7.5391 3.375-7.5391 7.5352z"/> <path d="m59.613 25.598h-26.883c-9.0508 0-16.387 7.3359-16.387 16.387s7.3359 16.387 16.387 16.387h26.883c2.2812 0 4.1328-1.8516 4.1328-4.1328v-24.508c0-2.2852-1.8477-4.1328-4.1328-4.1328zm-2.0625 25.254c0 0.73047-0.59375 1.3281-1.3281 1.3281h-23.492c-5.6172 0-10.191-4.5703-10.191-10.191 0-5.6211 4.5703-10.195 10.191-10.195h23.492c0.73438 0 1.3281 0.59375 1.3281 1.3281z"/> <path d="m22.117 26.184c-3.0781-0.27734-5.9492-1.5469-8.1602-3.7578-1.7617-1.7617-4.6211-1.7617-6.3828 0s-1.7617 4.6211 0 6.3828c2.2891 2.2891 4.9922 3.9922 7.9375 5.0977 1.4766-3.1328 3.7617-5.8047 6.6055-7.7227z"/> <path d="m90.297 25.598h-25.336c0.89062 1.1484 1.4414 2.5703 1.4414 4.1328v15.336h23.895c1.9062 0 3.4531-1.5469 3.4531-3.4531v-12.562c0-1.9062-1.5469-3.4531-3.4531-3.4531z"/> <path d="m45.961 61.023h-7.1289l-2.0312 6.8047c1.8398 2.0703 3.9297 3.332 5.7266 4.0742 1.6641 0.69141 3.3516-0.75781 2.9766-2.5195-0.29688-1.3867-0.46875-3.0703-0.28516-4.957 0.12891-1.2539 0.39844-2.3828 0.74219-3.4023z"/> <path d="m16.523 51.93-7.4141 21.121c-0.97266 2.7656 0.26172 5.8203 2.8828 7.1367l9.0234 4.5391c3.6172 1.8203 7.9961-0.070312 9.1523-3.9492l5.8984-19.754h-3.332c-6.8555 0-12.859-3.6484-16.211-9.0938z"/> <path d="m88.859 16.891c0-1.7461-1.8633-2.8672-3.4023-2.043l-5.2695 2.8125c-1.6094 0.85938-2.6172 2.5352-2.6172 4.3633v0.92578h11.289z"/></svg>
</svg>