<svg xmlns="http://www.w3.org/2000/svg" viewBox="0 0 24 24" width="24" height="24" fill="#ffffff">
<svg width="100pt" height="100pt" version="1.1" viewBox="0 0 100 100" xmlns="http://www.w3.org/2000/svg"> <path d="m67.133 17.117c0.65625-2.5977 3.3555-4.1758 6.0117-3.5312 1.3008 0.31641 2.3906 1.1133 3.0703 2.2422 0.65625 1.0938 0.84766 2.3789 0.53906 3.5977l-7.1523 27.152c-3.0703-1.1719-6.3125-1.918-9.6484-2.2344l1.1055-4.1875zm-17.133-9.543c1.3477-0.074219 2.6289 0.37109 3.6172 1.2539 0.95703 0.85547 1.5234 2.0234 1.5938 3.2852l1.6406 32.062c-2.9492-0.03125-5.8672 0.27734-8.6992 0.93359l-2.8281-32.43c-0.15234-2.6602 1.9453-4.9531 4.6758-5.1055zm41.441 24.879-9.3008 17.891s0 0.003906-0.003906 0.003906c-1.5117 2.6914-2.4414 5.5898-2.7695 8.6172-0.007813 0.054687-0.011719 0.10547-0.011719 0.16016v9.2383c0 0.15234 0.027343 0.29688 0.070312 0.43359-0.046875 0.14453-0.078125 0.29688-0.078125 0.46094v5.0312c0 9.7344-8.0781 17.652-18.012 17.652h-9.7695c-0.035156 0-0.070312 0.003906-0.10547 0.003906-2.8281 0.20313-5.6094-0.14844-8.2695-1.0352-2.5625-0.85547-4.8984-2.1719-6.9531-3.9062l-26.797-26.32c-0.92969-0.91406-1.4414-2.125-1.4414-3.4102 0-1.2852 0.51172-2.4961 1.4414-3.4102 1.9375-1.9023 5.0859-1.9023 7.0234 0l7.3242 7.1914c1.5 1.4766 3.4922 2.2852 5.6133 2.2852 13.207 0 23.949 10.535 23.949 23.484 0 0.82812 0.67188 1.5 1.5 1.5 0.82813 0 1.5-0.67188 1.5-1.5 0-12.207-8.4492-22.504-19.895-25.559v-6.4023c0-0.054687-0.003906-0.10547-0.007812-0.16016-0.32812-3.0273-1.2617-5.9297-2.7734-8.625v-0.003906l-11.68-22.164c-0.58984-1.1367-0.69531-2.4297-0.29688-3.6445 0.40234-1.2383 1.2812-2.25 2.4648-2.8398 2.4453-1.2188 5.4375-0.26172 6.6836 2.1445l14.082 26.457c-2.543 0.84375-5 1.9609-7.332 3.3633-0.71094 0.42969-0.9375 1.3516-0.51172 2.0586 0.42969 0.71094 1.3477 0.9375 2.0586 0.51172 5.9805-3.6055 12.848-5.2305 19.879-4.7031 6.7969 0.51172 13.172 3.0117 18.43 7.2266 0.27734 0.22266 0.60938 0.32812 0.9375 0.32812 0.4375 0 0.875-0.19141 1.1719-0.5625 0.51953-0.64453 0.41406-1.5898-0.23047-2.1094-2.1602-1.7305-4.4922-3.1953-6.957-4.3789l10.27-19.75c1.2617-2.375 4.2578-3.3047 6.6875-2.0664 1.1836 0.60156 2.0508 1.6172 2.4414 2.8594 0.39062 1.2148 0.27344 2.5078-0.33203 3.6484z"/></svg>
</svg>