<svg xmlns="http://www.w3.org/2000/svg" viewBox="0 0 24 24" width="24" height="24" fill="#ffffff">
<svg width="100pt" height="100pt" version="1.1" viewBox="0 0 100 100" xmlns="http://www.w3.org/2000/svg"> <g>  <path d="m60.574 12.184c0 5.8984-4.7812 10.676-10.676 10.676-5.8984 0-10.676-4.7773-10.676-10.676 0-5.8945 4.7773-10.676 10.676-10.676 5.8945 0 10.676 4.7812 10.676 10.676"/>  <path d="m86.949 83.492-3.9531-18.336c-1.4531-6.8164-9.4922-6.9648-9.4922-6.9648 3.0078 0 3.9648-2.1719 4.1289-3.6641 0.14063-1.2539-0.25781-3.7344-3.3867-4.6289l-13.156-2.5859s-1.0078-5.2422-2.2773-11.301c-2.2344-10.684-18.801-13.414-18.801-7.2461v34.191c0 5.582 5.6484 6.8789 8.8516 6.8789h19.953s7.168 17.238 8.4141 18.969c1.2422 1.7344 3.2227 3.2148 6.8281 1.9297 3.7891-1.3516 3.3477-5.2695 2.8906-7.2422z"/>  <path d="m56.094 73.211c0 9.9609-8.1016 18.07-18.062 18.07-9.9648 0-18.062-8.1094-18.062-18.07 0-7.0625 4.1562-13.523 10.562-16.438 0.019531-0.007813 2.0625-1.0078 3.0156-1.8945 1.5859-1.4805 2.5469-3.168 2.8008-4.793 0.14844-0.65625 0.22266-1.3477 0.22266-2.0664v-9.2266c0-4.9922-4.0625-9.0547-9.0547-9.0547h-5.5898c-1.9922 0-3.6016 1.6094-3.6016 3.6016 0 1.9883 1.6133 3.6016 3.6016 3.6016h5.582c0.98438 0 1.8477 0.86328 1.8477 1.8438v9.2266c0 0.18359-0.015625 0.33594-0.085938 0.69531-0.035156 0.22266-0.26953 0.55078-0.50781 0.78125-0.34375 0.25391-1.0625 0.64453-1.1953 0.71094-8.9961 4.0898-14.812 13.121-14.812 23.008 0 13.934 11.336 25.273 25.273 25.273s25.273-11.34 25.273-25.273z"/> </g></svg>
</svg>