<svg xmlns="http://www.w3.org/2000/svg" viewBox="0 0 24 24" width="24" height="24" fill="#ffffff">
<svg width="100pt" height="100pt" version="1.1" viewBox="0 0 100 100" xmlns="http://www.w3.org/2000/svg"> <g>  <path d="m86.508 38.242c0 3.9297-3.9297 11.328-18.031 15.715-3.8516 1.0898-7.1641 3.5547-9.3086 6.9336-2.1445 3.375-2.9688 7.4219-2.3164 11.371 4.9531-5.9492 11.906-9.8828 19.555-11.074-11.637 4.3125-22.5 20.973-22.5 20.973-3.2617-10.75-11.676-19.16-22.426-22.426 9.4805-0.46094 18.727 8.7852 18.727 8.7852 5.5508-21.035-15.715-26.125-25.895-29.359-6.0664-2.0664-10.621-7.1445-12.012-13.402-6.2305 14.332-6.0117 36.527 6.4688 45.543s26.816 2.3125 26.816 2.3125c6.4727 5.7773 6.4727 18.957 6.4727 18.957h3.9297c0.46484-9.9375 4.1602-13.871 4.1602-13.871 10.574 5.6719 22.656-3.4688 22.656-3.4688 17.59-13.477 3.7031-36.988 3.7031-36.988z"/>  <path d="m59.145 47.941c3.7734 0 7.3867-1.5 10.047-4.1719 2.6641-2.668 4.1562-6.2852 4.1484-10.055 0-7.8555-14.191-26.281-14.191-26.281s-14.23 18.43-14.23 26.281c0 7.8555 6.3711 14.227 14.227 14.227zm1.4805-11.266 0.003906 0.003907c3.4609-3 5.3516-7.418 5.1328-11.992 0 0 5.4805 8.7148 0.6875 15.812-0.14453 0.25781-0.33203 0.48828-0.55078 0.6875-0.73047 0.93359-1.8477 1.4805-3.0312 1.4844-0.92969-0.027344-1.8086-0.4375-2.4219-1.1367-0.61328-0.69922-0.91016-1.625-0.81641-2.5508 0.039063-0.85156 0.41016-1.6562 1.0312-2.2383-0.003906-0.023438-0.015625-0.050782-0.03125-0.066406zm-4.6445-14.57h0.003906c1.3359 0.003906 2.418 1.0859 2.4219 2.4219 0.007812 0.64453-0.24609 1.2656-0.70312 1.7188-0.45312 0.45703-1.0742 0.71094-1.7188 0.70312-1.332-0.007813-2.4102-1.0859-2.4141-2.4219 0.023438-1.3242 1.0938-2.3984 2.418-2.4219z"/> </g></svg>
</svg>