<svg xmlns="http://www.w3.org/2000/svg" viewBox="0 0 24 24" width="24" height="24" fill="#ffffff">
<svg width="100pt" height="100pt" version="1.1" viewBox="0 0 100 100" xmlns="http://www.w3.org/2000/svg"> <path d="m49.48 0 0.007812 0.027344-0.49609 8.9922-8.7773-2.2812h7.0742zm-5.7109 17.625 4.9805-7.6289-8.5352-3.2578h-0.007813l5.7305 4.1641-2.1875 6.7344zm0.003907-0.003906-0.015626 0.015625zm11.43-0.003906-5.7227-7.1367-5.707 7.1406 4.5-3.2695-6.1445 13.902c-0.24219 0.54688 0.027344 1.1836 0.58984 1.3867l15.863 5.7422c0.59766 0.21484 1.1641-0.39062 0.90625-0.96875l-8.7969-20.059 4.5195 3.2812zm-0.003906-0.007813 0.003906 0.007813 0.019531 0.019531zm3.543-10.863-8.5312 3.25 4.9883 7.6133-2.1797-6.707zm0.003906-0.003906-0.003906 0.003906 0.019531-0.007813zm-9.2539-6.7031-0.003907-0.011719v-0.027344zl0.47656 8.9805 8.7773-2.2773 0.007812-0.003907h-7.0859zm-8.7188 31.363c0.14844-0.34375 0.53125-0.51953 0.88672-0.40234l18.34 5.9844c0.60938 0.19922 0.67969 1.0352 0.10938 1.3281l-26.887 13.941c-0.60156 0.3125-1.2617-0.30078-0.99609-0.92578zm20.68 7.5938 8.9453 20.918c0.21875 0.51172-0.19922 1.0664-0.75 1l-38.129-4.6523c-0.70312-0.085938-0.875-1.0234-0.25-1.3555zm-32.141 19.141c0.125-0.29297 0.42969-0.46875 0.74609-0.43359l40.293 4.5664c0.75781 0.085938 0.88281 1.1328 0.16797 1.3945l-50.059 18.227c-0.59375 0.21484-1.1562-0.38281-0.91016-0.96094zm42.43 6.5625c0.35937-0.12891 0.75781 0.042969 0.90625 0.39453l8.1133 18.953c0.20703 0.47656-0.14453 1.0039-0.66016 1.0039h-60.371c-0.80859 0-1.0078-1.125-0.24609-1.3984zm-26.898 32.207v-10.824h9.2812v10.824c0 1.4258-1.1562 2.5781-2.5781 2.5781h-4.125c-1.4219 0-2.5781-1.1523-2.5781-2.5781z" fill-rule="evenodd"/></svg>
</svg>