<svg xmlns="http://www.w3.org/2000/svg" viewBox="0 0 24 24" width="24" height="24" fill="#ffffff">
<svg width="100pt" height="100pt" version="1.1" viewBox="0 0 100 100" xmlns="http://www.w3.org/2000/svg"> <path d="m93.75 90.508v3.2422h-87.5v-3.2422zm-8.2773-53.473h-70.945v50.23h5.4922v-30.789c0-0.89453 0.72656-1.6172 1.6211-1.6172h22.684c0.89844 0 1.6211 0.72656 1.6211 1.6172v30.789h39.523v-50.23zm-62.211 50.23v-29.164h19.445v29.164zm30.789-43.75v22.684c0 0.89844 0.72656 1.6211 1.6211 1.6211h22.684c0.89453 0 1.6211-0.72656 1.6211-1.6211v-22.684c0-0.89453-0.72656-1.6211-1.6211-1.6211h-22.684c-0.89844 0-1.6211 0.72656-1.6211 1.6211zm22.688 21.066h-8.1016v-8.1016h8.1016zm-19.445-8.1016h8.1016v8.1016h-8.1016zm19.445-3.2422h-8.1016v-8.1016h8.1016zm-11.344-8.1016v8.1016h-8.1016v-8.1016zm-53.27-11.227 36.988-24.234s0.87891-0.58594 1.7891 0.007813l40.43 26.492c0.60156 0.39062 1.4023 0.22656 1.793-0.375 0.39453-0.60156 0.22656-1.4023-0.37109-1.793l-42.039-27.547c-0.42969-0.28516-0.98828-0.28516-1.418 0l-42.039 27.547c-0.59766 0.39063-0.76562 1.1953-0.37109 1.793 0.39062 0.60156 1.1953 0.76562 1.793 0.375l2.9258-1.918c0.14844-0.14844 0.33203-0.26562 0.52734-0.34766zm6.0938-0.11719h63.562l-31.781-20.824zm31.781-16.203c-3.5781 0-6.4805 2.9023-6.4805 6.4805 0 3.5742 2.9023 6.4805 6.4805 6.4805s6.4805-2.9062 6.4805-6.4805c0-3.5781-2.9023-6.4805-6.4805-6.4805zm0 3.2422c1.7891 0 3.2422 1.4492 3.2422 3.2422 0 1.7891-1.4531 3.2422-3.2422 3.2422s-3.2422-1.4531-3.2422-3.2422c0-1.7891 1.4531-3.2422 3.2422-3.2422z" fill-rule="evenodd"/></svg>
</svg>