<svg xmlns="http://www.w3.org/2000/svg" viewBox="0 0 24 24" width="24" height="24" fill="#ffffff">
<svg width="100pt" height="100pt" version="1.1" viewBox="0 0 100 100" xmlns="http://www.w3.org/2000/svg"> <path d="m83.488 55c-0.61719-0.62891-0.61719-1.6406 0-2.2695 20.398-20.41 9.8516-42.469 6.1289-48.75h0.003906c-0.19531-0.35938-0.61328-0.52734-1-0.40234-0.43359 0.14453-0.69922 0.58203-0.62109 1.0312 0.69141 3.5781 0.91016 8.5195-1.9297 11.66-1.8906 2.0781-4.75 3-8.5195 2.6211-3.0703-0.32812-6.0195-1.3555-8.6289-3-8.2695-5-14.641-4.5508-20.641 1.4102-0.14062 0.14062-0.30859 0.25391-0.49219 0.32812-0.17187 0.0625-0.35547 0.10156-0.53906 0.10938h-0.25c-0.17578-0.003906-0.34766-0.039062-0.51172-0.097656h-0.070312 0.003906c-0.19141-0.074219-0.35938-0.1875-0.5-0.33203-2.1914-2.1875-5.7383-2.1836-7.9258 0.007812-2.1875 2.1875-2.1875 5.7383 0.003906 7.9219l1.2383 1.2188 13.602 13.613 8.1602 8.1602c0.14844 0.15625 0.26953 0.33984 0.35156 0.53906 0.24219 0.59766 0.10547 1.2852-0.35156 1.7422l-3.5312 3.4883c-0.60156 0.60156-0.9375 1.4141-0.9375 2.2656 0 0.84766 0.33594 1.6641 0.9375 2.2656 1.2695 1.1992 3.2539 1.1992 4.5195 0l3.5312-3.5312c0.62891-0.61719 1.6328-0.61719 2.2617 0l7.8398 7.8398c2.1836 2.168 5.707 2.168 7.8906 0 2.168-2.1875 2.168-5.7148 0-7.8984z"/> <path d="m66.66 58.441-2.3984 2.3906v-0.003906c-2.5078 2.4961-6.5586 2.4961-9.0625 0-2.5-2.5039-2.5-6.5625 0-9.0664l2.3906-2.3906-13.34-13.371v28.391c-0.066406 0.83594-0.76562 1.4844-1.6055 1.4844-0.83984 0-1.5391-0.64844-1.6055-1.4844v-31.582l-2.6719-2.6797-9.1367 13.871v11.191c0.035156 0.44531-0.11719 0.88672-0.42188 1.2188-0.30469 0.32812-0.73438 0.51562-1.1836 0.51562s-0.87891-0.1875-1.1836-0.51562c-0.30469-0.33203-0.45703-0.77344-0.42188-1.2188v-6.293l-9.3398 14.203v20.898c0 0.42578-0.16797 0.83203-0.46875 1.1328-0.30078 0.29688-0.70703 0.46875-1.1328 0.46875s-0.83594-0.16406-1.1406-0.46484c-0.30078-0.30078-0.47656-0.71094-0.47656-1.1367v-16l-7.2891 11.07c-2.9297 4.4805-2.3242 10.395 1.4492 14.191 1.5898 1.5938 3.625 2.6719 5.8398 3.0898v-4.3516c0-0.88672 0.71484-1.6055 1.5977-1.6094 0.42969 0 0.83984 0.16797 1.1406 0.47266 0.30078 0.30078 0.47266 0.71094 0.47266 1.1367v4.5c1.8281-0.16406 3.5859-0.78125 5.1172-1.7891l4.2109-2.7812v-27.93c0.066406-0.83594 0.76562-1.4844 1.6055-1.4844 0.83984 0 1.5391 0.64844 1.6055 1.4844v25.809l11.789-7.8086v-8.5391c-0.035156-0.44922 0.11719-0.89063 0.42188-1.2188 0.30469-0.33203 0.73438-0.51953 1.1836-0.51953s0.87891 0.1875 1.1836 0.51953c0.30469 0.32812 0.45703 0.76953 0.42188 1.2188v6.4609l26.5-17.434-3.4922-3.4883z"/></svg>
</svg>