<svg xmlns="http://www.w3.org/2000/svg" viewBox="0 0 24 24" width="24" height="24" fill="#ffffff">
<svg width="100pt" height="100pt" version="1.1" viewBox="0 0 100 100" xmlns="http://www.w3.org/2000/svg"> <path d="m13.543 15.727c-0.70312-0.85156-1.9648-0.97266-2.8164-0.26953-0.85156 0.70312-0.97266 1.9648-0.26953 2.8164l16.414 20.867c3.8672 4.6836 8.8047 7.8555 14.117 9.5195-0.35547 0.73438-0.62109 1.5195-0.78906 2.3398-3.3516 0.003906-6.6484 1.5156-8.8398 4.3438-3.6562 4.7188-2.9961 11.48 1.5039 15.398l15.824 13.766c0.75391 0.65625 1.8711 0.65625 2.625 0l15.824-13.766c4.5-3.918 5.1602-10.68 1.5039-15.398-2.1914-2.8281-5.4883-4.3398-8.8398-4.3438-0.16797-0.82031-0.43359-1.6055-0.78906-2.3398 5.3125-1.6641 10.25-4.8359 14.117-9.5195l16.414-20.867c0.70312-0.85156 0.58203-2.1133-0.26953-2.8164-0.85156-0.70312-2.1133-0.58203-2.8164 0.26953l-16.41 20.867c-3.7109 4.4922-8.5508 7.3789-13.715 8.668-1.7227-1.4141-3.9297-2.2617-6.332-2.2617s-4.6094 0.84766-6.332 2.2617c-5.1641-1.2891-10.004-4.1758-13.715-8.668zm42.32 35.988c-0.58984-2.6953-2.9922-4.7148-5.8633-4.7148s-5.2734 2.0195-5.8633 4.7109c0.69141 0.26172 1.3672 0.59375 2.0156 1l3.8477 2.4141 3.8477-2.4141c0.64844-0.40625 1.3242-0.73828 2.0156-0.99609z" fill-rule="evenodd"/></svg>
</svg>