<svg xmlns="http://www.w3.org/2000/svg" viewBox="0 0 24 24" width="24" height="24" fill="#ffffff">
<svg width="100pt" height="100pt" version="1.1" viewBox="0 0 100 100" xmlns="http://www.w3.org/2000/svg"> <path d="m15.625 43.594c-0.78125 0-1.5625-0.15625-2.3438-0.3125l-2.3438 34.375c-0.15625 1.4062 0.3125 2.6562 1.25 3.5938 1.875 2.0312 5.1562 2.0312 7.0312 0 0.9375-0.9375 1.4062-2.1875 1.25-3.5938l-2.3438-34.219c-0.78125 0.15625-1.5625 0.15625-2.5 0.15625z"/> <path d="m12.656 39.688c0.9375 0.46875 2.0312 0.625 3.125 0.625s2.1875-0.3125 3.125-0.625c3.75-1.5625 6.25-5.7812 6.25-10.938 0-0.625 0-1.4062-0.15625-2.0312v-0.15625c-0.78125-5.3125-4.6875-9.375-9.2188-9.375-5.1562 0-9.375 5.1562-9.375 11.562-0.15625 5.1562 2.5 9.375 6.25 10.938zm2.9688-19.062c3.4375 0 6.25 3.75 6.25 8.2812 0 0.9375-0.78125 1.5625-1.5625 1.5625-0.9375 0-1.5625-0.78125-1.5625-1.5625 0-2.8125-1.5625-5-2.9688-5-0.9375 0-1.5625-0.78125-1.5625-1.5625-0.15625-1.0938 0.625-1.7188 1.4062-1.7188z"/> <path d="m51.719 27.656c-12.344 0-22.344 10-22.344 22.344s10 22.344 22.344 22.344 22.344-10 22.344-22.344-10-22.344-22.344-22.344zm17.656 23.906c-0.9375 0-1.5625-0.78125-1.5625-1.5625 0-8.9062-7.1875-16.094-16.094-16.094-0.9375 0-1.5625-0.78125-1.5625-1.5625 0-0.9375 0.78125-1.5625 1.5625-1.5625 10.625 0 19.219 8.5938 19.219 19.219 0 0.9375-0.78125 1.5625-1.5625 1.5625z"/> <path d="m80.625 34.688c-5.625-10.781-16.719-17.5-28.906-17.5-8.75 0-17.344 3.5938-23.438 9.8438 0 0.46875 0.15625 1.0938 0.15625 1.5625 0 5.7812-2.9688 10.938-7.1875 13.281l1.5625 23.125c5.625 10.625 16.719 17.344 28.906 17.344 12.5 0 23.906-7.1875 29.375-18.281-0.3125-0.46875-0.46875-0.9375-0.46875-1.4062zm-28.906 40.938c-14.062 0-25.625-11.406-25.625-25.625s11.406-25.625 25.625-25.625c14.062 0 25.625 11.406 25.625 25.625s-11.562 25.625-25.625 25.625z"/> <path d="m85.781 65.469-0.9375 13.75c0 0.9375 0.3125 1.7188 0.78125 2.3438 1.25 1.25 3.4375 1.25 4.6875 0 0.625-0.625 0.9375-1.5625 0.78125-2.3438l-0.9375-13.75z"/> <path d="m83.75 17.969v44.219h10v-27.344c0-7.0312-3.9062-13.438-10-16.875z"/></svg>
</svg>