<svg xmlns="http://www.w3.org/2000/svg" viewBox="0 0 24 24" width="24" height="24" fill="#ffffff">
<svg width="100pt" height="100pt" version="1.1" viewBox="0 0 100 100" xmlns="http://www.w3.org/2000/svg"> <path d="m3.8789 87.492c3.1055 2.6719 7.707 4.9883 13.027 5.3672 5.9766 0.42578 12.883-1.6094 19.637-8.3633l25.867-25.867c-2.0703-5.6562 1.0742-8.1914 3.8594-10.887l-11.32-11.32zm51.074-55.145-1.4844-1.4844 3.3047-3.3047 18.875 18.875-3.3047 3.3047zm10.109-0.57031 18.938-18.938 6.3672 6.3672-18.938 18.938zm19.754-22.188 8.7344 8.7344c0.58594 0.58594 1.5508 0.58594 2.1328 0l0.003906 0.003906c0.57812-0.58594 0.57812-1.5547 0-2.1367l-0.003906 0.003906-8.6641-8.6641c-0.9375-0.9375-2.5742-0.28125-2.5742 1.0664h0.007813c-0.003906 0.35156 0.11719 0.70703 0.36328 0.99219zm-39.898 44.289c0.59375-0.59375 1.6328-0.17578 1.6328 0.67578h-0.007812c0 0.24609-0.09375 0.49219-0.27734 0.67578l-14.543 14.547c-0.89062 0.89062-2.2383-0.46094-1.3555-1.3555l0.003906 0.003906zm-16.582 12.512 14.543-14.543c2.3906-2.3906 6.5391-0.72266 6.5391 2.7109h0.007812c0 0.98047-0.375 1.9648-1.1211 2.7109l-14.543 14.543c-2.3984 2.3984-6.543 0.70703-6.543-2.7109-0.003906-1.7305 1.1172-2.6875 1.1172-2.7109z" fill-rule="evenodd"/></svg>
</svg>