<svg xmlns="http://www.w3.org/2000/svg" viewBox="0 0 24 24" width="24" height="24" fill="#ffffff">
<svg width="100pt" height="100pt" version="1.1" viewBox="0 0 100 100" xmlns="http://www.w3.org/2000/svg"> <path d="m20.445 75.527c-1.2188 1.2188-1.2188 3.1992 0 4.418s3.1992 1.2188 4.418 0 1.2188-3.1992 0-4.418c-0.60938-0.60938-1.4102-0.91406-2.2109-0.91406-0.80078 0-1.6016 0.30469-2.2109 0.91406z"/> <path d="m4.9766 79.945c-0.30469 0.30469-0.30469 0.80078 0 1.1055l14.363 14.363c0.30469 0.30469 0.80078 0.30469 1.1055 0l19.887-19.887-15.469-15.469zm20.992 1.1055c-0.91406 0.91406-2.1133 1.3711-3.3164 1.3711-1.1992 0-2.4023-0.45703-3.3125-1.3711-1.8281-1.8281-1.8281-4.8008 0-6.6289s4.8008-1.8281 6.6289 0 1.8281 4.8008 0 6.6289z"/> <path d="m95.023 19.73-14.363-14.363c-0.30469-0.30469-0.80078-0.30469-1.1055 0l-38.117 38.117 7.1836 7.1836 4.4688-4.4688c-0.5625-0.78906-0.87109-1.7266-0.87109-2.7148 0-1.2539 0.48828-2.4297 1.3711-3.3164 0.88672-0.88672 2.0625-1.3711 3.3164-1.3711s2.4297 0.48828 3.3164 1.3711c0.88672 0.88672 1.3711 2.0625 1.3711 3.3164s-0.48828 2.4297-1.3711 3.3164c-0.88672 0.88672-2.0625 1.3711-3.3164 1.3711-0.98828 0-1.9258-0.30859-2.7148-0.87109l-4.4688 4.4688 7.1836 7.1836 38.117-38.117c0.30469-0.30469 0.30469-0.80078 0-1.1055z"/> <path d="m57.457 60.609c-0.15234 0.15234-0.35156 0.23047-0.55078 0.23047s-0.39844-0.078125-0.55078-0.23047l-7.7344-7.7344-8.8398 8.8398-1.1055-1.1055 8.8398-8.8398-7.7344-7.7344c-0.30469-0.30469-0.30469-0.80078 0-1.1055l22.621-22.621c-1.8398-1.582-4.1523-2.4492-6.6016-2.4492-2.7148 0-5.2617 1.0586-7.1836 2.9766l-23.203 23.203c-3.9609 3.9609-3.9609 10.402 0 14.363l16.574 16.574c3.9609 3.9609 10.402 3.9609 14.363 0l23.203-23.203c1.918-1.918 2.9766-4.4688 2.9766-7.1836 0-2.4492-0.86719-4.7617-2.4492-6.6016l-22.621 22.621z"/> <path d="m59.113 45.695c1.2188-1.2188 1.2188-3.2031 0-4.418-0.60938-0.60938-1.4102-0.91406-2.2109-0.91406-0.80078 0-1.6016 0.30469-2.2109 0.91406-1.0273 1.0273-1.1758 2.5898-0.47266 3.7891l2.1328-2.1328 1.1055 1.1055-2.1328 2.1328c1.1992 0.70312 2.7617 0.55078 3.7891-0.47266z"/></svg>
</svg>