<svg xmlns="http://www.w3.org/2000/svg" viewBox="0 0 24 24" width="24" height="24" fill="#ffffff">
<svg width="100pt" height="100pt" version="1.1" viewBox="0 0 100 100" xmlns="http://www.w3.org/2000/svg"> <path d="m23.531 42.195c3.1211 0 6.0078 1.0156 8.3438 2.7344v-34.559h0.011719c0-1.3633 0.97266-2.5742 2.3633-2.8242l20.207-3.6328c1.5898 0 2.8789 1.2891 2.8789 2.8789v11.75h-0.011719c0 1.3633-0.97266 2.5742-2.3633 2.8242l-17.324 3.1484v31.785c0 12.52-15.211 18.836-24.074 9.9727-8.8672-8.8672-2.5508-24.078 9.9688-24.078zm64.676 4.8438c1.3906-0.25 2.3633-1.4609 2.3633-2.8242h0.011719v-11.75c0-1.5898-1.2891-2.8789-2.8789-2.8789l-20.207 3.6328c-1.3906 0.25-2.3633 1.4609-2.3633 2.8242h-0.011718v34.559c-2.3359-1.7188-5.2227-2.7305-8.3438-2.7305-12.52 0-18.836 15.211-9.9727 24.074 8.9062 8.9062 24.113 2.4648 24.074-9.9727l0.003906-31.789z" fill-rule="evenodd"/></svg>
</svg>