<svg xmlns="http://www.w3.org/2000/svg" viewBox="0 0 24 24" width="24" height="24" fill="#ffffff">
<svg width="100pt" height="100pt" version="1.1" viewBox="0 0 100 100" xmlns="http://www.w3.org/2000/svg"> <path d="m45.508 30.25c1.8906-0.5 3.9023-0.09375 5.4531 1.0938 0.50391 0.375 1.2148 0.27344 1.5938-0.22656 0.37891-0.5 0.27734-1.2148-0.22656-1.5938-2.1484-1.6211-4.9297-2.1523-7.5273-1.4336-0.54688 0.23047-0.82812 0.84375-0.64062 1.4062s0.77734 0.88672 1.3516 0.74219z"/> <path d="m50.305 32.969c-1.4297-1.1133-3.3359-1.4023-5.0312-0.76172-0.51172 0.23828-0.76953 0.8125-0.60938 1.3516 0.16016 0.53906 0.69531 0.87891 1.25 0.79688-0.015624 0.12109-0.023437 0.24219-0.027343 0.36328 0 1.5352 0.86719 2.6953 2.0156 2.6953 1.082 0 1.9023-1.0312 1.9961-2.4375h-0.003907c0.42969-0.10156 0.75781-0.44141 0.84375-0.875 0.089844-0.42969-0.078125-0.87109-0.43359-1.1328z"/> <path d="m32.836 33.141c0.11328 1.3672 0.92578 2.3672 1.9883 2.3672 1.1484 0 2.0156-1.1562 2.0156-2.6914 0-0.10938-0.015625-0.21094-0.023438-0.3125h-0.003906c0.48828-0.097656 0.85156-0.5 0.90234-0.99219 0.054687-0.48828-0.21875-0.95703-0.67188-1.1562-1.6953-0.64453-3.6016-0.35547-5.0312 0.76172-0.39062 0.29297-0.55469 0.80469-0.39844 1.2656 0.15234 0.46484 0.58594 0.78125 1.0742 0.78125 0.050781-0.003906 0.10156-0.011718 0.14844-0.023437z"/> <path d="m51.367 70.234-5.6094-7.5625c-2.125 1.6445-4.4961 2.9453-7.0312 3.8477l1.8672 5.2578-5.0156 23.504c-0.12109 0.58984 0.23828 1.168 0.81641 1.3242 3.957 1.0703 8.3203 1.6406 12.977 1.7188h0.015625c0.30859 0 0.60938-0.12891 0.82422-0.35547 0.21484-0.23438 0.32812-0.55078 0.30859-0.87109-0.023437-0.21094-1.5977-20.023-1.6953-24.188z"/> <path d="m45.73 62.637 0.019531 0.035156 0.007812-0.007813z"/> <path d="m38.242 71.938-1.7422-4.8828c-0.33203-0.089844-0.60547-0.33203-0.74219-0.64844l-4.2969-10.102c-2 1-3.7578 1.9141-5.3516 2.7773h0.003906c-2.3633 1.2422-4.6641 2.6016-6.8906 4.0781-5.7734 3.9062-6.0547 9.1797-6.3047 13.836-0.039063 0.73438-0.078125 1.4688-0.13672 2.2031-0.125 1.5352-0.21094 2.2617-0.25781 3.6484l0.003906-0.003906c-0.070313 2.9453 1.5703 5.6602 4.2031 6.9766 5.3008 2.5938 10.859 4.6289 16.578 6.0781-0.046875-0.35547-0.03125-0.71875 0.042968-1.0703z"/> <path d="m79.977 64.484c-4.4453-3.1094-9.0859-5.9297-12.172-7.7305 0 0-0.082032-0.054687-0.089844-0.0625l-0.32812-0.19531c-0.10547-0.0625-0.21094-0.12109-0.32422-0.19531-3.0859 4.5234-8.9844 12.578-13.422 15.273v0.003906c-0.17188 0.10938-0.375 0.16406-0.58594 0.16406l-1.9297 2.0273c0.25 5.5 1.5898 22.391 1.6562 23.102l0.003906 0.003906c0.035156 0.51562-0.039062 1.0352-0.22266 1.5195h0.53906c10.34 0.027344 20.559-2.1953 29.953-6.5117 2.6641-1.2188 4.3867-3.8633 4.4219-6.7969 0.035157-5.9844-0.88672-15.969-7.5-20.602z"/> <path d="m30.684 19.941c-0.14453 0.62109-0.25 1.0742-0.29688 1.3086h0.003906c-0.41406 2.2148-0.71094 4.4492-0.88672 6.6953-0.027344 0.019532-0.054687 0.035157-0.078125 0.054688h-0.003906c-0.24219 0.18359-0.39844 0.45312-0.44141 0.75s0.035156 0.60156 0.21484 0.84375c0.054688 0.070312 0.11328 0.13672 0.18359 0.19531-0.21875 4.1445-0.078125 9.1406 1.1602 13.578-0.46875-0.14453-0.97656 0.035156-1.2539 0.4375h-0.003906c-0.28516 0.4375-0.24609 1.0117 0.10156 1.3984 0.75 0.875 1.6602 1.5977 2.6758 2.1406 1.1445 2.25 2.7188 4.1797 4.8672 5.5117 0.23438 0.14453 0.47266 0.27734 0.71094 0.40625l-4.1367 2.0312 3.9453 9.2734v0.003906c2.5156-0.84375 4.8672-2.1055 6.9609-3.7344 0.0625-0.046876 0.12109-0.089844 0.17188-0.13281-0.47266-0.5-0.92188-1.0312-1.3359-1.582h-0.003907c-1.0977-1.4922-2.0742-3.0664-2.9258-4.707v-0.003906c1.5586 0.50391 3.1836 0.75781 4.8203 0.75391 1.5547-0.003906 3.0977-0.20703 4.6016-0.59766 3.0859-0.82422 5.9766-2.2578 8.5-4.2148l0.30469 1.3516c-1.3359 1.0898-4.9688 4.0312-9.0625 7.1562-0.78125 0.59766-1.582 1.2031-2.3828 1.8008l0.39062 0.53125 5.8359 7.8789c3.9258-2.8984 8.9844-9.8203 11.793-13.922l-4.2812-3.6445-0.65625-2.8906v0.003907c0.41797-0.42969 0.78516-0.90625 1.0938-1.418l0.42188-0.74219c0.58594-1.0234 1.1055-1.9297 1.4062-2.7227 1.7266-0.71094 6.3398-3.4727 7.6953-13.141 0.875-6.25 1.0078-8.1875 0.73438-10.879-0.21875-2.2188-0.80469-3.457-1.0977-3.9492-0.19531-0.875-1.0938-3.8672-3.8125-4.6875-0.85547-1.4844-3.5625-5.6289-7.1406-5.6289-0.80469-0.85547-2.6641-2.5859-4.707-2.7695-0.98828-0.09375-1.9766 0.21875-2.7344 0.87109-0.67969 0.57422-0.67969 0.57422-1.4688-0.19531-0.72656-0.71094-1.7188-1.6797-3.4531-1.7578-2.2695-0.074218-4.7188 1.2188-6.6875 2.2695-0.91406 0.5-1.7773 0.96094-2.3828 1.1484h0.003906c-0.60547 0.16406-1.2266 0.28125-1.8516 0.35938-2.1641 0.33594-5.1211 0.78125-5.5391 3.4062-0.36328 2.3203-0.81641 2.7891-1.25 3.2461-0.72656 0.75781-0.6875 2.3906-0.60547 3.293 0.10547 0.95313 0.46484 3.1758 1.8828 4.6211zm30.383 15.367c0.039063-3.9844 0.070313-7.7539 1.7578-8.4727 0.71094-0.3125 0.97656-0.10156 1.0898-0.023438 0.58594 0.42969 1.0352 1.9531 0.78125 4.0391-0.26562 2.2266-0.42187 3.5625-2.5625 5.6875h-0.003906c0 0.007813-0.007812 0.015626-0.015625 0.015626-0.0625 0.074218-0.12109 0.15234-0.17578 0.23437-0.14062 0.21875-0.35156 0.39063-0.59375 0.48438-0.097656 0.015624-0.19922 0.015624-0.29688 0 0-0.65625 0.007813-1.3242 0.015625-1.9688zm-29.41-6.043c1.4062-0.75 3.0391-0.94531 4.582-0.54297 0.57812 0.14453 1.168-0.17969 1.3555-0.74219 0.1875-0.56641-0.09375-1.1797-0.64062-1.4062-1.6719-0.46484-3.4414-0.41406-5.0781 0.14062 0.19531-1.8281 0.44922-3.5352 0.73828-5.0234 0.0625-0.30469 0.21875-0.99219 0.4375-1.8438v-0.015625c0.64062-2.5195 2.0508-6.1133 3.4727-7.6328 0.20312 0.72656 0.51172 1.418 0.90625 2.0586 1.082 1.7461 3.375 3.8281 8.1094 3.8281 0.38281 0 0.73438-0.19141 0.94531-0.50781 0.21484-0.31641 0.25-0.71875 0.097656-1.0703l-0.46094-1.1016c1.6875 0.0625 4.2188-0.046875 6.668-0.92578 0.24219 2.6719 0.97656 7.9375 3.2617 11.152 0 1.2578-0.023437 5.3281-0.023437 7.1797 0 2.1797-0.79297 6.9453-3.2344 7.7227l-0.003907 0.003906c-0.4375 0.14453-0.74609 0.53516-0.78125 0.99609-0.03125 0.42969-0.25 4.25 2.0195 5.4688h-0.003906c0.3125 0.16797 0.66016 0.25391 1.0156 0.25 0.52344-0.011718 1.0312-0.16406 1.4727-0.4375 1.7578-1.0312 3.6719-3.9258 4.2969-7.2773 0.12109 0 0.23438 0.023438 0.33984 0.023438 0.11719-0.003906 0.23047-0.015625 0.34375-0.03125l-0.40625 3.0781c-0.16797 0.62891-0.77344 1.6875-1.3672 2.7109l-0.4375 0.75781c-0.82031 1.4609-4.75 4.9102-10.117 6.2891-4.0938 1.0547-7.8125 0.57031-11.055-1.4453v-0.007813c-1.2578-0.79687-2.332-1.8555-3.1484-3.1016 1.8203-0.33594 3.0547-1.7852 3.7578-2.7227 0.62109 1.0312 1.8672 2.7617 5.0703 3.5781v-0.003907c0.31641 0.082032 0.64453 0.11719 0.97656 0.11719 2.375 0 4.6719-1.9375 4.9531-2.1797 0.39453-0.33984 0.50781-0.90625 0.27344-1.3711-0.23438-0.46484-0.75781-0.71094-1.2656-0.59766-2.2305 0.49609-2.3438 0.23438-3.0703-1.4844-0.10156-0.23438-0.20312-0.48438-0.32812-0.74219-0.53125-1.1719-1.4297-3.1484-4.3867-3.3594-0.80469-0.054687-1.5898 0.25-2.1172 0.51562v0.003906c-0.046875-0.039062-0.09375-0.074218-0.14453-0.10547-0.46094-0.33984-1.0977-0.80859-2-0.80859-2.6094 0-3.543 1.7227-4.1562 3.3906-0.97656-3.9766-1.1328-8.5664-0.86719-12.777z"/></svg>
</svg>