<svg xmlns="http://www.w3.org/2000/svg" viewBox="0 0 24 24" width="24" height="24" fill="#ffffff">
<svg width="100pt" height="100pt" version="1.1" viewBox="0 0 100 100" xmlns="http://www.w3.org/2000/svg"> <path d="m21.039 62.926c3.7969 0 7.2891 1.3203 10.035 3.5273v-46.352h0.007812c0-1.3906 0.96875-2.6367 2.3828-2.9297l58.539-12.18c1.6562 0 3 1.3438 3 3v58.855c0.050782 14.137-17.242 21.469-27.371 11.34-10.074-10.074-2.9023-27.371 11.34-27.371 3.7969 0 7.2852 1.3203 10.035 3.5273l-0.003906-25.762-51.93 10.852v39.523c0 14.238-17.297 21.414-27.371 11.34-10.078-10.074-2.9023-27.371 11.336-27.371z" fill-rule="evenodd"/></svg>
</svg>