<svg xmlns="http://www.w3.org/2000/svg" viewBox="0 0 24 24" width="24" height="24" fill="#000000">
<svg width="100pt" height="100pt" version="1.1" viewBox="0 0 100 100" xmlns="http://www.w3.org/2000/svg"> <path d="m52.43 8.5898 11.551 23.57c0.26562 0.54688 0.64062 0.99609 1.0977 1.3242 0.45312 0.32812 0.99609 0.54297 1.6016 0.63281l26.023 3.7109c0.62109 0.09375 1.1367 0.38672 1.5234 0.78125 0.29297 0.30078 0.50781 0.66797 0.63281 1.0547 0.125 0.38672 0.16406 0.80859 0.10938 1.2188-0.078125 0.5625-0.33594 1.1133-0.80078 1.5586l-18.848 18.27c-0.44141 0.42578-0.75391 0.92187-0.92578 1.457-0.17188 0.53125-0.21094 1.1172-0.10547 1.7227l4.5078 25.863c0.10938 0.62891-0.003906 1.2227-0.26562 1.7188-0.19141 0.36719-0.47656 0.6875-0.80859 0.92969-0.33203 0.24219-0.72266 0.41406-1.1328 0.48438-0.55469 0.097656-1.1562 0.023437-1.7266-0.27734l-23.199-12.277c-0.54297-0.28516-1.1094-0.42969-1.668-0.42969-0.56641 0-1.1328 0.14453-1.6719 0.42969l-23.203 12.277c-0.57031 0.30078-1.1719 0.375-1.7461 0.27344-0.41797-0.078124-0.79297-0.24609-1.1523-0.50781-0.33594-0.26172-0.58984-0.55859-0.76953-0.90234-0.26562-0.49609-0.37891-1.0898-0.26953-1.7227l4.5078-25.855c0.10547-0.60547 0.066406-1.1914-0.10547-1.7227-0.17188-0.53125-0.48438-1.0273-0.92578-1.457l-18.848-18.27c-0.46094-0.44922-0.71875-0.99609-0.80078-1.5586-0.058594-0.41016-0.019531-0.83203 0.11719-1.2461 0.13672-0.39844 0.34766-0.74219 0.625-1.0273 0.39062-0.40625 0.92188-0.69922 1.5625-0.78906l25.988-3.7031c0.60547-0.085938 1.1523-0.30469 1.6016-0.63281 0.45312-0.33203 0.83203-0.78125 1.0977-1.3242l11.551-23.57c0.28125-0.57422 0.72266-0.98828 1.2305-1.2383 0.375-0.18359 0.78906-0.27734 1.1992-0.27734 0.40234-0.003906 0.81641 0.089844 1.1992 0.27734 0.50391 0.24609 0.94531 0.66016 1.2305 1.2383z"/></svg>
</svg>