<svg xmlns="http://www.w3.org/2000/svg" viewBox="0 0 24 24" width="24" height="24" fill="#ffffff">
<svg width="100pt" height="100pt" version="1.1" viewBox="0 0 100 100" xmlns="http://www.w3.org/2000/svg"> <path d="m9.3984 80.301c-0.39844-5.6016 2.6016-10.801 7.6016-13.402-2.6016-7.3984-2.1016-15.602 1.3984-22.602s9.6992-12.398 17.199-14.801c-1.3008-2.6992-2.8008-4.3008-4.3008-4.8984 16.199-7.8008 26.199-6.3984 29.801 4.3008 17 8.3984 20.602 15 10.602 19.801-3.8008-1.1016-6.8008 0-8.8008 3 0.19922 3.1992 0.30078 4.8984 0.30078 4.8984-13.699-1.1992-9.6992 10.699-22.801 9.3984 1.6016-3.1016 0.89844-6.8984-1.8008-9.1992-2.6016-2.3008-6.5-2.3984-9.3008-0.39844s-3.8984 5.6992-2.6016 9c5.5 1.3008 9.3984 6.1992 9.3984 11.898-5.1992-0.10156-9.6992-1.1016-13.398-3-3.2969 3.7031-8.1953 6.0039-13.297 6.0039zm57.5-26.5v11.199c-0.10156 2.1992 0.30078 4.3008 1.3008 6.1992 1 1.8984 2.5 3.6016 4.3984 4.6992 1.8984 1.1992 4.1016 1.8008 6.1992 1.8008 2.1016 0 4.3008-0.60156 6.1992-1.8008 1.8984-1.1992 3.3984-2.8008 4.3984-4.6992 1-1.8984 1.3984-4 1.3008-6.1992l0.003907-34.602c0-1-0.80078-1.8008-1.8008-1.8008-1 0.003906-1.8984 0.80078-1.8984 1.8008v34.801c0.10156 1.6016-0.19922 3.1016-0.89844 4.3984-0.69922 1.3008-1.6992 2.5-3 3.3008-1.3008 0.80078-2.8008 1.1992-4.3008 1.1992s-3-0.39844-4.3008-1.1992c-1.3008-0.80078-2.3984-2-3-3.3008-0.69922-1.3008-1-2.8008-0.89844-4.3984v-2.1992l7-1.3008c-0.80078-0.69922-8.9023-9.6992-8.9023-9.6992-1 0-1.8008 0.80078-1.8008 1.8008zm-4.2969-19.102c-1.6992 0-3 1.3984-3 3 0 1.6016 1.3984 3 3 3 1.6992 0 3-1.3984 3-3 0-1.5977-1.3008-3-3-3zm-34.602 13.902c1.3008-2.3008 3-4.3984 5-6.1016 2-1.6992 4.3008-3.1016 6.8008-4 2.3008-0.80078 1-4.1992-1.1992-3.3984-2.8984 1.1016-5.6016 2.6992-7.8984 4.6016-2.3008 2-4.3008 4.3984-5.8008 7.1016-1.2031 2.1953 1.9961 3.8945 3.0977 1.7969z" fill-rule="evenodd"/></svg>
</svg>