<svg xmlns="http://www.w3.org/2000/svg" viewBox="0 0 24 24" width="24" height="24" fill="#ffffff">
<svg width="100pt" height="100pt" version="1.1" viewBox="0 0 100 100" xmlns="http://www.w3.org/2000/svg"> <g>  <path d="m49.992 12.488c-9.4531 0-17.188 7.7578-17.188 17.211s7.7344 17.18 17.188 17.18c9.457 0 17.18-7.7266 17.18-17.18 0-9.457-7.7266-17.211-17.18-17.211z"/>  <path d="m40.625 53.137c-5.7305 0-10.586 2.9336-13.793 7.0547s-4.9609 9.4297-4.9609 14.812v3.1133c0 5.1406 4.2539 9.3867 9.3945 9.3867h37.48c5.1406 0 9.3945-4.2461 9.3945-9.3867v-3.1133c0-5.3828-1.7539-10.691-4.9609-14.812-3.207-4.1211-8.0664-7.0547-13.793-7.0547z"/>  <path d="m78.52 37.5c-0.98047 0-1.8906 0.53906-2.3633 1.3984l-1.5273 2.793-2.793 1.5273c-1.8633 1.0234-1.8633 3.7031 0 4.7227l2.793 1.5273 1.5273 2.793c1.0273 1.8633 3.7031 1.8633 4.7227 0l1.5273-2.793 2.793-1.5273c1.8633-1.0234 1.8633-3.7031 0-4.7227l-2.793-1.5273-1.5273-2.793c-0.47266-0.86328-1.3789-1.3984-2.3633-1.3984z"/>  <path d="m22.602 40.625c-0.75781 0-1.4609 0.41406-1.8281 1.082l-1.1797 2.1602-2.1602 1.1797c-1.4414 0.78906-1.4414 2.8633 0 3.6523l2.1602 1.1797 1.1797 2.1602c0.79297 1.4414 2.8633 1.4414 3.6523 0l1.1797-2.1602 2.1602-1.1797c1.4414-0.78906 1.4414-2.8633 0-3.6523l-2.1602-1.1797-1.1797-2.1602c-0.36719-0.66797-1.0625-1.082-1.8242-1.082z"/>  <path d="m18.18 26.473c-0.57813 0-1.1211 0.31641-1.3984 0.82812l-0.89844 1.6523-1.6523 0.90234c-1.0977 0.60547-1.0977 2.1875 0 2.793l1.6523 0.90234 0.89844 1.6523c0.60156 1.1016 2.1914 1.1016 2.793 0l0.89844-1.6523 1.6523-0.90234c1.0977-0.60547 1.0977-2.1875 0-2.793l-1.6523-0.90234-0.89844-1.6523c-0.28516-0.51172-0.81641-0.82812-1.3984-0.82812z"/> </g></svg>
</svg>