<svg xmlns="http://www.w3.org/2000/svg" viewBox="0 0 24 24" width="24" height="24" fill="#ffffff">
<svg width="100pt" height="100pt" version="1.1" viewBox="0 0 100 100" xmlns="http://www.w3.org/2000/svg"> <path d="m34.691 2.7852c7.2656 0 13.164 9.0391 13.164 20.176 0 11.141-5.8984 20.176-13.164 20.176-7.2656 0.003906-13.164-9.0234-13.164-20.172 0.007812-11.141 5.8984-20.18 13.164-20.18zm16.738 48.844c15.414 0.03125 17.332 10.242 30.328 27.723 6.4766 12.719-1.9336 20.734-16.352 17.301-6.5391-3.332-11.141-4.5078-15.754-4.3516-7.9922 0.27734-10.012 5.5508-19.312 5.1797-7.1758-0.19141-10.406-3.1992-11.031-7.7852-0.67188-4.8711 1.207-7.9492 3.4961-11.977 8.8867-15.676 18.082-28.055 28.625-26.09zm-42.164-18.918c-5.4336 2.1484-7.168 10.645-3.875 18.973 3.293 8.3242 10.367 13.336 15.801 11.188 5.4336-2.1484 7.168-10.645 3.875-18.973-3.293-8.3242-10.367-13.336-15.801-11.188zm81.469 0c5.4336 2.1484 7.168 10.645 3.875 18.973-3.293 8.3242-10.375 13.336-15.801 11.188-5.4336-2.1484-7.168-10.645-3.875-18.973 3.293-8.3242 10.367-13.336 15.801-11.188zm-25.668-30.211c7.2656 0 13.164 9.0391 13.164 20.176 0 11.141-5.8984 20.176-13.164 20.176s-13.164-9.0312-13.164-20.176c0.007812-11.137 5.8984-20.176 13.164-20.176z" fill-rule="evenodd"/></svg>
</svg>