<svg xmlns="http://www.w3.org/2000/svg" viewBox="0 0 24 24" width="24" height="24" fill="#ffffff">
<svg width="100pt" height="100pt" version="1.1" viewBox="0 0 100 100" xmlns="http://www.w3.org/2000/svg"> <path d="m84.879 49.793v34.707c-0.003906 2.4141-1.9609 4.3711-4.375 4.375h-61.004c-2.418 0-4.375-1.957-4.3789-4.375v-34.711c1.4141 3.1484 3.5117 5.9453 6.1406 8.1797 4.1523 3.5352 9.4258 5.4805 14.879 5.4883h6.7305c-0.027344 0.14453-0.039063 0.29297-0.039063 0.44141v3.3242c0.003907 1.3359 1.0859 2.418 2.4258 2.4219h0.77734v2.5547c0 1.3398 1.0859 2.4219 2.4219 2.4219h3.0859c1.3359 0 2.4219-1.082 2.4219-2.4219v-2.5547h0.77734c1.3398-0.003906 2.4219-1.0859 2.4258-2.4219v-3.3242c0-0.14844-0.011719-0.29688-0.039063-0.44141h6.7305c5.4297-0.007812 10.684-1.9375 14.832-5.4492 2.6484-2.2422 4.7617-5.0508 6.1875-8.2148z"/> <path d="m84.383 44.973c-1.0312 4.6758-3.6289 8.8594-7.3594 11.855-3.7344 2.9961-8.3789 4.6289-13.164 4.6289h-27.719c-4.7891 0.003907-9.4336-1.625-13.168-4.625-3.7305-2.9961-6.3281-7.1836-7.3555-11.859z"/> <path d="m71.328 36.656h4.3594c0.66406 0 1.1992 0.66406 1.1992 1.1992v7.918c0 0.66406-0.53906 1.1992-1.1992 1.1992h-4.3594c-0.66406 0-1.1992-0.66406-1.1992-1.1992v-7.918c0-0.66406 0.53906-1.1992 1.1992-1.1992z"/> <path d="m24.93 36.656h4.3594c0.66406 0 1.1992 0.66406 1.1992 1.1992v7.918c0 0.66406-0.53906 1.1992-1.1992 1.1992h-4.3594c-0.66406 0-1.1992-0.66406-1.1992-1.1992v-7.918c0-0.66406 0.53906-1.1992 1.1992-1.1992z"/> <path d="m73.426 38.406c-0.96875 0-1.75-0.78516-1.75-1.75 0-12.148-9.6172-22.031-21.438-22.031-11.824 0-21.438 9.8828-21.438 22.031 0 0.96484-0.78516 1.75-1.75 1.75-0.96875 0-1.75-0.78516-1.75-1.75 0-6.8125 2.5898-13.219 7.2891-18.039 4.6992-4.8203 10.98-7.4922 17.648-7.4922s12.938 2.6602 17.648 7.4922c4.7109 4.832 7.2891 11.227 7.2891 18.039 0 0.96484-0.78516 1.75-1.75 1.75z"/> <path d="m55.168 63.898v3.3242c-0.003907 0.23047-0.19141 0.41797-0.42578 0.42188h-1.7773c-0.55078 0-1 0.44531-1 1v3.5547c-0.003906 0.23438-0.19141 0.42188-0.42188 0.42188h-3.0859c-0.23047 0-0.41797-0.1875-0.42188-0.42188v-3.5547c0-0.26562-0.10547-0.51953-0.29297-0.70703s-0.44141-0.29297-0.70703-0.29297h-1.7773c-0.23437-0.003906-0.42187-0.19141-0.42578-0.42188v-3.3242c0.003907-0.23047 0.19141-0.41797 0.42578-0.42188h9.4883-0.003906c0.23437 0.003907 0.42187 0.19141 0.42578 0.42188z"/></svg>
</svg>