<svg xmlns="http://www.w3.org/2000/svg" viewBox="0 0 24 24" width="24" height="24" fill="#ffffff">
<svg width="100pt" height="100pt" version="1.1" viewBox="0 0 100 100" xmlns="http://www.w3.org/2000/svg"> <path d="m57.426 24.344 0.5-1.9883c1.2305-4.8477 5.5938-8.2422 10.594-8.2422h1.2734c-0.089844 0.39453-0.13281 0.79688-0.13672 1.1992v6.625c0.003906 0.40234 0.046875 0.80469 0.13672 1.1992h-1.2734c-0.875 0.003906-1.6367 0.59766-1.8516 1.4453l-1.5117 5.9258v0.003907c-1.2188-0.42188-2.5-0.63672-3.793-0.63672h-5.3203l0.86328-3.4492h-9.168c-0.57422 0-1.0391-0.46484-1.0391-1.0391 0-0.57812 0.46484-1.043 1.0391-1.043zm20.082 29.062 0.003907-2.1445c-0.007813-0.83984-0.12891-1.6758-0.36719-2.4805l-9.9805 4.168h0.003907c-1.1016 0.45312-1.8203 1.5273-1.8125 2.7188 0.003906 1.6094 1.2969 2.918 2.9062 2.9453l7.4492 0.11328-0.003907 0.003907c1.168-1.5312 1.8008-3.4023 1.8047-5.3242zm-45.77 5.207c1.3984-0.019531 2.5859-1.0156 2.8516-2.3867 0.26562-1.3711-0.46875-2.7383-1.7578-3.2773l-9.9805-4.168h0.003907c-0.23828 0.80469-0.35938 1.6406-0.36719 2.4805v2.1445c0.003907 1.9219 0.63672 3.793 1.8047 5.3242zm36.918-18.281c0.75 0.003907 1.4961 0.082031 2.2305 0.23047-0.51172-4.8828-4.625-8.5938-9.5312-8.6055h-22.711c-4.8867 0.039063-8.9688 3.7422-9.4766 8.6055 0.73047-0.14844 1.4727-0.22656 2.2188-0.23047zm-51.645 13.086c-2.7266 0-5.2617 1.3945-6.7188 3.6953l9.1875 4.0312c1.2227 0.54297 2.6172 0.54297 3.8438 0l0.23047-0.09375h-0.003907c-1.9961-2.0391-3.1172-4.7773-3.125-7.6328zm-7.9688 7.9688v4.9062c0.03125-0.003907 0.0625-0.003907 0.09375 0l10.344 4.5391c1.2227 0.54297 2.6172 0.54297 3.8438 0l7.9258-3.4258c-0.84766-0.42969-1.6406-0.96484-2.3555-1.5938l-3.6133-3.2188-1.043 0.45703c-1.7578 0.77734-3.7617 0.77734-5.5195 0l-9.3438-4.0508c-0.23438 0.77344-0.34375 1.5781-0.33203 2.3867zm12.363 21.668v-0.003907c-0.94922 0-1.8906-0.19922-2.7617-0.58203l-9.6055-4.168 0.003907 1.9062c0.003906 4.3984 3.5703 7.9648 7.9688 7.9688h8.793-0.003907c4.3984-0.003906 7.9648-3.5703 7.9688-7.9688v-1.9453l-9.6055 4.168 0.003907-0.003907c-0.86719 0.39844-1.8086 0.61328-2.7617 0.625zm0-9.707v-0.003906c-0.94922 0-1.8906-0.19922-2.7617-0.58203l-9.6055-4.168 0.003907 7.4492h0.09375l10.344 4.543v-0.003907c1.2227 0.54297 2.6172 0.54297 3.8438 0l10.352-4.5391h0.09375v-7.4922l-9.6055 4.168h0.003907c-0.86719 0.39453-1.8086 0.60938-2.7617 0.625zm59.113-12.203 9.1875-4.0312c-1.457-2.3008-3.9922-3.6953-6.7188-3.6953h-3.3945c-0.007812 2.8555-1.1289 5.5938-3.125 7.6328l0.23047 0.09375c1.2148 0.53516 2.6055 0.53516 3.8203 0zm0.83203 1.9062h0.003907c-1.7578 0.77734-3.7656 0.77734-5.5234 0l-1.043-0.45703-3.6133 3.2188c-0.71094 0.62891-1.5039 1.1641-2.3516 1.5938l7.8516 3.4258c1.2266 0.54297 2.6211 0.54297 3.8438 0l10.344-4.5312h0.09375v-4.9141c0.011719-0.80859-0.097656-1.6133-0.33203-2.3867zm-2.7617 20h0.003906c-0.94922 0-1.8906-0.19922-2.7617-0.58203l-9.6055-4.168 0.003907 1.9062c0.003906 4.3984 3.5703 7.9648 7.9688 7.9688h8.793-0.003907c4.3984-0.003906 7.9648-3.5703 7.9688-7.9688v-1.9453l-9.6055 4.168 0.003907-0.003907c-0.86719 0.39844-1.8086 0.61328-2.7617 0.625zm0-9.707h0.003906c-0.94922 0-1.8906-0.19922-2.7617-0.58203l-9.6055-4.168 0.003907 7.4492h0.09375l10.355 4.543-0.003907-0.003907c1.2266 0.54297 2.6211 0.54297 3.8438 0l10.344-4.5391h0.09375v-7.4922l-9.6055 4.168h0.003907c-0.86719 0.39844-1.8086 0.60938-2.7617 0.625zm-17.477-4.7695h-8.332v2.1875h-5.5312v-2.1875h-8.332v2.5938l-3.0195 1.5117-0.003907 2.3203 3.0195-1.5195 0.003907 1.9375c0 2.3008 1.8633 4.1641 4.1641 4.1641s4.168-1.8633 4.168-4.1641v-2.5742h5.4883v2.5742c0 2.3008 1.8672 4.1641 4.168 4.1641s4.168-1.8633 4.168-4.1641v-1.9297l3.0703 1.5117v-2.3242l-3.0312-1.5117zm-45.75-43.148h9.375c1.9297 0 3.4961-1.5586 3.5-3.4883v-6.625c-0.003906-1.9297-1.5703-3.4883-3.5-3.4883h-9.375c-3.7539 0-6.8008 3.043-6.8008 6.8008s3.0469 6.8008 6.8008 6.8008zm14.844-2.2891h1.2617c0.87891 0 1.6445 0.59375 1.8633 1.4453l1.5117 5.9258v0.003907c1.2188-0.42188 2.5-0.63672 3.793-0.63672h5.3125l-1.8867-7.5195c-0.125-0.49219-0.28516-0.97266-0.48047-1.4375h13.062c0.57812 0 1.043-0.46875 1.043-1.043s-0.46484-1.043-1.043-1.043h-14.176c-2.043-2.9492-5.4023-4.7148-8.9883-4.7188h-1.2734c0.089844 0.39453 0.13281 0.79688 0.13672 1.1992v6.625c-0.003906 0.40234-0.046875 0.80469-0.13672 1.1992zm45.012 2.293h9.375v-0.003907c3.7578 0 6.8008-3.043 6.8008-6.8008s-3.043-6.8008-6.8008-6.8008h-9.375c-1.9297 0-3.4961 1.5586-3.5 3.4883v6.625c0.003906 0.92969 0.375 1.8164 1.0312 2.4727 0.66016 0.65234 1.5508 1.0195 2.4805 1.0156zm-29.387 34.176h8.3359c0.57422 0 1.1211-0.25391 1.4883-0.69922 0.42969-0.51562 0.56641-1.2148 0.35547-1.8555l-1.75-5.2617v0.003907c-0.26172-0.79688-1.0078-1.3359-1.8438-1.3359h-4.8555c-0.83984 0-1.582 0.53906-1.8438 1.3359l-0.45703 1.3867 8.2812-0.003907c0.57422 0 1.0391 0.46875 1.0391 1.043s-0.46484 1.043-1.0391 1.043h-8.9805l-0.59375 1.793v-0.003907c-0.19531 0.59766-0.089844 1.25 0.27734 1.7539 0.37109 0.50781 0.96094 0.80469 1.5859 0.80078zm-9.707 6.8867v-0.003907c-2.1797 0.011719-4.2891-0.78516-5.918-2.2383l-3.8945-3.4688 5.4375-0.082031c2.3711-0.046875 4.3906-1.7383 4.8438-4.0664 0.45703-2.3281-0.77734-4.6602-2.957-5.5898l-9.957-4.168h-0.003907c0.42188-0.77344 0.96094-1.4766 1.5938-2.082 1.6367-1.5586 3.8086-2.4219 6.0625-2.418h37.324c2.2617-0.007812 4.4336 0.85938 6.0742 2.418 0.63281 0.60547 1.1719 1.3086 1.5938 2.082l-9.957 4.168h-0.003907c-2.2031 0.91406-3.4609 3.2539-3.0078 5.5977 0.44922 2.3438 2.4883 4.0469 4.875 4.0781l5.4375 0.082031-3.875 3.4492c-1.6172 1.4453-3.7109 2.2422-5.875 2.2383zm6.6133-6.25v-0.003907c0.77344 0.92578 1.9219 1.457 3.125 1.4492h8.3359c1.293 0.003906 2.5078-0.61719 3.2656-1.668 0.75781-1.0469 0.96484-2.3945 0.55469-3.625l-1.75-5.207c-0.54688-1.6484-2.0859-2.7578-3.8203-2.7617h-4.8867c-1.7188 0-3.25 1.0859-3.8125 2.7109l-1.75 5.207c-0.46484 1.332-0.19531 2.8125 0.70703 3.8945z"/></svg>
</svg>