<svg xmlns="http://www.w3.org/2000/svg" viewBox="0 0 24 24" width="24" height="24" fill="#ffffff">
<svg width="100pt" height="100pt" version="1.1" viewBox="0 0 100 100" xmlns="http://www.w3.org/2000/svg"> <path d="m30 17.5c0 3.5898-2.9102 6.5-6.5 6.5s-6.5-2.9102-6.5-6.5 2.9102-6.5 6.5-6.5 6.5 2.9102 6.5 6.5zm-23 14.5c0-3.3125 2.6875-6 6-6h20c3.3125 0 6 2.6875 6 6v24c0 1.6562-1.3438 3-3 3s-3-1.3438-3-3v-21.746c0-0.55469-0.44922-1.0039-1.0039-1.0039-0.55078 0-1 0.44531-1.0039 0.99609l-0.46484 51.52c-0.015625 1.7891-1.4727 3.2344-3.2617 3.2344-1.8047 0-3.2656-1.4609-3.2656-3.2656v-29.105c0-0.625-0.50391-1.1289-1.1289-1.1289-0.62109 0-1.125 0.5-1.1289 1.1211l-0.21484 28.891c-0.015625 1.9297-1.5859 3.4883-3.5156 3.4883-1.9375 0-3.5117-1.5742-3.5117-3.5117v-51.238c0-0.55078-0.44922-1-1-1s-1 0.44922-1 1v22c0 1.5195-1.2305 2.75-2.75 2.75s-2.75-1.2305-2.75-2.75zm40.5-17c-1.3789 0-2.5 1.1211-2.5 2.5v65c0 1.3789 1.1211 2.5 2.5 2.5s2.5-1.1211 2.5-2.5v-65c0-1.3789-1.1211-2.5-2.5-2.5zm33.5 2.5c0 3.5898-2.9102 6.5-6.5 6.5s-6.5-2.9102-6.5-6.5 2.9102-6.5 6.5-6.5 6.5 2.9102 6.5 6.5zm-13.238 8.25c-1.6641 0-3.1523 1.0273-3.7422 2.582l-8.8047 23.215c-0.58594 1.5469 0.55859 3.2031 2.2109 3.2031 0.95312 0 1.8125-0.57031 2.1836-1.4492l5.7578-13.73c0.082031-0.19531 0.26953-0.32031 0.47656-0.32031 0.33594 0 0.58203 0.3125 0.50781 0.63672l-4.6523 19.875c-0.35547 1.5273 0.80078 2.9883 2.3672 2.9883 1.3438 0 2.4336 1.0898 2.4336 2.4336v20.316c0 1.9336 1.5664 3.5 3.5 3.5s3.5-1.5664 3.5-3.5v-22.371c0-0.62109 0.50781-1.1289 1.1289-1.1289s1.125 0.5 1.1328 1.1211l0.20703 22.676c0.019531 1.7734 1.4609 3.2031 3.2344 3.2031 1.8125 0 3.2695-1.4844 3.2344-3.2969l-0.39453-20.719c-0.023438-1.2266 0.96484-2.2344 2.1914-2.2344 1.4141 0 2.457-1.3164 2.1367-2.6914l-4.7227-20.176c-0.078126-0.32422 0.16797-0.63281 0.5-0.63281 0.21094 0 0.40234 0.12891 0.48047 0.32812l5.1836 13.395c0.41406 1.0703 1.4453 1.7773 2.5938 1.7773 1.9648 0 3.3086-1.9805 2.5859-3.8047l-8.9922-22.668c-0.60156-1.5273-2.0781-2.5273-3.7188-2.5273z" fill-rule="evenodd"/></svg>
</svg>