<svg xmlns="http://www.w3.org/2000/svg" viewBox="0 0 24 24" width="24" height="24" fill="#ffffff">
<svg width="100pt" height="100pt" version="1.1" viewBox="0 0 100 100" xmlns="http://www.w3.org/2000/svg"> <path d="m80.133 70.922-30.172-26.02c-0.66797-0.55859-1.5859-1.1328-2.0938-1.8398-0.98828-1.375 0-3.5156 0.15625-5.0234 1.125-10.613-9.6055-19.516-19.301-21.367-1.2188-0.23047-2.3164-0.29688-3.5625-0.27344-4.5391 0.27734-7.9805 3.0273-8.543 7.6289-0.25391 2.0703 0.058593 4.2031 0.5625 6.207 2.0234 8.0156 7.6406 15.312 15.84 17.512 1.8516 0.49609 3.9336 0.67969 5.8516 0.45312 1.3281-0.15625 2.5977-0.65234 3.8984-0.035157 1.1328 0.53906 1.8945 1.7734 2.6836 2.6992l24.07 27.875c1.6719 1.9375 3.0156 4.0352 5.6406 4.6953l0.5625 0.10156c3.4922 0.51562 6.8711-1.7344 7.5742-5.2305l0.011719-0.054688c0.67188-3.3438-0.82812-5.3516-3.1797-7.3281zm-42.637-44.465c-0.14453 0.11719-0.32031 0.17578-0.49609 0.17578-0.22656 0-0.45312-0.097656-0.60547-0.28906-1.6094-1.9688-4.0352-3.1328-7.207-3.4531-2.4297-0.24609-4.4023 0.11719-4.4219 0.125-0.42578 0.082031-0.83594-0.19922-0.91406-0.62109-0.082031-0.42578 0.19531-0.83594 0.62109-0.91797 0.085938-0.015624 2.1797-0.41016 4.8281-0.14844 3.5703 0.35547 6.4414 1.7461 8.3086 4.0234 0.27344 0.33594 0.22266 0.83203-0.11328 1.1055zm2.5703 3.8281c-0.125 0.078125-0.26562 0.11328-0.40234 0.11328-0.26562 0-0.52734-0.13672-0.67187-0.38281l-0.94141-1.5664c-0.22266-0.37109-0.10156-0.85156 0.26953-1.0742 0.37109-0.22266 0.85156-0.10156 1.0742 0.26953l0.94141 1.5664c0.22266 0.36719 0.10156 0.85156-0.26953 1.0742z"/></svg>
</svg>