<svg xmlns="http://www.w3.org/2000/svg" viewBox="0 0 24 24" width="24" height="24" fill="#ffffff">
<svg width="100pt" height="100pt" version="1.1" viewBox="0 0 100 100" xmlns="http://www.w3.org/2000/svg"> <path d="m5.1172 70.047h0.09375 17.684c1.7891 0 3.5234 0.53125 4.9922 1.5039 1.2617 2.0938 1.9883 4.543 1.9883 7.1602 0 7.6719-6.2266 13.898-13.898 13.898-7.6719 0-13.898-6.2266-13.898-13.898 0-3.2773 1.1367-6.2891 3.0352-8.6641zm10.863 2.5117c3.3945 0 6.1523 2.7578 6.1523 6.1523 0 3.3945-2.7578 6.1523-6.1523 6.1523s-6.1523-2.7578-6.1523-6.1523c0-3.3945 2.7578-6.1523 6.1523-6.1523z" fill-rule="evenodd"/> <path d="m91.059 70.316c1.7734 2.332 2.8242 5.2422 2.8242 8.3945 0 7.6719-6.2266 13.898-13.898 13.898s-13.898-6.2266-13.898-13.898c0-2.0625 0.44922-4.0195 1.2578-5.7812l1.6445-1.5039c0.77734-0.71094 1.7969-1.1094 2.8555-1.1094zm-11.07 2.2422c3.3945 0 6.1523 2.7578 6.1523 6.1523 0 3.3945-2.7578 6.1523-6.1523 6.1523s-6.1523-2.7578-6.1523-6.1523c0-3.3945 2.7578-6.1523 6.1523-6.1523z" fill-rule="evenodd"/> <path d="m57.617 44.68c0.0625-1.4062 0.65234-2.7461 1.6523-3.7461 1.0586-1.0586 2.5-1.6562 4-1.6562h2.6367c0.38281 0 0.75781-0.10547 1.0859-0.30469 1.0352-0.62891 3.4609-2.1094 5.1836-3.1602 1.2383-0.75391 2.6562-1.1523 4.1055-1.1523h7.1406c3.9688 0 7.1836 3.2148 7.1836 7.1836v3.7695c-2.3398-1.082-4.9102-1.6562-7.5391-1.6562h-21.883c-1.2383 0-2.4453 0.25-3.5625 0.72266z" fill-rule="evenodd"/> <path d="m24.836 33.773c-0.73438 0.16016-1.5039 0.24609-2.2969 0.24609-0.52734 0-1.0469-0.039062-1.5508-0.11328-1.0195-0.14844-1.7734-1.0195-1.7734-2.0508-0.011719-2.9531-0.011719-9.1641-0.011719-12.121 0-1.0352 0.75781-1.9141 1.7852-2.0625 0.50781-0.0625 1.0234-0.097656 1.5547-0.097656 2.5508 0 4.8672 0.89453 6.5625 2.3438-0.28906 0.5625-0.52734 1.1562-0.71094 1.7773l-3.5547 12.074z" fill-rule="evenodd"/> <path d="m33.879 18.984c0.019532-0.11328 0.050782-0.23047 0.09375-0.33984 0 0 1.2617-3.168 2.3828-5.9805 1.2695-3.1836 4.3516-5.2734 7.7773-5.2734h6.6953c0.86328 0 1.5625 0.69922 1.5625 1.5625s-0.69922 1.5625-1.5625 1.5625h-6.6953c-2.1484 0-4.0781 1.3086-4.875 3.3047l-1.5117 3.7969c0.17969-0.007813 0.37109-0.011719 0.55859-0.015626 0.26953-0.007812 0.52734 0.09375 0.72266 0.28125 0.19141 0.1875 0.30078 0.44531 0.30078 0.71094v41.254c0 1.4023 0.55859 2.75 1.5508 3.7422 0.99219 0.99219 2.3359 1.5508 3.7422 1.5508h3.7305c1.8047 0 3.5391-0.71875 4.8164-1.9961 1.2773-1.2773 1.9961-3.0117 1.9961-4.8164v-5.2188c0-1.5977 0.63281-3.1289 1.7617-4.2578 1.1289-1.1289 2.6602-1.7617 4.2578-1.7617h21.883c3.9414 0 7.7188 1.5664 10.504 4.3516 2.7852 2.7852 4.3516 6.5625 4.3516 10.504v2.1328c0 0.82812-0.32812 1.625-0.91406 2.2109-0.58594 0.58594-1.3789 0.91406-2.2109 0.91406h-22.945c-1.8359 0-3.6094 0.6875-4.9648 1.9297-2.1953 2.0078-5.6172 5.1367-7.8164 7.1484-1.3555 1.2383-3.125 1.9258-4.9648 1.9258h-11.848c-1.9492 0-3.8203-0.77344-5.1992-2.1523l-5.5547-5.5547c-2.2812-2.2812-5.375-3.5664-8.6016-3.5664h-17.684c-0.875 0-1.7031-0.375-2.2812-1.0273s-0.84766-1.5273-0.73828-2.3906v-0.003906c1.1094-8.8086 8.6367-15.633 17.742-15.633 1.332 0 2.6328 0.14453 3.8828 0.42188 0 0 5.0078-17.004 7.5703-25.711 0.43359-1.4727 1.3242-2.7188 2.4883-3.5977zm39.043 40.668h12.621c0.86328 0 1.5625-0.69922 1.5625-1.5625 0-0.86328-0.69922-1.5625-1.5625-1.5625h-12.621c-0.86328 0-1.5625 0.69922-1.5625 1.5625 0 0.86328 0.69922 1.5625 1.5625 1.5625z" fill-rule="evenodd"/></svg>
</svg>