<svg xmlns="http://www.w3.org/2000/svg" viewBox="0 0 24 24" width="24" height="24" fill="#ffffff">
<svg width="100pt" height="100pt" version="1.1" viewBox="0 0 100 100" xmlns="http://www.w3.org/2000/svg"> <path d="m93.156 60.574h-51.781c-7.0352 0.15234-13.164-5.5664-20.625-4.9688h-14v-16.062c0.035156-2.3633 1.5625-4.4414 3.8086-5.1758 2.2461-0.73438 4.707 0.039062 6.1289 1.9258 1.8086 3.6992 5.457 6.1484 9.5664 6.4102 4.1094 0.26562 8.043-1.6914 10.309-5.1289 1.0352-1.6133 1.5859-3.4883 1.5938-5.4062 0.09375-5.9062 7.3438-6.8438 11.094-4.0312l7.2188 5.625-4.625 4.625c-0.86719 0.90625-1.1211 2.2383-0.63672 3.3984 0.48047 1.1562 1.6016 1.9219 2.8555 1.9453 0.82812 0 1.6172-0.33984 2.1875-0.9375l4.9062-4.875c0.09375-0.09375 0.15625-0.1875 0.25-0.28125l3.3438 2.5938-5.5312 5.5625c-0.87891 0.89062-1.1406 2.2227-0.66406 3.3789 0.47656 1.1602 1.6016 1.918 2.8516 1.9336 0.82812-0.003907 1.625-0.32812 2.2188-0.90625l5.8125-5.8125c0.09375-0.085938 0.17578-0.17969 0.25-0.28125 3.3125 3.0195 7.5078 4.8945 11.969 5.3438 5.9883 0.50781 10.797 5.1562 11.5 11.125zm-51.625 6.25c-7.3477 0.64062-13.641-5.0898-20.625-4.9688h-14.156v5.2188c-0.003906 1.6758 0.66016 3.2852 1.8438 4.4688 1.1836 1.1836 2.793 1.8477 4.4688 1.8438h73.875c1.7188 0 3.3633-0.69531 4.5547-1.9375 1.1914-1.2383 1.8281-2.9062 1.7578-4.625z"/></svg>
</svg>