<svg xmlns="http://www.w3.org/2000/svg" viewBox="0 0 24 24" width="24" height="24" fill="#ffffff">
<svg width="100pt" height="100pt" version="1.1" viewBox="0 0 100 100" xmlns="http://www.w3.org/2000/svg"> <g>  <path d="m36.875 71.938 1.9688 14h22.281l1.9688-14c-3.8438 2.3125-8.3125 3.6562-13.125 3.6562s-9.25-1.3438-13.094-3.6562zm15.469 9.3125c0 1.2812-1.0625 2.3438-2.3438 2.3438s-2.3438-1.0625-2.3438-2.3438 1.0625-2.3438 2.3438-2.3438 2.3438 1.0625 2.3438 2.3438z"/>  <path d="m50 34.094c-8.7812 0-15.906 7.125-15.906 15.906s7.125 15.906 15.906 15.906 15.906-7.125 15.906-15.906-7.125-15.906-15.906-15.906zm1.8125 17.469h-0.25v0.5c0 0.875-0.6875 1.5625-1.5625 1.5625s-1.5625-0.6875-1.5625-1.5625v-0.5h-4.375v0.8125l-4.7188-2.375 4.7188-2.375v0.8125h4.375v-6.5h-1l2.5625-5.125 2.5625 5.125h-1v6.5h0.25c0.875 0 1.5625 0.6875 1.5625 1.5625s-0.6875 1.5625-1.5625 1.5625z"/>  <path d="m63.125 28.062-1.9688-14h-22.281l-2 14c3.8438-2.3125 8.3125-3.6562 13.125-3.6562s9.2812 1.3438 13.125 3.6562zm-20.938-9.3125c0-0.875 0.6875-1.5625 1.5625-1.5625h12.5c0.875 0 1.5625 0.6875 1.5625 1.5625s-0.6875 1.5625-1.5625 1.5625h-12.5c-0.875 0-1.5625-0.6875-1.5625-1.5625z"/>  <path d="m50 27.531c-12.375 0-22.469 10.062-22.469 22.469s10.062 22.469 22.469 22.469 22.469-10.062 22.469-22.469-10.094-22.469-22.469-22.469zm19.812 25.625c0.4375 0.09375 0.6875 0.5 0.625 0.90625-0.0625 0.375-0.40625 0.625-0.75 0.625h-0.15625l-1.0312-0.21875c-0.15625 0.71875-0.375 1.4062-0.625 2.0625l0.96875 0.40625c0.40625 0.15625 0.59375 0.625 0.4375 1.0312-0.125 0.3125-0.40625 0.46875-0.71875 0.46875-0.09375 0-0.1875-0.03125-0.3125-0.0625l-0.96875-0.40625c-0.3125 0.65625-0.65625 1.2812-1.0312 1.9062l0.875 0.59375c0.375 0.25 0.46875 0.71875 0.21875 1.0938-0.15625 0.21875-0.40625 0.34375-0.65625 0.34375-0.15625 0-0.3125-0.03125-0.4375-0.125l-0.875-0.59375c-0.4375 0.59375-0.875 1.1562-1.375 1.6875l0.75 0.75c0.3125 0.3125 0.3125 0.8125 0 1.0938-0.15625 0.15625-0.34375 0.21875-0.5625 0.21875s-0.40625-0.0625-0.5625-0.21875l-0.75-0.75c-0.53125 0.5-1.0938 0.9375-1.6875 1.375l0.59375 0.875c0.25 0.34375 0.15625 0.84375-0.21875 1.0938-0.125 0.09375-0.28125 0.125-0.4375 0.125-0.25 0-0.5-0.125-0.65625-0.34375l-0.59375-0.875c-0.625 0.375-1.25 0.71875-1.9062 1.0312l0.40625 0.96875c0.15625 0.40625-0.03125 0.84375-0.4375 1.0312-0.09375 0.03125-0.1875 0.0625-0.3125 0.0625-0.3125 0-0.59375-0.1875-0.71875-0.46875l-0.40625-0.96875c-0.6875 0.25-1.375 0.46875-2.0625 0.625l0.21875 1.0312c0.09375 0.4375-0.1875 0.84375-0.625 0.90625h-0.15625c-0.375 0-0.6875-0.25-0.75-0.625l-0.21875-1.0312c-0.71875 0.125-1.4375 0.1875-2.1562 0.21875v1.0625c0 0.4375-0.34375 0.78125-0.78125 0.78125s-0.78125-0.34375-0.78125-0.78125v-1.0625c-0.71875-0.03125-1.4375-0.09375-2.1562-0.21875l-0.21875 1.0312c-0.0625 0.375-0.40625 0.625-0.75 0.625h-0.15625c-0.4375-0.09375-0.6875-0.5-0.625-0.90625l0.21875-1.0312c-0.71875-0.15625-1.4062-0.375-2.0625-0.625l-0.40625 0.96875c-0.125 0.3125-0.40625 0.46875-0.71875 0.46875-0.09375 0-0.1875-0.03125-0.3125-0.0625-0.40625-0.15625-0.59375-0.625-0.4375-1.0312l0.40625-0.96875c-0.65625-0.3125-1.2812-0.65625-1.9062-1.0312l-0.59375 0.875c-0.15625 0.21875-0.40625 0.34375-0.65625 0.34375-0.15625 0-0.3125-0.03125-0.4375-0.125-0.375-0.25-0.46875-0.71875-0.21875-1.0938l0.59375-0.875c-0.59375-0.4375-1.1562-0.875-1.6875-1.375l-0.75 0.75c-0.15625 0.15625-0.34375 0.21875-0.5625 0.21875s-0.40625-0.0625-0.5625-0.21875c-0.3125-0.3125-0.3125-0.8125 0-1.0938l0.75-0.75c-0.5-0.53125-0.9375-1.0938-1.375-1.6875l-0.875 0.59375c-0.125 0.09375-0.28125 0.125-0.4375 0.125-0.25 0-0.5-0.125-0.65625-0.34375-0.25-0.34375-0.15625-0.84375 0.21875-1.0938l0.875-0.59375c-0.375-0.625-0.71875-1.25-1.0312-1.9062l-0.96875 0.40625c-0.09375 0.03125-0.1875 0.0625-0.3125 0.0625-0.3125 0-0.59375-0.1875-0.71875-0.46875-0.15625-0.40625 0.03125-0.84375 0.4375-1.0312l0.96875-0.40625c-0.25-0.6875-0.46875-1.375-0.625-2.0625l-0.9375 0.21875h-0.15625c-0.375 0-0.6875-0.25-0.75-0.625-0.09375-0.4375 0.1875-0.84375 0.625-0.90625l1.0312-0.21875c-0.125-0.71875-0.1875-1.4375-0.21875-2.1562h-1.0938c-0.4375 0-0.78125-0.34375-0.78125-0.78125s0.34375-0.78125 0.78125-0.78125h1.0625c0.03125-0.71875 0.09375-1.4375 0.21875-2.1562l-1.0312-0.21875c-0.4375-0.09375-0.6875-0.5-0.625-0.90625s0.5-0.6875 0.90625-0.625l1.0312 0.21875c0.15625-0.71875 0.375-1.4062 0.625-2.0625l-0.96875-0.40625c-0.40625-0.15625-0.59375-0.625-0.4375-1.0312s0.625-0.59375 1.0312-0.4375l0.96875 0.40625c0.3125-0.65625 0.65625-1.2812 1.0312-1.9062l-0.875-0.59375c-0.375-0.25-0.46875-0.71875-0.21875-1.0938 0.25-0.34375 0.71875-0.46875 1.0938-0.21875l0.875 0.59375c0.4375-0.59375 0.875-1.1562 1.375-1.6875l-0.75-0.75c-0.3125-0.3125-0.3125-0.8125 0-1.0938s0.8125-0.3125 1.0938 0l0.75 0.75c0.53125-0.5 1.0938-0.9375 1.6875-1.375l-0.59375-0.875c-0.25-0.34375-0.15625-0.84375 0.21875-1.0938 0.34375-0.25 0.84375-0.15625 1.0938 0.21875l0.59375 0.875c0.625-0.375 1.25-0.71875 1.9062-1.0312l-0.40625-0.96875c-0.15625-0.40625 0.03125-0.84375 0.4375-1.0312 0.40625-0.15625 0.84375 0.03125 1.0312 0.4375l0.40625 0.96875c0.6875-0.25 1.375-0.46875 2.0625-0.625l-0.21875-1c-0.09375-0.4375 0.1875-0.84375 0.625-0.90625 0.40625-0.09375 0.84375 0.1875 0.90625 0.625l0.21875 1.0312c0.71875-0.125 1.4375-0.1875 2.1562-0.21875v-1.0938c0-0.4375 0.34375-0.78125 0.78125-0.78125s0.78125 0.34375 0.78125 0.78125v1.0625c0.71875 0.03125 1.4375 0.09375 2.1562 0.21875l0.21875-1.0312c0.09375-0.4375 0.5-0.6875 0.90625-0.625 0.4375 0.09375 0.6875 0.5 0.625 0.90625l-0.21875 1.0312c0.71875 0.15625 1.4062 0.375 2.0625 0.625l0.40625-0.96875c0.15625-0.40625 0.625-0.59375 1.0312-0.4375s0.59375 0.625 0.4375 1.0312l-0.40625 0.96875c0.65625 0.3125 1.2812 0.65625 1.9062 1.0312l0.59375-0.875c0.25-0.375 0.71875-0.46875 1.0938-0.21875s0.46875 0.71875 0.21875 1.0938l-0.59375 0.875c0.59375 0.4375 1.1562 0.875 1.6875 1.375l0.75-0.75c0.3125-0.3125 0.8125-0.3125 1.0938 0s0.3125 0.8125 0 1.0938l-0.75 0.75c0.5 0.53125 0.9375 1.0938 1.375 1.6875l0.875-0.59375c0.34375-0.25 0.84375-0.15625 1.0938 0.21875 0.25 0.34375 0.15625 0.84375-0.21875 1.0938l-0.875 0.59375c0.375 0.625 0.71875 1.25 1.0312 1.9062l0.96875-0.40625c0.40625-0.15625 0.84375 0.03125 1.0312 0.4375 0.15625 0.40625-0.03125 0.84375-0.4375 1.0312l-0.96875 0.40625c0.25 0.6875 0.46875 1.375 0.625 2.0625l1.0312-0.21875c0.40625-0.09375 0.84375 0.1875 0.90625 0.625s-0.1875 0.84375-0.625 0.90625l-1.0312 0.21875c0.125 0.71875 0.1875 1.4375 0.21875 2.1562h1.0625c0.4375 0 0.78125 0.34375 0.78125 0.78125s-0.34375 0.78125-0.78125 0.78125h-1.0625c-0.03125 0.71875-0.09375 1.4375-0.21875 2.1562z"/> </g></svg>
</svg>