<svg xmlns="http://www.w3.org/2000/svg" viewBox="0 0 24 24" width="24" height="24" fill="#ffffff">
<svg width="100pt" height="100pt" version="1.1" viewBox="0 0 100 100" xmlns="http://www.w3.org/2000/svg"> <path d="m63.457 15.211c-3.6484 1.6641-8.332 2.6992-13.453 2.6992s-9.8086-1.0352-13.453-2.6953c1.6914 5.8398 7.0391 10.086 13.453 10.086 6.418 0 11.762-4.25 13.453-10.09zm-30.188 0.31641-27.559 9.9922v0.003907c-0.72656 0.26562-1.1484 1.0273-0.98828 1.7852l3.6445 17.43-0.003907 0.003907c0.15234 0.72656 0.79297 1.2461 1.5391 1.2422h15.918v37.234c-0.003906 0.86328 0.69141 1.5664 1.5547 1.5703h45.25c0.86328-0.003906 1.5586-0.70703 1.5547-1.5703v-37.234h15.934c0.73828 0 1.3711-0.51953 1.5234-1.2422l3.6445-17.43-0.003906-0.003906c0.16016-0.75781-0.26172-1.5195-0.98828-1.7852l-27.551-9.9883c-1.8906 7.5-8.668 13.023-16.734 13.023s-14.844-5.5234-16.734-13.023z"/></svg>
</svg>