<svg xmlns="http://www.w3.org/2000/svg" viewBox="0 0 24 24" width="24" height="24" fill="#ffffff">
<svg width="100pt" height="100pt" version="1.1" viewBox="0 0 100 100" xmlns="http://www.w3.org/2000/svg"> <path d="m12.492 43.887h18.523c1.2266 0 1.7539-0.39062 1.7539-1.6445v-28.523c0-1.5781 0.41016-2.5859 2.2578-2.5859h12.41c3.1016 0 3.4336 0.91797 3.4336 3.4492v7.2773c0.12891 5.8672 4.2891 8.9531 9.9648 8.9766h13.699c3.0859 0 4.2695 1.8828 7.1914 1.8828h2.4766c1.4922 0 2.1172 1.0977 2.1289 2.2461l0.097657 9.1914c0.015624 1.9531 1.8242 3.5078 2.1992 5.418 0.36328 1.8633 0.35938 3.832 0 5.6992-0.375 1.9297-1.0469 3.8789-2.1992 5.4648-5.1094 7.0547-15.555 8.9141-19.23 16.812-0.56641 1.207-0.70312 2.6172-0.49219 3.9883 0.26172 1.6992 0.92578 3.3164 1.0781 4.793 0.30859 3.0391-5.2031 2.8984-7.8477 1.8633-2.4766-0.97266-3.8359-3.0312-4.8086-5.9492-2.4023-7.1797-2.0195-13.789-7.7891-19.559-4.4102-4.4062-9.3125-4.6445-11.793-2.4805-2.6797 2.5508 0.003906 7.5977-5.2305 5.8984-2.4961-0.80859-4.7852-2.5547-6.332-4.6719-1.793-2.4531-2.0781-5.6875-3.9961-8.0391-1.5781-1.9414-4.2773-4.7617-6.668-6.1484-1.5469-0.89062-2.1875-1.0234-2.1875-2.2383 0-0.79687 0.62109-1.1211 1.3594-1.1211z"/></svg>
</svg>