<svg xmlns="http://www.w3.org/2000/svg" viewBox="0 0 24 24" width="24" height="24" fill="#ffffff">
<svg width="100pt" height="100pt" version="1.1" viewBox="0 0 100 100" xmlns="http://www.w3.org/2000/svg"> <path d="m92.082 38.562c-1.9922 4.5742-5.3984 8.3477-9.7148 10.844-4.9062 2.832-10.695 3.7773-16.246 2.6484-0.70703-0.14453-1.4414 0.078124-1.9531 0.58594l-37.891 37.895c-4.6328 4.6328-12.172 4.6328-16.805 0-2.2422-2.2461-3.4805-5.2305-3.4805-8.4023 0-3.1719 1.2383-6.1602 3.4805-8.4023l37.887-37.887c0.51172-0.51172 0.73047-1.2422 0.58984-1.9492-0.96484-4.7578-0.42578-9.6836 1.5547-14.117 2.0039-4.4805 5.3633-8.1953 9.6133-10.648 3.5508-2.0508 7.5547-3.1406 11.652-3.1406 4.5586 0 9.0078 1.3477 12.809 3.875l0.55078 0.36719-13.875 8.0117c-2.2578 1.3047-3.8867 3.4336-4.5586 5.9492-0.67187 2.5078-0.32422 5.1797 0.97266 7.4297 1.3086 2.2656 3.4219 3.875 5.9492 4.5547 2.5195 0.67578 5.1719 0.33594 7.4297-0.96875l13.875-8.0117 0.042969 0.66016c0.22656 3.6562-0.41797 7.3438-1.8828 10.707z" fill-rule="evenodd"/></svg>
</svg>