<svg xmlns="http://www.w3.org/2000/svg" viewBox="0 0 24 24" width="24" height="24" fill="#ffffff">
<svg width="100pt" height="100pt" version="1.1" viewBox="0 0 100 100" xmlns="http://www.w3.org/2000/svg"> <g>  <path d="m67.484 21.266c0.58203 0.32812 1.2109 0.57422 1.8594 0.73438 0.54297 0.12109 1.0977 0.18359 1.6562 0.1875 2.9062 0 5.5273-1.75 6.6406-4.4375 1.1133-2.6836 0.49609-5.7773-1.5586-7.832-2.0547-2.0547-5.1484-2.6719-7.832-1.5586-2.6875 1.1133-4.4375 3.7344-4.4375 6.6406 0.027344 0.5625 0.10938 1.125 0.25 1.6719 0 0.23438 0.14062 0.45312 0.21875 0.67188 1.2266 1.1719 2.3008 2.4883 3.2031 3.9219z"/>  <path d="m35.781 17.344c0.085938-0.22656 0.15625-0.45312 0.21875-0.6875 0.12109-0.54297 0.18359-1.0977 0.1875-1.6562 0-2.9062-1.75-5.5273-4.4375-6.6406-2.6836-1.1133-5.7773-0.49609-7.832 1.5586-2.0547 2.0547-2.6719 5.1484-1.5586 7.832 1.1133 2.6875 3.7344 4.4375 6.6406 4.4375 0.5625-0.003906 1.1211-0.070312 1.6719-0.1875 0.64453-0.16406 1.2656-0.41016 1.8438-0.73438 0.92188-1.4375 2.0195-2.7539 3.2656-3.9219z"/>  <path d="m50 60.688c7.2305-0.011719 13.953-3.7031 17.844-9.7969l-0.26562-0.42188c-0.14062-0.20312-0.26562-0.40625-0.40625-0.59375s-0.42188-0.54688-0.64062-0.82812-0.26562-0.34375-0.42188-0.51562-0.51562-0.57812-0.78125-0.85938l-0.375-0.40625c-0.054687-0.046875-0.10938-0.10156-0.15625-0.15625-3.9023 3.9688-9.2305 6.2031-14.797 6.2031s-10.895-2.2344-14.797-6.2031c-0.046875 0.054687-0.10156 0.10938-0.15625 0.15625-0.13281 0.12891-0.25781 0.26172-0.375 0.40625-0.26562 0.28125-0.53125 0.5625-0.78125 0.85938s-0.28125 0.34375-0.42188 0.51562-0.4375 0.54688-0.64062 0.84375l-0.39062 0.5625-0.28125 0.4375c3.8906 6.0938 10.613 9.7852 17.844 9.7969z"/>  <path d="m58.562 83.25c0 3.6133 2.1758 6.875 5.5156 8.2578 3.3398 1.3828 7.1836 0.61719 9.7422-1.9375 2.5547-2.5586 3.3203-6.4023 1.9375-9.7422-1.3828-3.3398-4.6445-5.5156-8.2578-5.5156-4.9336 0.007812-8.9297 4.0039-8.9375 8.9375z"/>  <path d="m69.5 53.984c-4.5742 6.2031-11.824 9.8672-19.531 9.8672s-14.957-3.6641-19.531-9.8672c-1.1133 2.6133-1.6875 5.4258-1.6875 8.2656 0.003906 3.1367 0.71484 6.2344 2.0781 9.0625 0.51562-0.078125 1.0391-0.12109 1.5625-0.125 6.4414 0.011719 11.738 5.082 12.031 11.516 3.582 0.95312 7.3555 0.95312 10.938 0 0.29297-6.4336 5.5898-11.504 12.031-11.516 0.52344 0.003906 1.0469 0.046875 1.5625 0.125 1.3633-2.8281 2.0742-5.9258 2.0781-9.0625 0.046875-2.8281-0.47266-5.6406-1.5312-8.2656z"/>  <path d="m50 50.188c4.6914 0 9.1914-1.8633 12.508-5.1797 3.3164-3.3164 5.1797-7.8164 5.1797-12.508s-1.8633-9.1914-5.1797-12.508c-3.3164-3.3164-7.8164-5.1797-12.508-5.1797s-9.1914 1.8633-12.508 5.1797c-3.3164 3.3164-5.1797 7.8164-5.1797 12.508 0.007812 4.6875 1.875 9.1836 5.1914 12.496 3.3125 3.3164 7.8086 5.1836 12.496 5.1914zm8.75-24.688c0.96875 0 1.75 1.1719 1.75 2.625s-0.78125 2.625-1.75 2.625-1.75-1.1719-1.75-2.625 0.8125-2.625 1.75-2.625zm-14.188 14.062c-0.007812 0.48828-0.24609 0.94531-0.64062 1.2344 0.51562 1.4648 1.8984 2.4492 3.4531 2.4531 0.58594 0 1.0625-0.47656 1.0625-1.0625v-3.7969l-3.0469-3.0312c-0.44141-0.44922-0.57422-1.1211-0.32812-1.7031 0.23828-0.58203 0.80859-0.96484 1.4375-0.96875h7c0.62891 0.003906 1.1992 0.38672 1.4375 0.96875 0.26562 0.56641 0.16797 1.2383-0.25 1.7031l-3.125 3.0312v3.7969c0 0.58594 0.47656 1.0625 1.0625 1.0625 1.5547-0.003906 2.9375-0.98828 3.4531-2.4531-0.39453-0.28906-0.63281-0.74609-0.64062-1.2344 0-0.86328 0.69922-1.5625 1.5625-1.5625h1.75c0.41406 0 0.8125 0.16406 1.1055 0.45703s0.45703 0.69141 0.45703 1.1055c-0.007812 0.65625-0.42578 1.2383-1.0469 1.4531-0.67578 3.125-3.4414 5.3594-6.6406 5.3594-0.97266-0.03125-1.9023-0.40625-2.625-1.0625-0.73438 0.61719-1.6641 0.95312-2.625 0.95312-3.1992 0-5.9648-2.2344-6.6406-5.3594-0.62109-0.21484-1.0391-0.79688-1.0469-1.4531 0-0.86328 0.69922-1.5625 1.5625-1.5625h1.75c0.42188 0 0.82812 0.17188 1.1211 0.47266 0.29688 0.30469 0.45312 0.71484 0.44141 1.1367zm-3.3125-14.062c0.96875 0 1.75 1.1719 1.75 2.625s-0.78125 2.625-1.75 2.625-1.75-1.1719-1.75-2.625 0.78125-2.625 1.75-2.625z"/>  <path d="m28.906 50.203c-6.9219 1.7031-21.094 6.5-21.094 17.297 0 2.0781 0.32812 4.6875 1.9375 5.1562 3.7031 1.125 12.828-6.5469 15.953-10.938 0.089844-4.0469 1.1914-8.0039 3.2031-11.516z"/>  <path d="m32.5 74.312c-3.6133 0-6.875 2.1758-8.2578 5.5156-1.3828 3.3398-0.61719 7.1836 1.9375 9.7422 2.5586 2.5547 6.4023 3.3203 9.7422 1.9375 3.3398-1.3828 5.5156-4.6445 5.5156-8.2578-0.007812-4.9336-4.0039-8.9297-8.9375-8.9375z"/>  <path d="m71.094 50.203c1.9883 3.5195 3.0625 7.4766 3.125 11.516 3.125 4.3906 12.25 12.062 15.953 10.938 1.5625-0.48438 1.9375-3.125 1.9375-5.1562 0.078125-10.797-14.094-15.594-21.016-17.297z"/> </g></svg>
</svg>