<svg xmlns="http://www.w3.org/2000/svg" viewBox="0 0 24 24" width="24" height="24" fill="#ffffff">
<svg width="100pt" height="100pt" version="1.1" viewBox="0 0 100 100" xmlns="http://www.w3.org/2000/svg"> <path d="m96.906 47.812-0.03125 6.2188c-0.0625 18.062-21.094 32.719-46.875 32.719s-46.812-14.656-46.875-32.719l-0.03125-6.2188 5.0312 3.7188c5.168 3.7891 10.852 6.8203 16.875 9 2.0312 0.75 4.125 1.375 6.25 1.9375 6.1211 1.6055 12.422 2.4141 18.75 2.4062 6.3281 0.007812 12.629-0.80078 18.75-2.4062 2.125-0.5625 4.2188-1.1875 6.25-1.9375 6.0234-2.1797 11.707-5.2109 16.875-9zm-64.062 8.625c11.254 2.9062 23.059 2.9062 34.312 0 2.1875-0.59375 4.0312-1.1562 5.6875-1.7812 0.6875-0.25 1.375-0.5 2.0625-0.78125-0.46094-8.6719-2.6953-17.16-6.5625-24.938l-4.7188-9.4375-13.625 10.219-13.625-10.219-4.7188 9.4375c-3.875 7.7852-6.0977 16.285-6.5312 24.969 0.65625 0.25 1.3438 0.5 2 0.75 1.6875 0.625 3.5312 1.1875 5.7188 1.7812z"/></svg>
</svg>