<svg xmlns="http://www.w3.org/2000/svg" viewBox="0 0 24 24" width="24" height="24" fill="#ffffff">
<svg width="100pt" height="100pt" version="1.1" viewBox="0 0 100 100" xmlns="http://www.w3.org/2000/svg"> <path d="m83.984 35.516c-2.3203 0.67188-2.6641 3.375-6.6523 3.2383-2.0664-0.070312-1.9531-3.2031 0.10938-3.125 1.2148 0.046875 1.6016-0.32812 2.3672-1.0625 0.64062-0.61719 1.4531-1.3906 2.8125-1.8906l0.003906-0.003906c-3.1484-5.918-7.8477-10.875-13.594-14.332-5.7461-3.457-12.324-5.2852-19.031-5.293-20.375 0-36.953 16.578-36.953 36.953-0.007813 7.4961 2.2773 14.812 6.5469 20.977 1.3828-3.6367 5.2188-3.125 6.6914-3.625 1.9531-0.66797 2.9688 2.2891 1.0078 2.957l0.003906-0.003906c-0.65625 0.19922-1.332 0.33203-2.0156 0.39844-2.7969 0.36328-2.5938 0.66406-3.3047 3.3555v-0.003906c7.0078 8.1875 17.246 12.895 28.023 12.891 20.375 0 36.953-16.578 36.953-36.953v0.003906c0-4.9805-1.0078-9.9062-2.9688-14.48zm-28.625-17.133c7.1719 1.2227 13.715 4.8438 18.562 10.266 1.3828 1.5547-0.97656 3.5977-2.3281 2.082v0.003906c-4.375-4.8984-10.281-8.1641-16.758-9.2695-2.0352-0.34375-1.5156-3.4258 0.52344-3.082zm6.5 22.723c0.25781 0.33203 0.37109 0.75 0.31641 1.1641-0.058593 0.41797-0.27734 0.79297-0.61328 1.043-0.33203 0.25-0.75391 0.35938-1.168 0.29688-0.41406-0.0625-0.78516-0.28906-1.0312-0.625h-0.003906c-3.207-4.2852-8.9102-5.8438-13.852-3.7891-0.79687 0.33594-1.7109-0.042968-2.043-0.83984-0.33203-0.79688 0.042968-1.7109 0.83984-2.043 3.043-1.2656 6.4219-1.4844 9.6016-0.61719 3.1758 0.87109 5.9766 2.7734 7.9531 5.4102zm2.6797 11.801c-0.12891 0.62891-0.29297 1.2539-0.5 1.8594-0.66406 1.9531-3.625 0.95312-2.9609-1.0039v0.003906c0.16406-0.48047 0.29297-0.97266 0.39062-1.4688 0.40625-2.0273 3.4727-1.418 3.0703 0.60938zm-14.539 0.62891c2.0664 0 2.0664 3.125 0 3.125-2.6953 0-5.1211-1.6211-6.1523-4.1133-1.0312-2.4883-0.46094-5.3516 1.4414-7.2578 1.9062-1.9023 4.7695-2.4727 7.2578-1.4414 2.4922 1.0312 4.1133 3.457 4.1133 6.1523 0 2.0664-3.125 2.0664-3.125 0 0-1.4297-0.85938-2.7188-2.1836-3.2656-1.3203-0.54688-2.8398-0.24609-3.8516 0.76562s-1.3125 2.5312-0.76562 3.8516c0.54688 1.3242 1.8359 2.1836 3.2656 2.1836zm-6.0078-26.824c0.1875-0.046876 0.375-0.09375 0.55859-0.13672 2.0156-0.46875 2.7188 2.5781 0.70703 3.043l-0.48828 0.11719c-1.9961 0.51562-2.7773-2.5117-0.77734-3.0234zm-4.5391 15.098c0.35547 0.21484 0.60938 0.5625 0.71094 0.96484 0.097657 0.40234 0.035157 0.82812-0.17969 1.1836-2.7852 4.6094-2.0625 10.52 1.7461 14.324 3.8047 3.8047 9.7188 4.5195 14.324 1.7344 1.7695-1.0703 3.3867 1.6055 1.6172 2.6719h0.003906c-3.8125 2.3086-8.457 2.7812-12.652 1.2891-4.1953-1.4961-7.5-4.793-8.9961-8.9883-1.4961-4.1953-1.0273-8.8398 1.2773-12.652 0.21484-0.35547 0.5625-0.60938 0.96484-0.71094 0.40234-0.097656 0.82812-0.03125 1.1836 0.18359zm-16.711 17.941c0.69531 1.9531-2.2461 3-2.9453 1.0547-5.1484-14.418 0.67188-30.562 13.852-38.391 1.7773-1.0547 3.375 1.6328 1.5938 2.6875l0.003906-0.003906c-5.7734 3.4375-10.176 8.7695-12.453 15.09-2.2812 6.3164-2.2969 13.234-0.046875 19.562zm9.1641 6.0977c-9.3945-10.719-7.4531-27.289 4.2734-35.531 1.6914-1.1875 3.4883 1.3672 1.7969 2.5547-10.219 7.1875-11.879 21.609-3.7188 30.914 1.3672 1.5586-0.98437 3.6172-2.3477 2.0625zm26.91 14.984v0.003907c-7.7734 2.2305-16.105 1.4375-23.316-2.2305-1.8438-0.9375-0.42969-3.7227 1.4141-2.7891v0.003906c6.5078 3.3086 14.027 4.0273 21.047 2.0078 1.9883-0.57031 2.8438 2.4453 0.85547 3.0078zm9.6406-15.418c-5.0586 6.0469-12.754 9.2344-20.605 8.5391-2.0586-0.18359-1.7852-3.2969 0.27344-3.1133v0.003906c6.832 0.60547 13.527-2.168 17.934-7.4219 1.3242-1.5938 3.7266 0.40625 2.4023 1.9922zm2.3281-13.008c0.46875-3.9141-0.1875-7.8789-1.8867-11.434-1.6953-3.5547-4.3672-6.5547-7.7031-8.6523-1.7461-1.1094-0.070312-3.75 1.6719-2.6406 3.8242 2.4219 6.8867 5.8711 8.8359 9.9531 1.9492 4.082 2.707 8.6328 2.1875 13.129-0.23438 2.0547-3.3359 1.6992-3.1016-0.35547zm4.7422 16.992c-1.25 1.6484-3.7383-0.24609-2.4844-1.8906 4.3594-5.7305 6.4219-12.879 5.7852-20.047-0.066406-0.85547 0.56641-1.6055 1.4219-1.6797s1.6133 0.55469 1.6914 1.4102c0.70312 7.9414-1.582 15.859-6.4102 22.207z"/> <path d="m50 4.6875c-25.023 0-45.312 20.289-45.312 45.312s20.289 45.312 45.312 45.312 45.312-20.289 45.312-45.312-20.289-45.312-45.312-45.312zm0 85.391c-22.094 0-40.078-17.984-40.078-40.078s17.98-40.078 40.078-40.078 40.078 17.969 40.078 40.078-17.98 40.078-40.078 40.078z"/></svg>
</svg>